<?xml version="1.0" encoding="UTF-8" standalone="no"?>
<!-- Created with Inkscape (http://www.inkscape.org/) -->

<svg
   width="205.54141"
   height="35.879005"
   viewBox="0 0 54.38283 9.4929868"
   version="1.1"
   id="svg5"
   xml:space="preserve"
   xmlns="http://www.w3.org/2000/svg"
   xmlns:svg="http://www.w3.org/2000/svg"><defs
     id="defs2" /><g
     id="layer1"
     transform="translate(9.3049758,-121.03969)"><g
       id="g246"
       fill="#000000"
       stroke="none"
       transform="matrix(0.03572988,-0.03572988,0.03572988,0.03572988,-4.8027465,125.54192)"
       style="fill:#d40000"><title
         id="title240">Classical Five-Point Star, by Adam Stanislav</title><desc
         id="desc242">A star polygon, calculated and coded by hand to follow the classical star shape (sometimes called a concave decagon) traditionally constructed geometrically since antiquity.</desc><path
         d="m 0,-100 22.4514,69.0983 H 95.1057 L 36.3276,11.8034 58.7785,80.9017 0,38.1966 -58.7785,80.9017 -36.3276,11.8034 -95.1057,-30.9017 h 72.6543 z"
         id="path244"
         style="fill:#d40000" /></g><g
       id="g998"
       transform="matrix(0.23911802,0,0,0.23911802,-7.0799882,92.096919)"><g
         aria-label="BUNG AEN"
         id="text269"
         style="font-weight:bold;font-size:38.0952px;line-height:1.25;font-family:Caladea;-inkscape-font-specification:'Caladea Bold';fill:#ffcc00;stroke-width:0.26455"
         transform="matrix(0.99998816,0,0,0.99998816,4.5128855e-4,0.00143264)"><path
           d="m 49.02327,121.30635 q 4.990471,0 7.61904,1.6381 2.628569,1.59999 2.628569,4.68571 0,4.19047 -4.647615,5.40951 2.666664,0.8 4.076187,2.51429 1.447617,1.67619 1.447617,3.99999 0,3.35238 -2.742854,5.25714 -2.742854,1.90476 -7.54285,1.90476 H 38.128043 l 0.152381,-1.5619 q 1.295237,-0.26667 2.171426,-1.14286 v -19.99998 q -0.685713,-0.68571 -2.323807,-1.21904 l 0.152381,-1.48572 z m -0.914285,13.21904 h -2.057141 v 9.71427 q 1.485713,0.11429 2.590474,0.11429 2.78095,0 4.076186,-1.14286 1.333332,-1.14285 1.333332,-3.61904 0,-5.06666 -5.942851,-5.06666 z m 5.257138,-6.81904 q 0,-1.98095 -1.257142,-3.00952 -1.257141,-1.06667 -3.161901,-1.06667 -1.866665,0 -2.895236,0.15238 v 8.34285 h 2.095236 q 5.219043,0 5.219043,-4.41904 z"
           id="path377" /><path
           d="m 70.013763,138.79205 q 0,5.63809 5.333328,5.63809 4.91428,0 4.91428,-6.20952 v -14.2857 q -0.723808,-0.57143 -2.895235,-1.06666 l 0.190476,-1.56191 h 9.066658 l -0.228572,1.48572 q -1.638093,0.49523 -2.514283,1.21904 v 13.37142 q 0,3.54285 -0.914284,5.5619 -0.914285,1.98095 -3.199997,3.00952 -2.247617,1.02857 -5.219043,1.02857 -10.133323,0 -10.133323,-8.19047 v -14.78094 q -0.799999,-0.8 -2.895235,-1.14285 l 0.190476,-1.56191 h 11.161894 l -0.228572,1.56191 q -1.676188,0.34285 -2.628568,1.14285 z"
           id="path379" /><path
           d="m 109.86136,146.71585 h -5.79047 L 94.013762,129.19206 v 14.81903 q 0.87619,0.8 2.85714,1.21905 l -0.266666,1.48571 h -8.228564 l 0.152381,-1.5619 q 1.257142,-0.22857 2.171427,-1.14286 v -19.99998 q -0.8,-0.68571 -2.323808,-1.21904 l 0.152381,-1.48572 h 7.504755 l 10.514272,18.43808 v -15.73332 q -0.99047,-0.83809 -2.62857,-1.14285 l 0.19048,-1.56191 h 8.30475 l -0.22857,1.48572 q -1.48571,0.45714 -2.32381,1.21904 z"
           id="path381" /><path
           d="m 135.30899,144.20157 q -4.03809,2.89523 -9.37141,2.89523 -5.29524,0 -8.07619,-3.23809 -2.78095,-3.27619 -2.78095,-9.67618 0,-6.39999 2.89524,-9.75237 2.93333,-3.39047 8.60951,-3.39047 3.69524,0 6.01904,1.40952 2.36191,1.37143 2.36191,3.61904 0,1.37143 -0.87619,2.32381 -0.87619,0.95238 -1.98095,0.95238 -1.10476,0 -1.94286,-0.49524 -0.8,-0.49524 -1.18095,-1.25714 0.64762,-1.06666 0.64762,-1.94285 0,-2.59048 -3.2,-2.59048 -5.44761,0 -5.44761,10.62856 0,5.52381 1.52381,8.19047 1.5619,2.62857 4.79999,2.62857 1.21905,0 2.4,-0.53333 v -6.89523 q -0.72381,-1.21905 -2.97143,-1.48572 l 0.19048,-1.52381 8.38094,-0.30476 z"
           id="path383" /><path
           d="m 162.7756,144.23966 -1.79047,-5.44761 h -7.84762 l -1.82857,5.25714 q 1.06667,0.87619 3.2381,1.14285 l -0.19048,1.52381 h -8.60951 l 0.22857,-1.52381 q 1.75238,-0.0762 2.3238,-0.95238 l 8.11428,-22.93331 h 3.9619 l 8.19047,22.59046 q 0.60952,0.99047 2.32381,1.29523 l -0.19048,1.52381 h -10.43808 l 0.22857,-1.52381 q 1.75238,-0.26666 2.28571,-0.95238 z m -5.5619,-16.99046 -3.23809,9.14285 h 6.20952 z"
           id="path385" /><path
           d="m 191.11844,127.59206 q -0.87619,0.26667 -1.44762,0.26667 -0.53333,0 -1.37143,-0.15238 -0.57142,-2.62857 -1.63809,-4.07619 h -6.39999 v 9.02856 l 3.54285,-0.26666 q 0.68572,-0.0762 1.25714,-0.76191 0.60953,-0.68571 0.87619,-1.79047 h 1.98095 v 7.8857 h -1.98095 q -0.53333,-1.5238 -1.02857,-2.13333 -0.49524,-0.60952 -1.14285,-0.68571 l -3.50476,-0.30476 v 9.75237 h 6.66666 q 1.21904,-1.82857 1.79047,-4.83809 0.8,-0.11429 1.48571,-0.11429 0.72381,0 1.33334,0.11429 l -0.38096,7.19999 h -18.81902 l 0.15238,-1.5619 q 1.48571,-0.22857 2.17142,-0.95238 v -20.38093 q -0.91428,-0.8 -2.3238,-1.10476 l 0.11428,-1.40953 h 18.51427 z"
           id="path387" /><path
           d="m 215.57553,146.71585 h -5.79047 l -10.05713,-17.52379 v 14.81903 q 0.87619,0.8 2.85714,1.21905 l -0.26667,1.48571 h -8.22856 l 0.15238,-1.5619 q 1.25714,-0.22857 2.17142,-1.14286 v -19.99998 q -0.79999,-0.68571 -2.3238,-1.21904 l 0.15238,-1.48572 h 7.50475 l 10.51428,18.43808 v -15.73332 q -0.99048,-0.83809 -2.62857,-1.14285 l 0.19047,-1.56191 h 8.30476 l -0.22857,1.48572 q -1.48572,0.45714 -2.32381,1.21904 z"
           id="path389" /></g><g
         aria-label="aen.mhe.my.id"
         id="text273"
         style="font-weight:bold;font-size:13.0025px;line-height:1.25;font-family:Caladea;-inkscape-font-specification:'Caladea Bold';fill:#ffcc00;stroke-width:0.0902951"
         transform="matrix(0.99998816,0,0,0.99998816,4.5128855e-4,-3.1735299)"><path
           d="m 135.21116,161.14563 q -0.89717,0 -1.37826,-0.41608 -0.4811,-0.41608 -0.4811,-1.20923 0,-1.72934 2.5615,-1.91137 l 1.14422,-0.078 v -0.75414 q 0,-0.91018 -0.22105,-1.26124 -0.20804,-0.35107 -0.66312,-0.35107 -0.44209,0 -0.68914,0.19504 -0.23404,0.18203 -0.23404,0.49409 0,0.29906 0.28605,0.5201 -0.065,0.32506 -0.31206,0.5201 -0.24704,0.19504 -0.63712,0.19504 -0.39007,0 -0.67613,-0.27305 -0.28605,-0.27306 -0.28605,-0.67613 0,-0.68914 0.65012,-1.07921 0.66313,-0.40308 1.82035,-0.40308 2.79554,0 2.79554,2.0544 v 3.53668 q 0.22104,0.24704 0.78015,0.35106 l -0.052,0.45509 h -2.34045 l -0.13003,-0.74114 q -0.83216,0.83216 -1.93737,0.83216 z m 1.19623,-2.92556 q -0.71514,0.052 -1.0272,0.32506 -0.31206,0.27305 -0.31206,0.76715 0,0.98819 0.78015,0.98819 0.59812,0 1.20924,-0.71514 v -1.41727 z"
           id="path392" /><path
           d="m 142.34953,157.895 v 0.20804 q 0,1.09221 0.31206,1.62532 0.31206,0.5201 1.17023,0.5201 1.09221,0 1.79434,-0.71514 l 0.5201,0.5071 q -0.5331,0.5331 -1.11821,0.81915 -0.57211,0.28606 -1.50829,0.28606 -1.50829,0 -2.27544,-0.84516 -0.75415,-0.85817 -0.75415,-2.36646 0,-1.52129 0.80616,-2.39246 0.80615,-0.88417 2.28844,-0.88417 1.49529,0 2.1064,0.67613 0.61112,0.67613 0.68914,2.01539 l -0.36407,0.5461 z m 1.22224,-2.6005 q -1.18323,0 -1.22224,2.0804 l 2.18442,-0.10402 q 0,-1.0402 -0.20804,-1.50829 -0.20804,-0.46809 -0.75414,-0.46809 z"
           id="path394" /><path
           d="m 151.80235,156.77679 q 0,-1.24824 -0.80615,-1.24824 -0.33807,0 -0.66313,0.19504 -0.31206,0.19503 -0.4941,0.5201 v 3.95276 q 0.29906,0.23404 0.78015,0.35106 l -0.052,0.5071 h -3.28963 l 0.039,-0.5331 q 0.41608,-0.078 0.68913,-0.32506 v -3.74472 q 0,-0.46809 -0.18203,-0.63713 -0.18204,-0.18203 -0.63713,-0.20804 l 0.039,-0.50709 q 1.95038,-0.36407 2.22343,-0.44209 l 0.23404,0.11702 0.10402,0.75415 q 0.74115,-0.87117 1.91137,-0.87117 0.88417,0 1.40427,0.5331 0.5331,0.53311 0.5331,1.46929 v 3.53668 q 0.32507,0.24704 0.83216,0.35106 l -0.052,0.5071 h -3.28963 l 0.039,-0.5071 q 0.39007,-0.078 0.63712,-0.35106 z"
           id="path396" /><path
           d="m 155.30003,160.11843 q 0,-1.00119 0.91017,-1.00119 0.91018,0 0.91018,1.00119 0,0.98819 -0.91018,0.98819 -0.45509,0 -0.68913,-0.26005 -0.22104,-0.27305 -0.22104,-0.72814 z"
           id="path398" /><path
           d="m 162.63344,156.77679 q 0,-1.24824 -0.79316,-1.24824 -0.71513,0 -1.13121,0.71514 v 3.95276 q 0.29906,0.23404 0.78015,0.35106 l -0.052,0.5071 h -3.28963 l 0.039,-0.5331 q 0.41608,-0.078 0.68914,-0.32506 v -3.74472 q 0,-0.46809 -0.18204,-0.63713 -0.18203,-0.18203 -0.63712,-0.20804 l 0.039,-0.50709 q 1.95037,-0.36407 2.22342,-0.44209 l 0.23405,0.11702 0.10402,0.75415 q 0.72814,-0.87117 1.85935,-0.87117 1.30025,0 1.76834,1.06621 0.70214,-1.06621 2.00239,-1.06621 0.88417,0 1.41727,0.5331 0.5331,0.53311 0.5331,1.46929 v 3.53668 q 0.32507,0.24704 0.83216,0.35106 l -0.052,0.5071 h -3.28963 l 0.039,-0.5071 q 0.36407,-0.078 0.63712,-0.35106 v -3.41966 q 0,-1.24824 -0.79315,-1.24824 -0.35107,0 -0.67613,0.22104 -0.31206,0.20804 -0.4941,0.55911 0.026,0.23404 0.026,0.35107 v 3.53668 q 0.28605,0.23404 0.78015,0.35106 l -0.052,0.5071 h -3.23762 l 0.039,-0.5071 q 0.36407,-0.078 0.63713,-0.35106 z"
           id="path400" /><path
           d="m 170.35692,153.78621 q 0,-0.48109 -0.18204,-0.65012 -0.16903,-0.18204 -0.62412,-0.20804 l 0.039,-0.5071 q 0.16903,-0.039 0.70213,-0.13002 1.26125,-0.19504 1.67733,-0.31206 l 0.23404,0.13002 v 3.36765 q 0.72814,-0.81916 1.84636,-0.81916 0.88417,0 1.41727,0.5331 0.5331,0.53311 0.5331,1.46929 v 3.53668 q 0.29906,0.24704 0.81916,0.35106 l -0.039,0.5071 h -3.30263 l 0.039,-0.5071 q 0.39008,-0.078 0.63713,-0.35106 v -3.41966 q 0,-1.24824 -0.80616,-1.24824 -0.71514,0 -1.14422,0.70213 v 3.95276 q 0.26005,0.22105 0.78015,0.35107 l -0.052,0.5071 h -3.30263 l 0.052,-0.5331 q 0.42908,-0.091 0.67613,-0.32507 z"
           id="path402" /><path
           d="m 179.45867,157.895 v 0.20804 q 0,1.09221 0.31206,1.62532 0.31206,0.5201 1.17022,0.5201 1.09221,0 1.79435,-0.71514 l 0.5201,0.5071 q -0.5331,0.5331 -1.11822,0.81915 -0.57211,0.28606 -1.50829,0.28606 -1.50829,0 -2.27543,-0.84516 -0.75415,-0.85817 -0.75415,-2.36646 0,-1.52129 0.80616,-2.39246 0.80615,-0.88417 2.28844,-0.88417 1.49528,0 2.1064,0.67613 0.61112,0.67613 0.68913,2.01539 l -0.36407,0.5461 z m 1.22223,-2.6005 q -1.18322,0 -1.22223,2.0804 l 2.18442,-0.10402 q 0,-1.0402 -0.20804,-1.50829 -0.20804,-0.46809 -0.75415,-0.46809 z"
           id="path404" /><path
           d="m 184.42562,160.11843 q 0,-1.00119 0.91018,-1.00119 0.91017,0 0.91017,1.00119 0,0.98819 -0.91017,0.98819 -0.45509,0 -0.68914,-0.26005 -0.22104,-0.27305 -0.22104,-0.72814 z"
           id="path406" /><path
           d="m 191.75903,156.77679 q 0,-1.24824 -0.79315,-1.24824 -0.71514,0 -1.13122,0.71514 v 3.95276 q 0.29906,0.23404 0.78015,0.35106 l -0.052,0.5071 h -3.28963 l 0.039,-0.5331 q 0.41608,-0.078 0.68913,-0.32506 v -3.74472 q 0,-0.46809 -0.18203,-0.63713 -0.18204,-0.18203 -0.63713,-0.20804 l 0.039,-0.50709 q 1.95038,-0.36407 2.22343,-0.44209 l 0.23404,0.11702 0.10402,0.75415 q 0.72814,-0.87117 1.85936,-0.87117 1.30025,0 1.76834,1.06621 0.70213,-1.06621 2.00238,-1.06621 0.88417,0 1.41728,0.5331 0.5331,0.53311 0.5331,1.46929 v 3.53668 q 0.32506,0.24704 0.83216,0.35106 l -0.052,0.5071 h -3.28963 l 0.039,-0.5071 q 0.36407,-0.078 0.63713,-0.35106 v -3.41966 q 0,-1.24824 -0.79316,-1.24824 -0.35106,0 -0.67613,0.22104 -0.31206,0.20804 -0.49409,0.55911 0.026,0.23404 0.026,0.35107 v 3.53668 q 0.28606,0.23404 0.78015,0.35106 l -0.052,0.5071 h -3.23762 l 0.039,-0.5071 q 0.36407,-0.078 0.63712,-0.35106 z"
           id="path408" /><path
           d="m 201.41989,162.39387 q -0.33807,0.81916 -0.75415,1.17022 -0.41608,0.35107 -1.0662,0.35107 -0.65013,0 -1.0142,-0.26005 -0.36407,-0.26005 -0.36407,-0.70213 0,-0.42909 0.20804,-0.66313 0.20804,-0.23405 0.55911,-0.23405 0.36407,0 0.63712,0.31206 -0.14302,0.11703 -0.14302,0.39008 0,0.40308 0.35106,0.40308 0.22105,0 0.40308,-0.24705 0.19504,-0.24705 0.44209,-0.87117 l 0.39007,-0.98819 h -0.44208 l -1.87236,-5.29202 q -0.15603,-0.42908 -0.80616,-0.5461 l 0.026,-0.45509 h 3.40665 l -0.065,0.45509 q -0.48109,0.013 -0.74114,0.24705 l 1.28724,3.62769 1.43028,-3.58869 q -0.29906,-0.19503 -0.84516,-0.28605 l 0.052,-0.45509 h 2.41846 l -0.052,0.45509 q -0.57211,0.026 -0.67613,0.31206 z"
           id="path410" /><path
           d="m 204.29344,160.11843 q 0,-1.00119 0.91017,-1.00119 0.91018,0 0.91018,1.00119 0,0.98819 -0.91018,0.98819 -0.45509,0 -0.68913,-0.26005 -0.22104,-0.27305 -0.22104,-0.72814 z"
           id="path412" /><path
           d="m 207.90814,156.45173 q 0,-0.46809 -0.18204,-0.63713 -0.16903,-0.18203 -0.62412,-0.20804 l 0.039,-0.50709 q 0.16903,-0.039 0.70214,-0.13003 1.26124,-0.19504 1.67732,-0.31206 l 0.22104,0.11702 v 5.42205 q 0.32506,0.24704 0.83216,0.35106 l -0.052,0.5071 H 207.18 l 0.052,-0.5331 q 0.42908,-0.091 0.67613,-0.32506 z m 0.93618,-4.36884 q 1.0402,0 1.0402,0.91017 0,0.91018 -1.0402,0.91018 -1.0272,0 -1.0272,-0.91018 0,-0.91017 1.0272,-0.91017 z"
           id="path414" /><path
           d="m 215.5666,160.20945 q -0.57211,0.93618 -1.78135,0.93618 -1.19623,0 -1.82035,-0.78015 -0.61111,-0.78015 -0.61111,-2.36646 0,-1.5863 0.74114,-2.45747 0.75414,-0.88417 2.13241,-0.88417 0.68913,0 1.28725,0.31206 v -1.17022 q 0,-0.4811 -0.19504,-0.65013 -0.19504,-0.18203 -0.71514,-0.20804 l 0.039,-0.5071 q 1.83335,-0.26005 2.48348,-0.44208 l 0.22104,0.13002 v 8.12657 q 0.27305,0.24704 0.78015,0.35106 l -0.052,0.45509 h -2.34045 z m -0.052,-2.19742 v -2.40547 q -0.35107,-0.24704 -0.84517,-0.24704 -1.41727,0 -1.41727,2.71752 0,2.28844 1.07921,2.28844 1.18323,0 1.18323,-2.35345 z"
           id="path416" /></g><rect
         style="font-variation-settings:normal;opacity:1;vector-effect:none;fill:#ffcc00;fill-opacity:1;fill-rule:evenodd;stroke-width:0.207825;stroke-linecap:butt;stroke-linejoin:miter;stroke-miterlimit:4;stroke-dasharray:none;stroke-dashoffset:0;stroke-opacity:1;stop-color:#000000;stop-opacity:1"
         id="rect419"
         width="90.003372"
         height="5.3360839"
         x="38.105099"
         y="152.52914"
         ry="0" /></g></g></svg>
