<?xml version="1.0" encoding="UTF-8" standalone="no"?>
<svg
   xmlns:dc="http://purl.org/dc/elements/1.1/"
   xmlns:cc="http://creativecommons.org/ns#"
   xmlns:rdf="http://www.w3.org/1999/02/22-rdf-syntax-ns#"
   xmlns:svg="http://www.w3.org/2000/svg"
   xmlns="http://www.w3.org/2000/svg"
   xmlns:sodipodi="http://sodipodi.sourceforge.net/DTD/sodipodi-0.dtd"
   xmlns:inkscape="http://www.inkscape.org/namespaces/inkscape"
   width="1069.9659"
   height="547.16138"
   viewBox="0 0 283.09515 144.76978"
   version="1.1"
   id="svg8"
   inkscape:version="1.0.2 (e86c870879, 2021-01-15)"
   sodipodi:docname="mhecp.svg">
  <defs
     id="defs2">
    <inkscape:path-effect
       is_visible="true"
       id="path-effect19456"
       effect="spiro"
       lpeversion="0" />
    <inkscape:path-effect
       is_visible="true"
       id="path-effect19236"
       effect="spiro"
       lpeversion="0" />
    <inkscape:path-effect
       is_visible="true"
       id="path-effect1295"
       effect="spiro"
       lpeversion="0" />
    <inkscape:path-effect
       is_visible="true"
       id="path-effect1345"
       effect="spiro"
       lpeversion="0" />
    <style
       id="style47">
      .cls-1, .cls-3 {
        fill: #be0000;
      }

      .cls-2 {
        fill: #f8c301;
      }

      .cls-3 {
        fill-rule: evenodd;
      }
    </style>
  </defs>
  <sodipodi:namedview
     id="base"
     pagecolor="#ffffff"
     bordercolor="#666666"
     borderopacity="1.0"
     inkscape:pageopacity="0.0"
     inkscape:pageshadow="2"
     inkscape:zoom="0.47671929"
     inkscape:cx="368.93415"
     inkscape:cy="264.67115"
     inkscape:document-units="mm"
     inkscape:current-layer="layer1"
     inkscape:document-rotation="0"
     showgrid="false"
     units="px"
     inkscape:window-width="1328"
     inkscape:window-height="688"
     inkscape:window-x="19"
     inkscape:window-y="13"
     inkscape:window-maximized="0" />
  <metadata
     id="metadata5">
    <rdf:RDF>
      <cc:Work
         rdf:about="">
        <dc:format>image/svg+xml</dc:format>
        <dc:type
           rdf:resource="http://purl.org/dc/dcmitype/StillImage" />
        <dc:title />
      </cc:Work>
    </rdf:RDF>
  </metadata>
  <g
     inkscape:label="Layer 1"
     inkscape:groupmode="layer"
     id="layer1"
     transform="translate(-59.091964,-67.79043)">
    <g
       id="g87">
      <path
         style="fill:#b61c1c;fill-opacity:1;stroke:#830515;stroke-width:0.565944;stroke-linecap:butt;stroke-linejoin:round;stroke-miterlimit:4;stroke-dasharray:none;stroke-opacity:1"
         d="m 65.130585,89.51162 c 8.516629,-4.343503 18.161617,-6.45055 27.713686,-6.05434 18.499629,0.767346 35.416059,10.569579 53.652729,13.771027 14.96782,2.627602 30.71295,0.642797 44.56041,-5.617214 1.7281,16.781587 4.40876,33.465027 8.02476,49.943267 2.37451,10.82073 5.19213,21.66035 10.27049,31.50599 2.9231,5.66713 6.57722,10.95667 10.8432,15.69611 -17.69701,6.27853 -37.36624,6.85985 -55.40315,1.63741 -13.68,-3.96093 -26.52114,-11.16865 -40.67617,-12.73918 -11.54822,-1.2813 -23.5006,1.416 -33.379299,7.53274"
         id="path1343"
         inkscape:connector-curvature="0"
         sodipodi:nodetypes="cssczzcssc"
         inkscape:original-d="m 65.130585,89.51162 c 16.196014,-2.906477 5.869633,-7.331303 27.713686,-6.05434 10.922029,0.638471 42.281969,13.129625 53.652729,13.771027 11.37075,0.641401 33.38311,-5.566263 44.56041,-5.617214 0,0 5.75498,36.163007 8.02476,49.943267 2.26976,13.78027 4.34911,18.79292 10.27049,31.50599 5.9214,12.71306 10.8432,15.69611 10.8432,15.69611 -11.17729,0.0509 -44.0324,2.27883 -55.40315,1.63741 -11.37076,-0.64141 -29.75415,-12.10068 -40.67617,-12.73918 -21.84406,-1.27696 -17.18329,4.62626 -33.379299,7.53274"
         inkscape:path-effect="#path-effect1345" />
      <g
         id="g11640"
         transform="matrix(0.44214471,0,0,0.44214471,53.218118,82.110561)">
        <path
           d="m 105.83334,42.222719 5.44693,16.782843 h 17.62694 L 114.64668,69.378279 120.0936,86.161117 105.83334,75.788701 91.573096,86.161117 97.02001,69.378279 82.759477,59.005562 h 17.626943 z"
           fill="none"
           stroke="#fcd116"
           stroke-width="8.68902"
           id="path11600"
           style="fill:none;fill-opacity:1;stroke:#f3d606;stroke-opacity:1" />
        <path
           d="m 105.83334,42.222719 5.44693,16.782843 h 17.62694 L 114.64668,69.378279 120.0936,86.161117 105.83334,75.788701 91.573096,86.161117 97.02001,69.378279 82.759477,59.005562 h 17.626943 z"
           fill="#bc0000"
           id="path11602"
           style="fill:#b61c1c;fill-opacity:1;stroke-width:1.05964" />
      </g>
      <g
         transform="matrix(3.4053493,-0.91351533,0.91246056,3.4092855,-1174.9373,-63.89084)"
         id="g1341"
         style="fill:#ffd609;fill-opacity:1;stroke:#c65d00;stroke-width:0.160437;stroke-linecap:round;stroke-linejoin:round;stroke-miterlimit:4;stroke-dasharray:none;stroke-opacity:1">
        <path
           inkscape:connector-curvature="0"
           id="path1329"
           transform="scale(0.26458333)"
           d="m 1254.6934,495.9375 c -4.5939,0.15678 -9.1484,1.38112 -13.1954,3.57031 -0.038,0.0192 -0.077,0.0353 -0.1152,0.0547 v 0.004 c 0,0.002 -0.01,0.002 -0.01,0.004 l 0.1875,0.33789 0.2773,0.53907 c 0.01,-0.003 0.011,-0.003 0.016,-0.006 0.013,-0.007 0.026,-0.0126 0.039,-0.0195 5.3666,-2.73882 11.6303,-3.71205 17.5743,-2.72656 7.559,1.25328 14.3062,5.49767 21.3183,8.98242 5.2466,2.60735 10.7065,4.78566 16.3027,6.52149 -0.072,0.97623 0.174,1.9712 0.7618,2.81055 1.0469,1.49517 2.9166,2.17554 4.6797,1.70312 l 15.6523,-4.19336 -15.6523,-4.19336 c -1.7631,-0.47241 -3.6328,0.20795 -4.6797,1.70313 -0.2581,0.36858 -0.4512,0.76771 -0.5821,1.18164 -5.5024,-1.71354 -10.869,-3.86035 -16.0312,-6.42578 -3.9999,-1.98782 -7.9676,-4.24966 -12.1016,-6.07032 3.5985,1.2378 7.2031,2.59869 10.9707,3.42774 1.5672,0.34485 3.1566,0.58785 4.7539,0.73828 0.094,0.66205 0.3394,1.30645 0.7403,1.87891 1.0469,1.49517 2.9166,2.17554 4.6797,1.70312 l 15.6523,-4.19336 -15.6523,-4.19336 c -1.7631,-0.47241 -3.6328,0.20795 -4.6797,1.70313 -0.4436,0.63344 -0.6882,1.3559 -0.7559,2.09179 -1.5201,-0.14964 -3.0315,-0.38264 -4.5234,-0.71093 -7.0144,-1.5435 -13.6519,-5.09934 -20.9942,-6.01563 -1.5372,-0.19184 -3.0881,-0.25981 -4.6347,-0.20703 z"
           style="color:#000000;font-style:normal;font-variant:normal;font-weight:normal;font-stretch:normal;font-size:medium;line-height:normal;font-family:sans-serif;font-variant-ligatures:normal;font-variant-position:normal;font-variant-caps:normal;font-variant-numeric:normal;font-variant-alternates:normal;font-feature-settings:normal;text-indent:0;text-align:start;text-decoration:none;text-decoration-line:none;text-decoration-style:solid;text-decoration-color:#000000;letter-spacing:normal;word-spacing:normal;text-transform:none;writing-mode:lr-tb;direction:ltr;text-orientation:mixed;dominant-baseline:auto;baseline-shift:baseline;text-anchor:start;white-space:normal;shape-padding:0;clip-rule:nonzero;display:inline;overflow:visible;visibility:visible;opacity:1;isolation:auto;mix-blend-mode:normal;color-interpolation:sRGB;color-interpolation-filters:linearRGB;solid-color:#000000;solid-opacity:1;vector-effect:none;fill:#ffd609;fill-opacity:1;fill-rule:nonzero;stroke:#c65d00;stroke-width:0.606377;stroke-linecap:round;stroke-linejoin:round;stroke-miterlimit:4;stroke-dasharray:none;stroke-dashoffset:0;stroke-opacity:1;color-rendering:auto;image-rendering:auto;shape-rendering:auto;text-rendering:auto;enable-background:accumulate" />
        <rect
           y="132.58414"
           x="327.90909"
           height="36.283474"
           width="1.2027165"
           id="rect1331"
           style="opacity:1;vector-effect:none;fill:#ffd609;fill-opacity:1;stroke:#c65d00;stroke-width:0.160437;stroke-linecap:round;stroke-linejoin:round;stroke-miterlimit:4;stroke-dasharray:none;stroke-dashoffset:0;stroke-opacity:1;paint-order:normal" />
        <ellipse
           ry="0.72665447"
           rx="1.4771098"
           cy="132.29294"
           cx="328.51044"
           style="opacity:1;vector-effect:none;fill:#ffd609;fill-opacity:1;stroke:#c65d00;stroke-width:0.160437;stroke-linecap:round;stroke-linejoin:round;stroke-miterlimit:4;stroke-dasharray:none;stroke-dashoffset:0;stroke-opacity:1;paint-order:normal"
           id="ellipse1333" />
        <ellipse
           ry="0.62757677"
           rx="1.2757093"
           cy="131.53479"
           cx="328.51044"
           id="ellipse1335"
           style="opacity:1;vector-effect:none;fill:#ffd609;fill-opacity:1;stroke:#c65d00;stroke-width:0.160437;stroke-linecap:round;stroke-linejoin:round;stroke-miterlimit:4;stroke-dasharray:none;stroke-dashoffset:0;stroke-opacity:1;paint-order:normal" />
        <ellipse
           ry="0.52849239"
           rx="1.0742949"
           cy="130.77666"
           cx="328.51044"
           id="ellipse1337"
           style="opacity:1;vector-effect:none;fill:#ffd609;fill-opacity:1;stroke:#c65d00;stroke-width:0.160437;stroke-linecap:round;stroke-linejoin:round;stroke-miterlimit:4;stroke-dasharray:none;stroke-dashoffset:0;stroke-opacity:1;paint-order:normal" />
        <path
           style="opacity:1;fill:#ffd609;fill-opacity:1;stroke:#c65d00;stroke-width:0.160437;stroke-linecap:round;stroke-linejoin:round;stroke-miterlimit:4;stroke-dasharray:none;stroke-opacity:1"
           d="m 328.51045,126.73144 -0.94404,3.50326 0.94404,0.54195 0.94403,-0.54195 z"
           id="path1339"
           inkscape:connector-curvature="0"
           sodipodi:nodetypes="ccccc" />
      </g>
      <path
         style="fill:#b61c1c;fill-opacity:1;stroke:#830515;stroke-width:0.565944;stroke-linecap:butt;stroke-linejoin:round;stroke-miterlimit:4;stroke-dasharray:none;stroke-opacity:1"
         d="m 186.8389,89.51162 c 8.51663,-4.343504 18.16162,-6.450551 27.71369,-6.05434 18.49963,0.767347 35.41606,10.56958 53.65273,13.771027 14.96782,2.627602 30.71295,0.642796 44.56041,-5.617214 1.7281,16.781587 4.40876,33.465027 8.02476,49.943267 2.37451,10.82073 5.19213,21.66035 10.27049,31.50599 2.9231,5.66713 6.57722,10.95667 10.8432,15.69611 -17.69701,6.27853 -37.36624,6.85985 -55.40315,1.63741 -13.68,-3.96093 -26.52114,-11.16864 -40.67617,-12.73918 -11.54823,-1.2813 -23.5006,1.416 -33.3793,7.53274"
         id="path19430"
         inkscape:connector-curvature="0"
         sodipodi:nodetypes="cssczzcssc"
         inkscape:original-d="m 186.8389,89.51162 c 16.19602,-2.906477 5.86964,-7.331303 27.71369,-6.05434 10.92203,0.638471 42.28197,13.129625 53.65273,13.771027 11.37075,0.641401 33.38311,-5.566263 44.56041,-5.617214 0,0 5.75498,36.163007 8.02476,49.943267 2.26976,13.78027 4.34911,18.79292 10.27049,31.50599 5.9214,12.71306 10.8432,15.69611 10.8432,15.69611 -11.17729,0.0509 -44.0324,2.27883 -55.40315,1.63741 -11.37076,-0.64141 -29.75415,-12.10068 -40.67617,-12.73918 -21.84406,-1.27696 -17.18329,4.62626 -33.3793,7.53274"
         inkscape:path-effect="#path-effect19456" />
      <g
         transform="matrix(3.4053493,-0.91351533,0.91246056,3.4092855,-1053.229,-63.89084)"
         id="g19452"
         style="fill:#ffd609;fill-opacity:1;stroke:#c65d00;stroke-width:0.160437;stroke-linecap:round;stroke-linejoin:round;stroke-miterlimit:4;stroke-dasharray:none;stroke-opacity:1">
        <path
           inkscape:connector-curvature="0"
           id="path19440"
           transform="scale(0.26458333)"
           d="m 1254.6934,495.9375 c -4.5939,0.15678 -9.1484,1.38112 -13.1954,3.57031 -0.038,0.0192 -0.077,0.0353 -0.1152,0.0547 v 0.004 c 0,0.002 -0.01,0.002 -0.01,0.004 l 0.1875,0.33789 0.2773,0.53907 c 0.01,-0.003 0.011,-0.003 0.016,-0.006 0.013,-0.007 0.026,-0.0126 0.039,-0.0195 5.3666,-2.73882 11.6303,-3.71205 17.5743,-2.72656 7.559,1.25328 14.3062,5.49767 21.3183,8.98242 5.2466,2.60735 10.7065,4.78566 16.3027,6.52149 -0.072,0.97623 0.174,1.9712 0.7618,2.81055 1.0469,1.49517 2.9166,2.17554 4.6797,1.70312 l 15.6523,-4.19336 -15.6523,-4.19336 c -1.7631,-0.47241 -3.6328,0.20795 -4.6797,1.70313 -0.2581,0.36858 -0.4512,0.76771 -0.5821,1.18164 -5.5024,-1.71354 -10.869,-3.86035 -16.0312,-6.42578 -3.9999,-1.98782 -7.9676,-4.24966 -12.1016,-6.07032 3.5985,1.2378 7.2031,2.59869 10.9707,3.42774 1.5672,0.34485 3.1566,0.58785 4.7539,0.73828 0.094,0.66205 0.3394,1.30645 0.7403,1.87891 1.0469,1.49517 2.9166,2.17554 4.6797,1.70312 l 15.6523,-4.19336 -15.6523,-4.19336 c -1.7631,-0.47241 -3.6328,0.20795 -4.6797,1.70313 -0.4436,0.63344 -0.6882,1.3559 -0.7559,2.09179 -1.5201,-0.14964 -3.0315,-0.38264 -4.5234,-0.71093 -7.0144,-1.5435 -13.6519,-5.09934 -20.9942,-6.01563 -1.5372,-0.19184 -3.0881,-0.25981 -4.6347,-0.20703 z"
           style="color:#000000;font-style:normal;font-variant:normal;font-weight:normal;font-stretch:normal;font-size:medium;line-height:normal;font-family:sans-serif;font-variant-ligatures:normal;font-variant-position:normal;font-variant-caps:normal;font-variant-numeric:normal;font-variant-alternates:normal;font-feature-settings:normal;text-indent:0;text-align:start;text-decoration:none;text-decoration-line:none;text-decoration-style:solid;text-decoration-color:#000000;letter-spacing:normal;word-spacing:normal;text-transform:none;writing-mode:lr-tb;direction:ltr;text-orientation:mixed;dominant-baseline:auto;baseline-shift:baseline;text-anchor:start;white-space:normal;shape-padding:0;clip-rule:nonzero;display:inline;overflow:visible;visibility:visible;opacity:1;isolation:auto;mix-blend-mode:normal;color-interpolation:sRGB;color-interpolation-filters:linearRGB;solid-color:#000000;solid-opacity:1;vector-effect:none;fill:#ffd609;fill-opacity:1;fill-rule:nonzero;stroke:#c65d00;stroke-width:0.606377;stroke-linecap:round;stroke-linejoin:round;stroke-miterlimit:4;stroke-dasharray:none;stroke-dashoffset:0;stroke-opacity:1;color-rendering:auto;image-rendering:auto;shape-rendering:auto;text-rendering:auto;enable-background:accumulate" />
        <rect
           y="132.58414"
           x="327.90909"
           height="36.283474"
           width="1.2027165"
           id="rect19442"
           style="opacity:1;vector-effect:none;fill:#ffd609;fill-opacity:1;stroke:#c65d00;stroke-width:0.160437;stroke-linecap:round;stroke-linejoin:round;stroke-miterlimit:4;stroke-dasharray:none;stroke-dashoffset:0;stroke-opacity:1;paint-order:normal" />
        <ellipse
           ry="0.72665447"
           rx="1.4771098"
           cy="132.29294"
           cx="328.51044"
           style="opacity:1;vector-effect:none;fill:#ffd609;fill-opacity:1;stroke:#c65d00;stroke-width:0.160437;stroke-linecap:round;stroke-linejoin:round;stroke-miterlimit:4;stroke-dasharray:none;stroke-dashoffset:0;stroke-opacity:1;paint-order:normal"
           id="ellipse19444" />
        <ellipse
           ry="0.62757677"
           rx="1.2757093"
           cy="131.53479"
           cx="328.51044"
           id="ellipse19446"
           style="opacity:1;vector-effect:none;fill:#ffd609;fill-opacity:1;stroke:#c65d00;stroke-width:0.160437;stroke-linecap:round;stroke-linejoin:round;stroke-miterlimit:4;stroke-dasharray:none;stroke-dashoffset:0;stroke-opacity:1;paint-order:normal" />
        <ellipse
           ry="0.52849239"
           rx="1.0742949"
           cy="130.77666"
           cx="328.51044"
           id="ellipse19448"
           style="opacity:1;vector-effect:none;fill:#ffd609;fill-opacity:1;stroke:#c65d00;stroke-width:0.160437;stroke-linecap:round;stroke-linejoin:round;stroke-miterlimit:4;stroke-dasharray:none;stroke-dashoffset:0;stroke-opacity:1;paint-order:normal" />
        <path
           style="opacity:1;fill:#ffd609;fill-opacity:1;stroke:#c65d00;stroke-width:0.160437;stroke-linecap:round;stroke-linejoin:round;stroke-miterlimit:4;stroke-dasharray:none;stroke-opacity:1"
           d="m 328.51045,126.73144 -0.94404,3.50326 0.94404,0.54195 0.94403,-0.54195 z"
           id="path19450"
           inkscape:connector-curvature="0"
           sodipodi:nodetypes="ccccc" />
      </g>
      <g
         style="fill:#f3d606;fill-opacity:1"
         transform="matrix(0.62898545,0,0,0.62898545,204.55041,-35.004348)"
         id="g857">
        <path
           id="rect1663"
           d="m 24.022354,205.12379 c 0,0 17.170261,13.33409 9.217144,27.63668 l -10.546242,-13.17202 5.592574,-5.24377 -8.297251,-0.70172 -8.127571,7.19801 3.884004,4.53231 3.145359,-2.73409 10.957924,13.3544 c 0,0 -3.448986,3.39322 -10.692138,0.82806 l -0.578737,-4.5104 -5.796116,4.47339 1.17995,1.32374 -6.3304443,13.62918 4.3763163,2.62436 6.1817,-12.36687 c 0,0 4.946516,4.64653 16.469151,0.60527 l 8.420886,9.32962 3.544252,-3.25276 -8.460248,-9.63322 c 0,0 4.936724,-7.05605 3.342529,-15.11212 -1.767269,-8.93934 -5.20998,-15.17936 -17.483094,-18.80803 z"
           style="opacity:1;fill:#f3d606;fill-opacity:1;fill-rule:evenodd;stroke:#000000;stroke-width:0;stroke-linecap:round;stroke-linejoin:round;stroke-miterlimit:4;stroke-dasharray:none;stroke-opacity:1" />
      </g>
    </g>
  </g>
  <style
     type="text/css"
     id="style10686">
	.st0{fill:#BC0000;}
</style>
  <style
     type="text/css"
     id="style19132">
	.st0{fill:#BC0000;}
</style>
  <style
     type="text/css"
     id="style19312">
	.st0{fill:#BC0000;}
</style>
</svg>
