<?xml version="1.0" encoding="UTF-8" standalone="no"?>
<svg
   xmlns:dc="http://purl.org/dc/elements/1.1/"
   xmlns:cc="http://creativecommons.org/ns#"
   xmlns:rdf="http://www.w3.org/1999/02/22-rdf-syntax-ns#"
   xmlns:svg="http://www.w3.org/2000/svg"
   xmlns="http://www.w3.org/2000/svg"
   xmlns:sodipodi="http://sodipodi.sourceforge.net/DTD/sodipodi-0.dtd"
   xmlns:inkscape="http://www.inkscape.org/namespaces/inkscape"
   xml:space="preserve"
   width="528.02759"
   height="600.00299"
   version="1.0"
   id="svg11723"
   sodipodi:docname="clnlmbgmhe.svg"
   inkscape:version="1.0.2 (e86c870879, 2021-01-15)"><metadata
     id="metadata11729"><rdf:RDF><cc:Work
         rdf:about=""><dc:format>image/svg+xml</dc:format><dc:type
           rdf:resource="http://purl.org/dc/dcmitype/StillImage" /><dc:title></dc:title></cc:Work></rdf:RDF></metadata><defs
     id="defs11727"><style
       id="style47">
      .cls-1, .cls-3 {
        fill: #be0000;
      }

      .cls-2 {
        fill: #f8c301;
      }

      .cls-3 {
        fill-rule: evenodd;
      }
    </style></defs><sodipodi:namedview
     pagecolor="#ffffff"
     bordercolor="#666666"
     borderopacity="1"
     objecttolerance="10"
     gridtolerance="10"
     guidetolerance="10"
     inkscape:pageopacity="0"
     inkscape:pageshadow="2"
     inkscape:window-width="1328"
     inkscape:window-height="688"
     id="namedview11725"
     showgrid="false"
     inkscape:zoom="0.62967896"
     inkscape:cx="192.19187"
     inkscape:cy="247.06917"
     inkscape:window-x="19"
     inkscape:window-y="13"
     inkscape:window-maximized="0"
     inkscape:current-layer="svg11723" /><g
     id="g12377"><path
       fill="#c00"
       fill-rule="evenodd"
       d="M3.60446 0h524.42311v354.27844h-.03898c-.92961 67.27939-30.38308 128.26447-77.43309 172.64561-47.82667 45.10082-113.82862 73.06395-186.53572 73.06695v.01198h-.01199v-.01198c-72.7071-.003-138.71205-27.96613-186.53572-73.06994C30.41607 482.53991.95959 421.55483.03598 354.27844H0V0h3.60446z"
       id="path11719"
       style="fill:#b61c1c;fill-opacity:1" /><g
       id="g11640"
       transform="matrix(2.2559684,0,0,2.2559684,-96.565987,-3.5037659)"><path
         d="m 105.83334,42.222719 5.44693,16.782843 h 17.62694 L 114.64668,69.378279 120.0936,86.161117 105.83334,75.788701 91.573096,86.161117 97.02001,69.378279 82.759477,59.005562 h 17.626943 z"
         fill="none"
         stroke="#fcd116"
         stroke-width="8.68902"
         id="path11600"
         style="fill:none;fill-opacity:1;stroke:#f3d606;stroke-opacity:1" /><path
         d="m 105.83334,42.222719 5.44693,16.782843 h 17.62694 L 114.64668,69.378279 120.0936,86.161117 105.83334,75.788701 91.573096,86.161117 97.02001,69.378279 82.759477,59.005562 h 17.626943 z"
         fill="#bc0000"
         id="path11602"
         style="fill:#b61c1c;fill-opacity:1;stroke-width:1.05964" /></g></g><style
     type="text/css"
     id="style10686">
	.st0{fill:#BC0000;}
</style></svg>
