<?xml version="1.0" encoding="UTF-8" standalone="no"?>
<!-- Created with Inkscape (http://www.inkscape.org/) -->

<svg
   width="302"
   height="38"
   viewBox="0 0 79.904166 10.054167"
   version="1.1"
   id="svg5"
   xmlns="http://www.w3.org/2000/svg"
   xmlns:svg="http://www.w3.org/2000/svg">
  <defs
     id="defs2" />
  <g
     id="layer1">
    <rect
       style="font-variation-settings:normal;fill:#d40000;fill-opacity:1;fill-rule:evenodd;stroke:#ffcc00;stroke-width:0.50279;stroke-linecap:butt;stroke-linejoin:miter;stroke-miterlimit:4;stroke-dasharray:none;stroke-dashoffset:0;stroke-opacity:1;stop-color:#000000"
       id="rect395"
       width="79.401382"
       height="9.5513763"
       x="0.2513926"
       y="0.25139523" />
    <g
       id="g1305">
      <path
         d="m 3.2704702,7.2323857 q -0.07716,0 -0.13099,-0.052 -0.05383,-0.0556 -0.05383,-0.13099 v -1.46961 q 0,-0.0754 0.05383,-0.13099 0.05383,-0.0538 0.13099,-0.0538 0.07536,0 0.129196,0.0538 0.05383,0.0556 0.05383,0.13099 v 0.91873 l 2.93921,-2.94101 q 0.152523,0 0.260187,0.10946 0.107663,0.10767 0.107663,0.25839 l -3.30706,3.30706 z"
         id="path165"
         style="font-weight:bold;font-size:38.1px;line-height:1.25;font-family:'Surat Ulu';-inkscape-font-specification:'Surat Ulu Bold';fill:#ffcc00;stroke-width:0.0255202" />
      <path
         d="m 5.5224292,3.1914257 q -0.152523,0 -0.260187,-0.10766 -0.107663,-0.10767 -0.107663,-0.26019 l 0.7357,-0.7357 q 0.152523,0 0.258392,0.10766 0.107663,0.10766 0.107663,0.26019 z m -0.7357,-0.36785 q -0.152523,0 -0.258392,-0.10767 -0.109458,-0.10766 -0.109458,-0.26018 l 0.7357,-0.7357 q 0.152523,0 0.260187,0.10946 0.107663,0.10766 0.107663,0.25839 z"
         id="path167"
         style="font-weight:bold;font-size:38.1px;line-height:1.25;font-family:'Surat Ulu';-inkscape-font-specification:'Surat Ulu Bold';fill:#ffcc00;stroke-width:0.0255202" />
      <path
         d="m 9.9188832,6.1306357 0.7356998,-0.7357 v -1.10176 l -0.7356998,0.7357 z m -2.205305,1.10175 q -0.152523,0 -0.258392,-0.10766 -0.107663,-0.10766 -0.107663,-0.25839 l 3.3070598,-3.30886 h 0.183028 q 0.07536,0 0.13099,0.0538 0.05383,0.0556 0.05383,0.13099 v 1.28657 l 1.469605,-1.4714 h 0.183028 q 0.07536,0 0.13099,0.0538 0.05383,0.0556 0.05383,0.13099 v 1.83745 q 0,0.0754 -0.05383,0.1292 -0.05563,0.0538 -0.13099,0.0538 -0.07536,0 -0.129197,-0.0538 -0.05383,-0.0538 -0.05383,-0.1292 v -1.28658 l -2.5731548,2.57316 h -0.183027 q -0.07716,0 -0.130991,-0.0538 -0.05383,-0.0538 -0.05383,-0.13099 v -1.28658 z"
         id="path169"
         style="font-weight:bold;font-size:38.1px;line-height:1.25;font-family:'Surat Ulu';-inkscape-font-specification:'Surat Ulu Bold';fill:#ffcc00;stroke-width:0.0255202" />
      <path
         d="m 10.012192,3.5574757 q -0.1525228,0 -0.2601858,-0.10766 -0.107664,-0.10766 -0.107664,-0.25839 l 0.7356998,-0.7357 q 0.152523,0 0.258392,0.10766 0.107663,0.10766 0.107663,0.26019 z"
         id="path171"
         style="font-weight:bold;font-size:38.1px;line-height:1.25;font-family:'Surat Ulu';-inkscape-font-specification:'Surat Ulu Bold';fill:#ffcc00;stroke-width:0.0255202" />
      <path
         d="m 14.561767,7.2323857 q -0.152522,0 -0.258391,-0.10766 -0.107664,-0.10766 -0.107664,-0.25839 l 3.30706,-3.30886 H 17.6858 q 0.07536,0 0.13099,0.0538 0.05383,0.0556 0.05383,0.13099 v 1.28657 l 1.101755,-1.10355 q 0.152523,0 0.260187,0.10767 0.107663,0.10766 0.107663,0.26018 l -1.469605,1.46961 H 17.6858 q -0.07536,0 -0.129196,-0.0538 -0.05383,-0.0538 -0.05383,-0.1292 v -1.28658 l -0.7357,0.7357 v 1.65264 q 0,0.0772 -0.05383,0.13099 -0.05383,0.0538 -0.129197,0.0538 -0.07716,0 -0.13099,-0.0538 -0.05383,-0.0538 -0.05383,-0.13099 v -1.28658 z"
         id="path173"
         style="font-weight:bold;font-size:38.1px;line-height:1.25;font-family:'Surat Ulu';-inkscape-font-specification:'Surat Ulu Bold';fill:#ffcc00;stroke-width:0.0255202" />
      <path
         d="m 14.563561,8.3341457 q -0.152522,0 -0.260185,-0.10766 -0.107664,-0.10767 -0.107664,-0.26019 l 0.735699,-0.73391 q 0.152523,0 0.260186,0.10767 0.107664,0.10766 0.107664,0.25839 z"
         id="path175"
         style="font-weight:bold;font-size:38.1px;line-height:1.25;font-family:'Surat Ulu';-inkscape-font-specification:'Surat Ulu Bold';fill:#ffcc00;stroke-width:0.0255202" />
      <path
         d="m 20.818606,7.2323857 q -0.07537,0 -0.130993,-0.052 -0.05203,-0.0556 -0.05203,-0.13099 v -1.46961 q 0,-0.0754 0.05203,-0.13099 0.05563,-0.0538 0.130993,-0.0538 0.07536,0 0.129196,0.0538 0.05383,0.0556 0.05383,0.13099 v 0.91873 l 1.103548,-1.10355 v -1.28478 q 0,-0.0772 0.05383,-0.13099 0.05383,-0.0538 0.129196,-0.0538 0.07536,0 0.13099,0.0538 0.05383,0.0538 0.05383,0.13099 v 0.91872 l 1.469605,-1.4714 q 0.152524,0 0.258392,0.10946 0.109458,0.10767 0.109458,0.25839 l -1.837455,1.83746 v 0.7357 l 0.733904,-0.7357 q 0.152524,0 0.260186,0.10766 0.107664,0.10767 0.107664,0.26019 l -1.101754,1.10175 H 22.28821 q -0.07536,0 -0.129196,-0.052 -0.05383,-0.0556 -0.05383,-0.13099 v -0.91873 l -1.103548,1.10175 z"
         id="path177"
         style="font-weight:bold;font-size:38.1px;line-height:1.25;font-family:'Surat Ulu';-inkscape-font-specification:'Surat Ulu Bold';fill:#ffcc00;stroke-width:0.0255202" />
      <path
         d="m 20.911914,8.3341457 q -0.152524,0 -0.260189,-0.10766 -0.107661,-0.10767 -0.107661,-0.26019 l 0.735697,-0.73391 q 0.152525,0 0.260189,0.10767 0.107662,0.10766 0.107662,0.25839 z"
         id="path179"
         style="font-weight:bold;font-size:38.1px;line-height:1.25;font-family:'Surat Ulu';-inkscape-font-specification:'Surat Ulu Bold';fill:#ffcc00;stroke-width:0.0255202" />
      <path
         d="m 23.942637,3.0065957 q -0.07536,0 -0.129196,-0.0538 -0.05383,-0.0538 -0.05383,-0.1292 v -0.91873 q 0,-0.0754 0.05383,-0.13099 0.05383,-0.0538 0.129196,-0.0538 0.07537,0 0.130992,0.0538 0.05204,0.0556 0.05204,0.13099 v 0.55088 l 0.7357,-0.7357 q 0.07536,0 0.13099,0.0538 0.05204,0.0556 0.05204,0.13099 0,0.0754 -0.05204,0.1292 -0.05563,0.0538 -0.13099,0.0538 l -0.7357,0.7357 q 0,0.0754 -0.05204,0.1292 -0.05563,0.0538 -0.130992,0.0538 z"
         id="path181"
         style="font-weight:bold;font-size:38.1px;line-height:1.25;font-family:'Surat Ulu';-inkscape-font-specification:'Surat Ulu Bold';fill:#ffcc00;stroke-width:0.0255202" />
      <path
         d="m 28.345271,6.1306357 0.735701,-0.7357 v -1.10176 l -0.735701,0.7357 z m -2.205304,1.10175 q -0.152522,0 -0.258392,-0.10766 -0.107662,-0.10766 -0.107662,-0.25839 l 3.307059,-3.30886 H 29.264 q 0.07536,0 0.13099,0.0538 0.05383,0.0556 0.05383,0.13099 v 1.28657 l 1.469604,-1.4714 q 0.152525,0 0.258392,0.10946 0.109459,0.10767 0.109459,0.25839 l -2.941006,2.94101 h -0.183025 q -0.07716,0 -0.130993,-0.0538 -0.05383,-0.0538 -0.05383,-0.13099 v -1.28658 z"
         id="path183"
         style="font-weight:bold;font-size:38.1px;line-height:1.25;font-family:'Surat Ulu';-inkscape-font-specification:'Surat Ulu Bold';fill:#ffcc00;stroke-width:0.0255202" />
      <path
         d="m 26.739293,3.9253257 v -1.10175 h 0.550878 v 1.10175 z"
         id="path185"
         style="font-weight:bold;font-size:38.1px;line-height:1.25;font-family:'Surat Ulu';-inkscape-font-specification:'Surat Ulu Bold';fill:#ffcc00;stroke-width:0.0255202" />
      <path
         d="m 32.943298,7.2323857 q -0.07716,0 -0.130992,-0.052 -0.05383,-0.0556 -0.05383,-0.13099 v -1.46961 q 0,-0.0754 0.05383,-0.13099 0.05383,-0.0538 0.130992,-0.0538 0.07536,0 0.129194,0.0538 0.05383,0.0556 0.05383,0.13099 v 0.91873 l 2.939211,-2.94101 q 0.152525,0 0.260186,0.10946 0.107664,0.10767 0.107664,0.25839 l -3.307061,3.30706 z"
         id="path187"
         style="font-weight:bold;font-size:38.1px;line-height:1.25;font-family:'Surat Ulu';-inkscape-font-specification:'Surat Ulu Bold';fill:#ffcc00;stroke-width:0.0255202" />
      <path
         d="m 32.989952,8.3341457 q -0.152524,0 -0.260188,-0.10766 -0.107662,-0.10767 -0.107662,-0.26019 l 0.735698,-0.73391 q 0.152524,0 0.260189,0.10767 0.107664,0.10766 0.107664,0.25839 z m 0.367848,-4.40882 v -1.10175 h 0.550878 v 1.10175 z"
         id="path189"
         style="font-weight:bold;font-size:38.1px;line-height:1.25;font-family:'Surat Ulu';-inkscape-font-specification:'Surat Ulu Bold';fill:#ffcc00;stroke-width:0.0255202" />
      <path
         d="m 37.386401,7.2323857 q -0.152521,0 -0.258389,-0.10766 -0.107664,-0.10766 -0.107664,-0.25839 l 3.307058,-3.30886 h 0.183029 q 0.07536,0 0.130992,0.0538 0.05383,0.0556 0.05383,0.13099 v 2.02048 l 2.20351,-2.20531 q 0.152525,0 0.260186,0.10946 0.107665,0.10767 0.107665,0.25839 l -2.571361,2.57316 h -0.184822 q -0.07536,0 -0.129196,-0.0538 -0.05383,-0.0538 -0.05383,-0.13099 v -2.02049 z"
         id="path191"
         style="font-weight:bold;font-size:38.1px;line-height:1.25;font-family:'Surat Ulu';-inkscape-font-specification:'Surat Ulu Bold';fill:#ffcc00;stroke-width:0.0255202" />
      <path
         d="m 37.800906,8.3341457 q -0.152522,0 -0.260186,-0.10766 -0.107665,-0.10767 -0.107665,-0.26019 l 0.735701,-0.73391 q 0.152524,0 0.260186,0.10767 0.107664,0.10766 0.107664,0.25839 z"
         id="path193"
         style="font-weight:bold;font-size:38.1px;line-height:1.25;font-family:'Surat Ulu';-inkscape-font-specification:'Surat Ulu Bold';fill:#ffcc00;stroke-width:0.0255202" />
      <path
         d="m 44.749382,7.2323857 q -0.152521,0 -0.258392,-0.10766 -0.107661,-0.10766 -0.107661,-0.25839 l 3.307058,-3.30886 h 0.183029 q 0.07536,0 0.13099,0.0538 0.05383,0.0556 0.05383,0.13099 v 0.91872 l 0.733906,-0.7357 h 0.184822 q 0.07536,0 0.129196,0.0538 0.05383,0.0538 0.05383,0.13099 v 2.75618 h -0.36785 v -2.20531 l -0.733906,0.73391 v 1.4714 h -0.367851 v -1.10355 l -1.103548,1.10355 q -0.152524,0 -0.258394,-0.10767 -0.107662,-0.10766 -0.107662,-0.26018 l 1.469604,-1.46961 v -0.7357 z"
         id="path195"
         style="font-weight:bold;font-size:38.1px;line-height:1.25;font-family:'Surat Ulu';-inkscape-font-specification:'Surat Ulu Bold';fill:#ffcc00;stroke-width:0.0255202" />
      <path
         d="m 44.842693,3.9253257 v -0.36785 l 0.918726,-0.91872 0.183028,0.18482 v 1.10175 h -0.366056 v -0.7339 z"
         id="path197"
         style="font-weight:bold;font-size:38.1px;line-height:1.25;font-family:'Surat Ulu';-inkscape-font-specification:'Surat Ulu Bold';fill:#ffcc00;stroke-width:0.0255202" />
      <path
         d="m 53.532721,6.1306357 0.7357,-0.7357 v -1.10176 l -0.7357,0.7357 z m -2.205305,1.10175 q -0.152522,0 -0.258392,-0.10766 -0.107664,-0.10766 -0.107664,-0.25839 l 3.307061,-3.30886 h 0.183028 q 0.07536,0 0.13099,0.0538 0.05383,0.0556 0.05383,0.13099 v 1.28657 l 1.469605,-1.4714 q 0.152524,0 0.258392,0.10946 0.109458,0.10767 0.109458,0.25839 l -2.941005,2.94101 h -0.183028 q -0.07716,0 -0.13099,-0.0538 -0.05383,-0.0538 -0.05383,-0.13099 v -1.28658 z"
         id="path199"
         style="font-weight:bold;font-size:38.1px;line-height:1.25;font-family:'Surat Ulu';-inkscape-font-specification:'Surat Ulu Bold';fill:#ffcc00;stroke-width:0.0255202" />
      <path
         d="m 56.92691,7.2323857 q -0.152525,0 -0.260186,-0.10766 -0.107665,-0.10766 -0.107665,-0.25839 l 3.307062,-3.30886 h 0.184822 q 0.07536,0 0.129196,0.0538 0.05383,0.0556 0.05383,0.13099 v 1.83745 q 0,0.0754 -0.05383,0.1292 -0.05383,0.0538 -0.129196,0.0538 -0.07716,0 -0.130993,-0.0538 -0.05383,-0.0538 -0.05383,-0.1292 v -1.28658 l -0.733907,0.7357 v 1.65264 q 0,0.0772 -0.05383,0.13099 -0.05383,0.0538 -0.13099,0.0538 -0.07536,0 -0.129196,-0.0538 -0.05383,-0.0538 -0.05383,-0.13099 v -1.28658 z"
         id="path201"
         style="font-weight:bold;font-size:38.1px;line-height:1.25;font-family:'Surat Ulu';-inkscape-font-specification:'Surat Ulu Bold';fill:#ffcc00;stroke-width:0.0255202" />
      <path
         d="m 62.254451,5.9476057 0.36785,-0.18482 0.184822,-0.36785 v -0.36606 l -0.184822,-0.36785 -0.36785,-0.18482 h -0.366054 l -0.366056,0.18482 -0.184822,0.36785 v 0.36606 l 0.184822,0.36785 0.366056,0.18482 z m -0.366054,0.55088 -0.366056,-0.18482 -0.184822,-0.18303 -0.36785,-0.7357 v -0.36606 l 0.36785,-0.7357 0.184822,-0.18302 0.366056,-0.18483 h 0.366054 l 0.36785,0.18483 0.184822,0.18302 0.366057,0.7357 v 0.36606 l -0.366057,0.7357 -0.184822,0.18303 -0.36785,0.18482 z"
         id="path203"
         style="font-weight:bold;font-size:38.1px;line-height:1.25;font-family:'Surat Ulu';-inkscape-font-specification:'Surat Ulu Bold';fill:#ffcc00;stroke-width:0.0255202" />
      <path
         d="m 64.734301,7.2323857 v -2.02048 q 0,-0.0754 0.05383,-0.12919 0.05383,-0.0538 0.13099,-0.0538 0.07536,0 0.129196,0.0538 0.05383,0.0538 0.05383,0.12919 v 1.28658 l 2.941005,-2.94101 h 0.183028 q 0.07536,0 0.129193,0.0538 0.05384,0.0556 0.05384,0.13099 v 1.65263 l 1.837455,-1.83746 h 0.184822 q 0.07536,0 0.129196,0.0538 0.05383,0.0556 0.05383,0.13099 v 0.18302 l -2.205305,2.20531 h -0.183028 q -0.07537,0 -0.130993,-0.0538 -0.05204,-0.0538 -0.05204,-0.1292 v -1.65443 l -2.941005,2.93921 z"
         id="path205"
         style="font-weight:bold;font-size:38.1px;line-height:1.25;font-family:'Surat Ulu';-inkscape-font-specification:'Surat Ulu Bold';fill:#ffcc00;stroke-width:0.0255202" />
      <path
         d="m 72.869069,6.1306357 0.735697,-0.7357 v -1.10176 l -0.735697,0.7357 z m -2.205305,1.10175 q -0.152525,0 -0.258395,-0.10766 -0.107662,-0.10766 -0.107662,-0.25839 l 3.307059,-3.30886 h 0.183028 q 0.07536,0 0.13099,0.0538 0.05383,0.0556 0.05383,0.13099 v 2.02048 l -1.103547,1.10355 H 72.68604 q -0.07716,0 -0.130992,-0.0538 -0.05383,-0.0538 -0.05383,-0.13099 v -1.28658 z"
         id="path207"
         style="font-weight:bold;font-size:38.1px;line-height:1.25;font-family:'Surat Ulu';-inkscape-font-specification:'Surat Ulu Bold';fill:#ffcc00;stroke-width:0.0255202" />
      <path
         d="m 75.89979,5.9476057 0.36785,-0.18482 0.18482,-0.36785 v -0.36606 l -0.18482,-0.36785 -0.36785,-0.18482 h -0.36606 l -0.36605,0.18482 -0.18482,0.36785 v 0.36606 l 0.18482,0.36785 0.36605,0.18482 z m -0.36606,0.55088 -0.36605,-0.18482 -0.18482,-0.18303 -0.36785,-0.7357 v -0.36606 l 0.36785,-0.7357 0.18482,-0.18302 0.36605,-0.18483 h 0.36606 l 0.36785,0.18483 0.18482,0.18302 0.36606,0.7357 v 0.36606 l -0.36606,0.7357 -0.18482,0.18303 -0.36785,0.18482 z"
         id="path209"
         style="font-weight:bold;font-size:38.1px;line-height:1.25;font-family:'Surat Ulu';-inkscape-font-specification:'Surat Ulu Bold';fill:#ffcc00;stroke-width:0.0255202" />
    </g>
  </g>
</svg>
