<?xml version="1.0" encoding="UTF-8" standalone="no"?>
<svg
   id="svg"
   version="1.1"
   width="300"
   height="200"
   viewBox="0 0 300 200.00001"
   xml:space="preserve"
   xmlns="http://www.w3.org/2000/svg"
   xmlns:svg="http://www.w3.org/2000/svg"><defs
     id="defs4843" /><path
     style="fill:#d40000;stroke-width:0.75"
     d="M 0,99.999625 V 200.00012 H 150 300 V 99.999625 -1.25e-4 H 150 0 v 99.99975"
     id="path1" /><path
     id="path4853"
     style="fill:#ffcc00;stroke-width:0.75"
     d="m 168.83607,69.332875 c -4.28025,0.372 -11.4945,1.50825 -13.94775,2.19675 -1.24425,0.34875 -1.30575,0.4575 -0.94425,1.67175 0.11475,0.384 0.2835,1.05825 0.375,1.4985 0.0922,0.44025 0.36975,1.52025 0.6165,2.4 0.2475,0.87975 0.79125,2.90475 1.20825,4.5 3.48525,13.3305 3.95475,15.144 6.4635,24.999755 0.71475,2.805 1.497,5.81999 1.74,6.7005 0.24225,0.87975 0.486,1.82475 0.54075,2.1 0.0548,0.2745 0.411,1.5795 0.792,2.8995 0.381,1.32 0.78975,2.76 0.909,3.20025 0.50475,1.8675 2.55225,7.59075 2.8065,7.84499 0.29325,0.29401 1.54875,-1.0935 6.74025,-7.44674 1.155,-1.41375 2.73,-3.306 3.50025,-4.206 0.77025,-0.89925 1.9485,-2.301 2.619,-3.114 0.66975,-0.81301 1.977,-2.37825 2.904,-3.4785 0.92625,-1.09951 1.908,-2.2815 2.181,-2.625 1.8705,-2.35725 11.352,-13.563005 12.924,-15.273755 0.45525,-0.49575 1.08075,-1.21575 1.389,-1.60125 0.309,-0.38475 1.06125,-1.2405 1.6725,-1.902 0.6105,-0.66075 2.14575,-2.32575 3.41025,-3.699 2.29425,-2.49 3.54525,-3.801 8.68275,-9.099 1.494,-1.53975 2.68875,-2.8815 2.6565,-2.9805 -0.0773,-0.2355 -1.40025,-0.62175 -3.09375,-0.9045 -0.7395,-0.123 -1.7505,-0.309 -2.2455,-0.41325 -0.495,-0.10425 -1.71,-0.33225 -2.7,-0.507 -0.99,-0.174 -2.25,-0.4005 -2.79975,-0.5025 -2.841,-0.52875 -9.57,-1.37025 -15.9,-1.98825 -6.732,-0.657 -16.6755,-0.77625 -22.5,-0.27075 m -21.351,-20.08275 c 0.17325,0.21825 0.75075,2.28225 2.2245,7.95 0.49575,1.90425 0.6165,2.2005 0.89775,2.196 0.126,-0.0022 0.94875,-0.13575 1.8285,-0.29625 10.7445,-1.95975 23.6385,-2.6445 34.3005,-1.821 12.97875,1.002 25.1595,3.2685 36.6615,6.82125 1.959,0.6045 3.6345,1.0995 3.7245,1.0995 0.17625,0 0.3585,-0.16275 3.97575,-3.55875 1.32375,-1.242 2.6385,-2.44125 2.922,-2.66475 0.73425,-0.5775 0.648,-0.9585 -0.46275,-2.0355 -1.4955,-1.45125 -1.55925,-3.165 -0.1695,-4.536 1.56825,-1.54575 2.613,-1.6245 5.64825,-0.42525 8.78175,3.471 11.6625,4.59675 12.08925,4.725 2.43375,0.73275 3.1875,2.7255 1.91325,5.0595 -1.374,2.5155 -2.2215,2.68725 -6.10275,1.23675 -3.651,-1.365 -2.92575,-1.65525 -7.3095,2.92875 -2.08425,2.1795 -4.5495,4.77525 -5.478,5.76675 -0.9285,0.99225 -2.331,2.47875 -3.11625,3.30375 -0.78525,0.825 -1.90725,2.04 -2.49225,2.7 -0.58575,0.66 -1.659,1.836 -2.38425,2.61375 -2.3805,2.55 -9.93225,11.08275 -13.7355,15.51975 -2.2605,2.63625 -7.7445,9.428255 -10.389,12.866245 -1.60575,2.088 -1.57275,2.04601 -2.1225,2.70001 -0.231,0.27525 -0.6225,0.81525 -0.87,1.2 -0.24825,0.38549 -0.642,0.8715 -0.87675,1.0815 -0.234,0.20925 -0.426,0.45525 -0.426,0.54675 0,0.0915 -0.7005,1.0905 -1.55775,2.21925 -0.8565,1.12875 -2.67225,3.62775 -4.035,5.553 -1.36275,1.9245 -2.79975,3.9495 -3.1935,4.5 -0.97125,1.35525 -3.31275,4.80524 -4.41375,6.50174 -3.063,4.7205 -6.1995,9.73051 -6.1995,9.903 0,0.15 -1.7895,2.71425 -2.4945,3.5745 -3.56625,4.35225 -10.64775,7.476 -21.306,9.3975 -17.4135,3.13875 -35.78475,0.73125 -45.93525,-6.02099 -1.43025,-0.95175 -1.42575,-1.10401 0.0442,-1.377 14.34225,-2.66025 25.04475,-8.43525 29.391,-15.86026 0.57,-0.9735 0.636,-1.02074 1.3005,-0.93 2.124,0.28801 2.8215,0.31201 4.02225,0.1395 5.0325,-0.72375 6.43575,-3.56925 4.056,-8.22599 -1.803,-3.52801 -0.9735,-5.66775 2.40375,-6.20025 2.83725,-0.44775 5.118,-1.158 5.118,-1.59526 0,-0.23324 -1.371,-5.61225 -2.60175,-10.20675 -0.42675,-1.59524 -1.3605,-5.19525 -2.0745,-8.000245 -0.714,-2.805 -1.48875,-5.82 -1.72125,-6.69975 -0.2325,-0.87975 -0.864,-3.30975 -1.4025,-5.4 -3.30225,-12.804 -2.6265,-11.322 -4.83225,-10.596 -2.0505,0.67425 -7.122,2.45175 -7.668,2.68725 -0.21975,0.09525 -1.92975,0.77625 -3.80025,1.51425 -4.98675,1.96725 -13.8015,6.039 -17.2995,7.99125 -0.825,0.4605 -2.355,1.29225 -3.4005,1.848 -1.722,0.91575 -5.12325,2.904 -7.9995,4.677 -0.91875,0.5655 -4.863001,3.192 -7.772251,5.17425 -2.8845,1.966495 -14.742,10.815745 -18.32775,13.678495 -2.367,1.89 -4.60875,3.645 -5.01525,3.9255 -0.40125,0.2775 -3.05025,2.38801 -3.993,3.18075 -0.22425,0.189 -0.85575,0.69826 -1.404,1.131 -0.5475,0.4335 -1.953,1.57575 -3.12225,2.538 -2.50575,2.06175 -2.2695,2.0145 -3.687,0.73125 -1.41825,-1.28475 -3.471,-1.05299 -6.25575,0.70426 -3.03825,1.91774 -1.3785,5.29499 2.61075,5.31149 1.6785,0.008 1.75425,0.3765 0.216,1.05975 -5.38275,2.391 -10.06575,0.10875 -8.83875,-4.30799 0.636,-2.29125 3.33825,-4.10775 7.93875,-5.337 1.11825,-0.2985 1.077,-0.516 -0.3495,-1.863 -1.6245,-1.533 -1.78125,-1.242 3.4605,-6.43275 10.5795,-10.4775 12.31125,-12.018 16.839,-14.975255 3.531,-2.30625 8.8515,-6.20625 11.90775,-8.727 0.609,-0.5025 1.419,-1.15725 1.8,-1.45425 0.381,-0.29775 1.45725,-1.1385 2.3925,-1.869 8.358,-6.5295 23.914501,-14.91975 36.200251,-19.52475 4.42875,-1.65975 9.363,-3.35475 11.59575,-3.9825 1.15275,-0.324 2.208,-0.70125 2.3445,-0.83775 0.2205,-0.2205 -1.1535,-6.22275 -2.11725,-9.24525 -0.77925,-2.445 -0.81675,-2.40825 2.89725,-2.8065 1.63875,-0.1755 3.51975,-0.3915 4.17975,-0.48 0.66,-0.0885 1.30125,-0.1725 1.425,-0.1875 0.1245,-0.01425 0.315,0.08625 0.42375,0.22425" /></svg>
