<?xml version="1.0" encoding="UTF-8" standalone="no"?>
<svg
   width="300.00009"
   height="200"
   viewBox="0 0 79.375023 52.916668"
   version="1.1"
   id="svg8"
   xml:space="preserve"
   xmlns="http://www.w3.org/2000/svg"
   xmlns:svg="http://www.w3.org/2000/svg"
   xmlns:rdf="http://www.w3.org/1999/02/22-rdf-syntax-ns#"
   xmlns:cc="http://creativecommons.org/ns#"
   xmlns:dc="http://purl.org/dc/elements/1.1/"><defs
     id="defs2"><style
   type="text/css"
   id="style10">.fil1{fill:none}</style><style
   id="style12">.cls-1, .cls-3 {
        fill: #be0000;
      }

      .cls-2 {
        fill: #f8c301;
      }

      .cls-3 {
        fill-rule: evenodd;
      }</style><style
   id="style14">.cls-1, .cls-3 {
        fill: #be0000;
      }

      .cls-2 {
        fill: #f8c301;
      }

      .cls-3 {
        fill-rule: evenodd;
      }</style><style
   id="style16">.cls-1, .cls-3 {
        fill: #be0000;
      }

      .cls-2 {
        fill: #f8c301;
      }

      .cls-3 {
        fill-rule: evenodd;
      }</style><style
   type="text/css"
   id="style18">.fil1{fill:none}</style><style
   id="style20">.cls-1, .cls-3 {
        fill: #be0000;
      }

      .cls-2 {
        fill: #f8c301;
      }

      .cls-3 {
        fill-rule: evenodd;
      }</style><style
   id="style22">.cls-1, .cls-3 {
        fill: #be0000;
      }

      .cls-2 {
        fill: #f8c301;
      }

      .cls-3 {
        fill-rule: evenodd;
      }</style><style
   id="style24">.cls-1, .cls-3 {
        fill: #be0000;
      }

      .cls-2 {
        fill: #f8c301;
      }

      .cls-3 {
        fill-rule: evenodd;
      }</style><style
   id="style26">.cls-1, .cls-3 {
        fill: #be0000;
      }

      .cls-2 {
        fill: #f8c301;
      }

      .cls-3 {
        fill-rule: evenodd;
      }</style><style
   type="text/css"
   id="style28">.fil1{fill:none}</style><style
   id="style30">.cls-1, .cls-3 {
        fill: #be0000;
      }

      .cls-2 {
        fill: #f8c301;
      }

      .cls-3 {
        fill-rule: evenodd;
      }</style><style
   id="style32">.cls-1, .cls-3 {
        fill: #be0000;
      }

      .cls-2 {
        fill: #f8c301;
      }

      .cls-3 {
        fill-rule: evenodd;
      }</style><style
   id="style34">.cls-1, .cls-3 {
        fill: #be0000;
      }

      .cls-2 {
        fill: #f8c301;
      }

      .cls-3 {
        fill-rule: evenodd;
      }</style><style
   type="text/css"
   id="style36">.fil1{fill:none}</style><style
   id="style38">.cls-1, .cls-3 {
        fill: #be0000;
      }

      .cls-2 {
        fill: #f8c301;
      }

      .cls-3 {
        fill-rule: evenodd;
      }</style><style
   id="style40">.cls-1, .cls-3 {
        fill: #be0000;
      }

      .cls-2 {
        fill: #f8c301;
      }

      .cls-3 {
        fill-rule: evenodd;
      }</style><style
   id="style42">.cls-1, .cls-3 {
        fill: #be0000;
      }

      .cls-2 {
        fill: #f8c301;
      }

      .cls-3 {
        fill-rule: evenodd;
      }</style><style
   id="style6868">.cls-1, .cls-3 {
        fill: #be0000;
      }

      .cls-2 {
        fill: #f8c301;
      }

      .cls-3 {
        fill-rule: evenodd;
      }</style><style
   id="style6870">.cls-1, .cls-3 {
        fill: #be0000;
      }

      .cls-2 {
        fill: #f8c301;
      }

      .cls-3 {
        fill-rule: evenodd;
      }</style><style
   type="text/css"
   id="style10-7">.fil1{fill:none}</style><style
   id="style12-5">.cls-1, .cls-3 {
        fill: #be0000;
      }

      .cls-2 {
        fill: #f8c301;
      }

      .cls-3 {
        fill-rule: evenodd;
      }</style><style
   id="style14-3">.cls-1, .cls-3 {
        fill: #be0000;
      }

      .cls-2 {
        fill: #f8c301;
      }

      .cls-3 {
        fill-rule: evenodd;
      }</style><style
   id="style16-5">.cls-1, .cls-3 {
        fill: #be0000;
      }

      .cls-2 {
        fill: #f8c301;
      }

      .cls-3 {
        fill-rule: evenodd;
      }</style><style
   type="text/css"
   id="style18-6">.fil1{fill:none}</style><style
   id="style20-2">.cls-1, .cls-3 {
        fill: #be0000;
      }

      .cls-2 {
        fill: #f8c301;
      }

      .cls-3 {
        fill-rule: evenodd;
      }</style><style
   id="style22-9">.cls-1, .cls-3 {
        fill: #be0000;
      }

      .cls-2 {
        fill: #f8c301;
      }

      .cls-3 {
        fill-rule: evenodd;
      }</style><style
   id="style24-1">.cls-1, .cls-3 {
        fill: #be0000;
      }

      .cls-2 {
        fill: #f8c301;
      }

      .cls-3 {
        fill-rule: evenodd;
      }</style><style
   id="style26-2">.cls-1, .cls-3 {
        fill: #be0000;
      }

      .cls-2 {
        fill: #f8c301;
      }

      .cls-3 {
        fill-rule: evenodd;
      }</style><style
   type="text/css"
   id="style28-7">.fil1{fill:none}</style><style
   id="style30-0">.cls-1, .cls-3 {
        fill: #be0000;
      }

      .cls-2 {
        fill: #f8c301;
      }

      .cls-3 {
        fill-rule: evenodd;
      }</style><style
   id="style32-9">.cls-1, .cls-3 {
        fill: #be0000;
      }

      .cls-2 {
        fill: #f8c301;
      }

      .cls-3 {
        fill-rule: evenodd;
      }</style><style
   id="style34-3">.cls-1, .cls-3 {
        fill: #be0000;
      }

      .cls-2 {
        fill: #f8c301;
      }

      .cls-3 {
        fill-rule: evenodd;
      }</style><style
   type="text/css"
   id="style36-6">.fil1{fill:none}</style><style
   id="style38-0">.cls-1, .cls-3 {
        fill: #be0000;
      }

      .cls-2 {
        fill: #f8c301;
      }

      .cls-3 {
        fill-rule: evenodd;
      }</style><style
   id="style40-6">.cls-1, .cls-3 {
        fill: #be0000;
      }

      .cls-2 {
        fill: #f8c301;
      }

      .cls-3 {
        fill-rule: evenodd;
      }</style><style
   id="style42-2">.cls-1, .cls-3 {
        fill: #be0000;
      }

      .cls-2 {
        fill: #f8c301;
      }

      .cls-3 {
        fill-rule: evenodd;
      }</style><style
   type="text/css"
   id="style10-5">.fil1{fill:none}</style><style
   id="style12-0">.cls-1, .cls-3 {
        fill: #be0000;
      }

      .cls-2 {
        fill: #f8c301;
      }

      .cls-3 {
        fill-rule: evenodd;
      }</style><style
   id="style14-36">.cls-1, .cls-3 {
        fill: #be0000;
      }

      .cls-2 {
        fill: #f8c301;
      }

      .cls-3 {
        fill-rule: evenodd;
      }</style><style
   id="style16-1">.cls-1, .cls-3 {
        fill: #be0000;
      }

      .cls-2 {
        fill: #f8c301;
      }

      .cls-3 {
        fill-rule: evenodd;
      }</style><style
   type="text/css"
   id="style18-0">.fil1{fill:none}</style><style
   id="style20-6">.cls-1, .cls-3 {
        fill: #be0000;
      }

      .cls-2 {
        fill: #f8c301;
      }

      .cls-3 {
        fill-rule: evenodd;
      }</style><style
   id="style22-3">.cls-1, .cls-3 {
        fill: #be0000;
      }

      .cls-2 {
        fill: #f8c301;
      }

      .cls-3 {
        fill-rule: evenodd;
      }</style><style
   id="style24-2">.cls-1, .cls-3 {
        fill: #be0000;
      }

      .cls-2 {
        fill: #f8c301;
      }

      .cls-3 {
        fill-rule: evenodd;
      }</style><style
   id="style26-0">.cls-1, .cls-3 {
        fill: #be0000;
      }

      .cls-2 {
        fill: #f8c301;
      }

      .cls-3 {
        fill-rule: evenodd;
      }</style><style
   type="text/css"
   id="style28-6">.fil1{fill:none}</style><style
   id="style30-1">.cls-1, .cls-3 {
        fill: #be0000;
      }

      .cls-2 {
        fill: #f8c301;
      }

      .cls-3 {
        fill-rule: evenodd;
      }</style><style
   id="style32-5">.cls-1, .cls-3 {
        fill: #be0000;
      }

      .cls-2 {
        fill: #f8c301;
      }

      .cls-3 {
        fill-rule: evenodd;
      }</style><style
   id="style34-5">.cls-1, .cls-3 {
        fill: #be0000;
      }

      .cls-2 {
        fill: #f8c301;
      }

      .cls-3 {
        fill-rule: evenodd;
      }</style><style
   type="text/css"
   id="style36-4">.fil1{fill:none}</style><style
   id="style38-7">.cls-1, .cls-3 {
        fill: #be0000;
      }

      .cls-2 {
        fill: #f8c301;
      }

      .cls-3 {
        fill-rule: evenodd;
      }</style><style
   id="style40-65">.cls-1, .cls-3 {
        fill: #be0000;
      }

      .cls-2 {
        fill: #f8c301;
      }

      .cls-3 {
        fill-rule: evenodd;
      }</style><style
   id="style42-6">.cls-1, .cls-3 {
        fill: #be0000;
      }

      .cls-2 {
        fill: #f8c301;
      }

      .cls-3 {
        fill-rule: evenodd;
      }</style>
	
	

		
		
	
			
			
			
			
			
			
			
			
			
			
			
			
			
			
		
			
		
				
				
			
				
				
			
				
			
				
				
			
				
			
				
				
				
				
				
				
				
				
				
				
				
				
				
				
				
				
				
			
				
				
				
				
				
				
				
				
				
				
				
			
				
				
			
				
				
			
				
				
				
				
				
			
				
				
				
				
				
			
				
				
			
				
			
				
				
			
					
				
					
				
					
					
				
					
				
					
				
					
				
					
				
					
					
					
					
					
					
					
					
					
				
					
					
				
					
					
					
					
					
					
				
					
					
				
					
				
					
				
					
				
					
					
					
					
					
					
					
					
					
					
					
					
					
					
					
					
					
					
					
					
					
					
					
					
					
					
					
					
				
					
					
					
				
					
				
					
				
					
				
					
					
					
					
					
				
					
					
				
					
				
					
					
					
					
					
					
					
					
				
					
				
					
					
					
					
					
					
					
					
					
				
					
				
					
				
					
				
					
				
					
				
					
				
						
					
						
					
						
					
						
					
						
					
						
						
					
						
						
					
						
					
						
						
					
						
					
						
					
						
					
						
					
						
					
						
					
						
						
					
						
					
						
						
						
					
						
						
					
						
					
						
					
						
						
						
					
						
					
						
					
						
					
						
					
						
						
					
						
					
						
					
						
						
					
						
						
						
					
						
					
						
					
						
					
						
					
						
					
						
						
						
					
						
					
						
					
						
						
						
					
						
						
					
						
					
						
						
					
						
					
						
					
						
					
						
					
						
					
						
					
						
					
						
					
						
					
						
						
					
						
					
						
					
						
					
							
						
							
						
							
						
							
							
						
							
						
							
						
							
						
							
						
							
						
							
						
							
						
							
						
							
						
							
							
						
							
							
						
							
						
							
						
							
						
							
						
							
							
						
							
							
						
							
						
							
						
							
						
							
						
							
						
							
							
						
							
						
							
							
						
							
						
							
							
						
							
							
						
							
							
						
							
						
							
							
						
							
						
							
							
						
							
						
							
						
							
						
							
						
							
							
						
							
						
							
						
							
						
							
						
							
							
						
							
						
							
						
							
						
							
							
						
								
							
								
							
								
							
								
							
								
							
								
							
								
							
								
							
								
							
								
							
								
							
								
							
								
							
								
							
								
							
								
							
								
							
								
							
								
							
								
							
								
							
								
							
								
							
								
							
								
							
								
							
								
							
								
							
								
							
								
							</defs><metadata
     id="metadata5"><rdf:RDF><cc:Work
         rdf:about=""><dc:format>image/svg+xml</dc:format><dc:type
           rdf:resource="http://purl.org/dc/dcmitype/StillImage" /></cc:Work></rdf:RDF></metadata><path
     id="rect4165"
     style="vector-effect:none;fill:#d40000;fill-rule:evenodd;stroke-width:0.152757;stop-color:#000000"
     d="M -1.7871093e-6,-7.5488282e-7 H 79.374998 V 17.638889 H -1.7871093e-6 Z" /><path
     id="rect4167"
     style="vector-effect:none;fill:#ffcc00;fill-rule:evenodd;stroke-width:0.263924;stop-color:#000000"
     d="M -1.7871093e-6,17.638887 H 79.374998 v 17.63889 H -1.7871093e-6 Z" /><path
     id="rect4171"
     style="vector-effect:none;fill:#d40000;fill-rule:evenodd;stroke-width:0.152757;stop-color:#000000"
     d="M -1.7871093e-6,35.277779 H 79.374998 V 52.916668 H -1.7871093e-6 Z" /><path
     id="path182"
     style="vector-effect:none;fill:#008000;fill-rule:evenodd;stroke-width:0.228565;stop-color:#000000"
     d="M -1.7871093e-6,19.843748 H 79.374998 V 33.072915 H -1.7871093e-6 Z" /><style
     type="text/css"
     id="style54">.st0{fill:#BC0000;}</style><style
     type="text/css"
     id="style56">.st0{fill:#BC0000;}</style><style
     type="text/css"
     id="style58">.st0{fill:#BC0000;}</style><style
     type="text/css"
     id="style60">.st0{fill:#BC0000;}</style><style
     type="text/css"
     id="style62">.st0{fill:#BC0000;}</style><style
     id="style64"><![CDATA[.B{fill:#ff0}.C{fill:none}.D{stroke:#da251d}.E{stroke-linejoin:round}.F{stroke-width:2.13049}.G{stroke-width:.563693}.H{fill:#fcd134}.I{fill:#eed025}.J{stroke-dashoffset:181.417}.K{stroke-width:.396875}.L{stroke-linecap:round}]]></style><style
     type="text/css"
     id="style66">.st0{fill:#BC0000;}</style><style
     type="text/css"
     id="style68">.st0{fill:#BC0000;}</style><style
     type="text/css"
     id="style70">.st0{fill:#BC0000;}</style><style
     type="text/css"
     id="style72">.st0{fill:#BC0000;}</style><style
     type="text/css"
     id="style74">.st0{fill:#BC0000;}</style><style
     id="style76"><![CDATA[.B{fill:#ff0}.C{fill:none}.D{stroke:#da251d}.E{stroke-linejoin:round}.F{stroke-width:2.13049}.G{stroke-width:.563693}.H{fill:#fcd134}.I{fill:#eed025}.J{stroke-dashoffset:181.417}.K{stroke-width:.396875}.L{stroke-linecap:round}]]></style><style
     type="text/css"
     id="style78">.st0{fill:#BC0000;}</style><style
     type="text/css"
     id="style80">.st0{fill:#BC0000;}</style><style
     type="text/css"
     id="style82">.st0{fill:#BC0000;}</style><style
     type="text/css"
     id="style84">.st0{fill:#BC0000;}</style><style
     type="text/css"
     id="style86">.st0{fill:#BC0000;}</style><style
     type="text/css"
     id="style88">.st0{fill:#BC0000;}</style><style
     id="style90"><![CDATA[.B{fill:#ff0}.C{fill:none}.D{stroke:#da251d}.E{stroke-linejoin:round}.F{stroke-width:2.13049}.G{stroke-width:.563693}.H{fill:#fcd134}.I{fill:#eed025}.J{stroke-dashoffset:181.417}.K{stroke-width:.396875}.L{stroke-linecap:round}]]></style><style
     type="text/css"
     id="style92">.st0{fill:#BC0000;}</style><style
     type="text/css"
     id="style94">.st0{fill:#BC0000;}</style><style
     type="text/css"
     id="style96">.st0{fill:#BC0000;}</style><style
     type="text/css"
     id="style98">.st0{fill:#BC0000;}</style><style
     type="text/css"
     id="style100">.st0{fill:#BC0000;}</style><style
     id="style102"><![CDATA[.B{fill:#ff0}.C{fill:none}.D{stroke:#da251d}.E{stroke-linejoin:round}.F{stroke-width:2.13049}.G{stroke-width:.563693}.H{fill:#fcd134}.I{fill:#eed025}.J{stroke-dashoffset:181.417}.K{stroke-width:.396875}.L{stroke-linecap:round}]]></style><style
     type="text/css"
     id="style6890">.st0{fill:#BC0000;}</style><style
     type="text/css"
     id="style54-8">.st0{fill:#BC0000;}</style><style
     type="text/css"
     id="style56-7">.st0{fill:#BC0000;}</style><style
     type="text/css"
     id="style58-9">.st0{fill:#BC0000;}</style><style
     type="text/css"
     id="style60-2">.st0{fill:#BC0000;}</style><style
     type="text/css"
     id="style62-0">.st0{fill:#BC0000;}</style><style
     id="style64-2"><![CDATA[.B{fill:#ff0}.C{fill:none}.D{stroke:#da251d}.E{stroke-linejoin:round}.F{stroke-width:2.13049}.G{stroke-width:.563693}.H{fill:#fcd134}.I{fill:#eed025}.J{stroke-dashoffset:181.417}.K{stroke-width:.396875}.L{stroke-linecap:round}]]></style><style
     type="text/css"
     id="style66-3">.st0{fill:#BC0000;}</style><style
     type="text/css"
     id="style68-7">.st0{fill:#BC0000;}</style><style
     type="text/css"
     id="style70-5">.st0{fill:#BC0000;}</style><style
     type="text/css"
     id="style72-9">.st0{fill:#BC0000;}</style><style
     type="text/css"
     id="style74-2">.st0{fill:#BC0000;}</style><style
     id="style76-2"><![CDATA[.B{fill:#ff0}.C{fill:none}.D{stroke:#da251d}.E{stroke-linejoin:round}.F{stroke-width:2.13049}.G{stroke-width:.563693}.H{fill:#fcd134}.I{fill:#eed025}.J{stroke-dashoffset:181.417}.K{stroke-width:.396875}.L{stroke-linecap:round}]]></style><style
     type="text/css"
     id="style78-8">.st0{fill:#BC0000;}</style><style
     type="text/css"
     id="style80-9">.st0{fill:#BC0000;}</style><style
     type="text/css"
     id="style82-7">.st0{fill:#BC0000;}</style><style
     type="text/css"
     id="style84-3">.st0{fill:#BC0000;}</style><style
     type="text/css"
     id="style86-6">.st0{fill:#BC0000;}</style><style
     type="text/css"
     id="style88-1">.st0{fill:#BC0000;}</style><style
     id="style90-2"><![CDATA[.B{fill:#ff0}.C{fill:none}.D{stroke:#da251d}.E{stroke-linejoin:round}.F{stroke-width:2.13049}.G{stroke-width:.563693}.H{fill:#fcd134}.I{fill:#eed025}.J{stroke-dashoffset:181.417}.K{stroke-width:.396875}.L{stroke-linecap:round}]]></style><style
     type="text/css"
     id="style92-9">.st0{fill:#BC0000;}</style><style
     type="text/css"
     id="style94-3">.st0{fill:#BC0000;}</style><style
     type="text/css"
     id="style96-1">.st0{fill:#BC0000;}</style><style
     type="text/css"
     id="style98-9">.st0{fill:#BC0000;}</style><style
     type="text/css"
     id="style100-4">.st0{fill:#BC0000;}</style><style
     id="style102-7"><![CDATA[.B{fill:#ff0}.C{fill:none}.D{stroke:#da251d}.E{stroke-linejoin:round}.F{stroke-width:2.13049}.G{stroke-width:.563693}.H{fill:#fcd134}.I{fill:#eed025}.J{stroke-dashoffset:181.417}.K{stroke-width:.396875}.L{stroke-linecap:round}]]></style><style
     type="text/css"
     id="style54-3">.st0{fill:#BC0000;}</style><style
     type="text/css"
     id="style56-74">.st0{fill:#BC0000;}</style><style
     type="text/css"
     id="style58-5">.st0{fill:#BC0000;}</style><style
     type="text/css"
     id="style60-25">.st0{fill:#BC0000;}</style><style
     type="text/css"
     id="style62-4">.st0{fill:#BC0000;}</style><style
     id="style64-7"><![CDATA[.B{fill:#ff0}.C{fill:none}.D{stroke:#da251d}.E{stroke-linejoin:round}.F{stroke-width:2.13049}.G{stroke-width:.563693}.H{fill:#fcd134}.I{fill:#eed025}.J{stroke-dashoffset:181.417}.K{stroke-width:.396875}.L{stroke-linecap:round}]]></style><style
     type="text/css"
     id="style66-4">.st0{fill:#BC0000;}</style><style
     type="text/css"
     id="style68-4">.st0{fill:#BC0000;}</style><style
     type="text/css"
     id="style70-3">.st0{fill:#BC0000;}</style><style
     type="text/css"
     id="style72-0">.st0{fill:#BC0000;}</style><style
     type="text/css"
     id="style74-7">.st0{fill:#BC0000;}</style><style
     id="style76-8"><![CDATA[.B{fill:#ff0}.C{fill:none}.D{stroke:#da251d}.E{stroke-linejoin:round}.F{stroke-width:2.13049}.G{stroke-width:.563693}.H{fill:#fcd134}.I{fill:#eed025}.J{stroke-dashoffset:181.417}.K{stroke-width:.396875}.L{stroke-linecap:round}]]></style><style
     type="text/css"
     id="style78-6">.st0{fill:#BC0000;}</style><style
     type="text/css"
     id="style80-8">.st0{fill:#BC0000;}</style><style
     type="text/css"
     id="style82-8">.st0{fill:#BC0000;}</style><style
     type="text/css"
     id="style84-4">.st0{fill:#BC0000;}</style><style
     type="text/css"
     id="style86-3">.st0{fill:#BC0000;}</style><style
     type="text/css"
     id="style88-14">.st0{fill:#BC0000;}</style><style
     id="style90-9"><![CDATA[.B{fill:#ff0}.C{fill:none}.D{stroke:#da251d}.E{stroke-linejoin:round}.F{stroke-width:2.13049}.G{stroke-width:.563693}.H{fill:#fcd134}.I{fill:#eed025}.J{stroke-dashoffset:181.417}.K{stroke-width:.396875}.L{stroke-linecap:round}]]></style><style
     type="text/css"
     id="style92-2">.st0{fill:#BC0000;}</style><style
     type="text/css"
     id="style94-0">.st0{fill:#BC0000;}</style><style
     type="text/css"
     id="style96-6">.st0{fill:#BC0000;}</style><style
     type="text/css"
     id="style98-8">.st0{fill:#BC0000;}</style><style
     type="text/css"
     id="style100-9">.st0{fill:#BC0000;}</style><style
     id="style102-2"><![CDATA[.B{fill:#ff0}.C{fill:none}.D{stroke:#da251d}.E{stroke-linejoin:round}.F{stroke-width:2.13049}.G{stroke-width:.563693}.H{fill:#fcd134}.I{fill:#eed025}.J{stroke-dashoffset:181.417}.K{stroke-width:.396875}.L{stroke-linecap:round}]]></style><path
     id="rect23031"
     style="vector-effect:none;fill:#ffcc00;fill-rule:evenodd;stroke-width:0.0147959;stop-color:#000000"
     d="m 29.062654,29.762493 h 1.205236 v 1.987446 h -1.205236 z" /><path
     id="path20324"
     style="fill:#ffcc00;stroke-width:0.0650604"
     d="m 39.13834,21.166665 -0.325806,2.517623 h -0.384945 l -0.118496,0.681287 c 0,0 -1.273827,0.326199 -1.392038,1.096116 -0.0773,0.502458 -0.07904,0.625704 -0.07097,0.651404 h 0.01163 c 0,0 -0.0072,0.01385 -0.01163,0 h -0.10708 v 0.266661 h 0.118497 v 0.681079 l -0.177845,0.177844 v 0.236987 l -0.236781,0.177429 -0.148169,0.08923 v 0.177636 c 0,0 -0.177636,0.05935 -0.177636,0.148168 0,0.08868 -0.02926,0.266662 -0.02926,0.266662 h -0.178054 v 0.644971 H 35.463798 V 28.9476 h -0.102513 c 0.01193,-0.01015 0.03299,-0.04148 0.03299,-0.118701 0,-0.142545 -0.09214,-0.131152 -0.09214,-0.131152 v -0.02407 h -0.0089 v -0.02656 c 0,0 -7.76e-4,-3.9e-5 -0.01722,-0.01162 -0.01622,-0.01158 -0.02495,-0.04125 -0.03632,-0.0635 -0.01129,-0.02225 -0.04732,-0.03257 -0.04732,-0.03257 0,0 6.9e-5,-7.74e-4 6.43e-4,-0.0016 0.0044,-0.0094 0.02956,-0.06359 0.03985,-0.09442 0.01133,-0.03383 0.0077,-0.0826 0.0077,-0.0826 h -0.01846 v -0.02636 h -0.04358 v -0.07346 h -0.0089 v -0.02781 c 0,0 -0.01866,0.0015 -0.02553,-0.01309 -0.007,-0.01476 -0.01992,-0.06038 -0.06744,-0.06038 v -0.0635 h -0.03155 v -0.05375 h -0.02386 c -4.01e-4,-0.0015 -0.01487,-0.03937 -0.02261,-0.136962 -0.0016,-0.01627 -0.0033,-0.03898 -0.0056,-0.06579 -0.0051,-0.05706 -0.01183,-0.1328 -0.01827,-0.204823 -0.0072,-0.08145 -0.0137,-0.158375 -0.01639,-0.198387 -7.75e-4,-0.0094 -0.0016,-0.01676 -0.0016,-0.02158 -7.76e-4,-0.02733 -0.0087,-0.08309 -0.03072,-0.136964 -0.02145,-0.05237 -0.05638,-0.104237 -0.112269,-0.124926 h -2.05e-4 l -0.01287,-0.147546 -0.0077,-0.09006 H 34.65492 l -0.03217,-0.399267 -0.03051,-0.38059 -0.006,-0.07492 c 0,0 -0.0028,-0.04088 -0.04856,-0.04088 h -8.47e-4 c -0.04549,0 -0.04856,0.04088 -0.04856,0.04088 l -0.0059,0.07492 -0.03071,0.38059 -0.03196,0.399267 h -0.13821 l -0.0077,0.09006 -0.01287,0.147546 c -0.05583,0.02068 -0.09102,0.07255 -0.112476,0.124926 -0.02204,0.05387 -0.02971,0.109703 -0.03071,0.136964 -1.33e-4,0.0048 -2.45e-4,0.01221 -0.0015,0.02158 -0.0028,0.04002 -0.0094,0.116934 -0.0166,0.198387 -0.0064,0.07202 -0.01332,0.14783 -0.01827,0.204823 -0.0025,0.0268 -0.0043,0.04952 -0.0054,0.06579 -0.0078,0.09759 -0.02235,0.135401 -0.02283,0.136962 h -0.02365 v 0.05375 h -0.03175 v 0.0635 c -0.04748,0 -0.06035,0.04562 -0.06724,0.06038 -0.007,0.01465 -0.02573,0.01309 -0.02573,0.01309 v 0.02781 h -0.0089 v 0.07367 h -0.04357 v 0.02614 h -0.01827 c 0,0 -0.0041,0.04903 0.0075,0.0828 0.01036,0.03091 0.03542,0.08505 0.03985,0.09442 4.02e-4,8.89e-4 8.47e-4,0.0015 8.47e-4,0.0015 0,0 -0.03623,0.01032 -0.04753,0.03257 -0.01129,0.02225 -0.02013,0.05193 -0.03632,0.0635 -0.01618,0.01158 -0.01723,0.01163 -0.01723,0.01163 v 0.02656 h -0.0089 v 0.02407 c 0,0 -0.09214,-0.01147 -0.09214,0.131151 0,0.07729 0.02107,0.108553 0.03299,0.118702 h -0.102515 v 0.03217 H 33.5658 v 0.691663 h -0.530524 c 0.01212,-0.01348 0.02884,-0.04578 0.02884,-0.114551 0,-0.142547 -0.09214,-0.131153 -0.09214,-0.131153 v -0.02406 h -0.0089 v -0.02677 c 0,0 -0.0016,1.69e-4 -0.01722,-0.01141 -0.01622,-0.01158 -0.02495,-0.04125 -0.03632,-0.06349 -0.0114,-0.02225 -0.04753,-0.03257 -0.04753,-0.03257 0,0 2.77e-4,-7.74e-4 8.47e-4,-0.0016 0.0044,-0.0094 0.02956,-0.06359 0.03985,-0.09442 0.01132,-0.03383 0.0075,-0.0826 0.0075,-0.0826 h -0.01826 v -0.02635 h -0.04358 v -0.07349 h -0.0089 v -0.02781 c 0,0 -0.01875,0.0015 -0.02573,-0.01309 -0.007,-0.01476 -0.01972,-0.06039 -0.06724,-0.06039 v -0.0635 h -0.03175 v -0.05404 h -0.02359 c -4.02e-4,-0.0015 -0.01504,-0.03917 -0.02283,-0.136756 -0.0016,-0.01627 -0.0032,-0.03919 -0.0056,-0.06599 -0.0049,-0.05707 -0.01175,-0.1328 -0.01805,-0.204822 -0.0072,-0.08145 -0.01379,-0.158169 -0.0166,-0.198181 -7.75e-4,-0.0094 -8.47e-4,-0.01676 -0.0016,-0.02158 -7.76e-4,-0.02732 -0.0086,-0.08309 -0.03071,-0.136964 -0.0214,-0.05237 -0.05639,-0.104238 -0.112268,-0.124926 h -2.09e-4 l -0.01266,-0.147546 -0.0079,-0.09027 h -0.138012 l -0.03217,-0.399267 -0.03051,-0.380591 -0.006,-0.07471 c 0,0 -0.0028,-0.04088 -0.04856,-0.04088 h -8.46e-4 c -0.04549,0 -0.04835,0.04088 -0.04835,0.04088 l -0.0062,0.07471 -0.03051,0.380591 -0.03217,0.399267 h -0.138002 l -0.0077,0.09027 -0.01287,0.147546 h -2.05e-4 c -0.05575,0.02069 -0.09086,0.07255 -0.112269,0.124926 -0.02213,0.05387 -0.02971,0.109703 -0.03071,0.136964 -1.93e-4,0.0048 -4.42e-4,0.01222 -0.0016,0.02158 -0.0028,0.04002 -0.0094,0.116725 -0.0166,0.198181 -0.0065,0.07202 -0.0132,0.147763 -0.01826,0.204822 -0.0025,0.02681 -0.0043,0.04972 -0.0054,0.06599 -0.0078,0.09759 -0.0223,0.135195 -0.02283,0.136756 h -0.02365 v 0.05396 h -0.03175 v 0.0635 c -0.04748,0 -0.06028,0.04562 -0.06724,0.06038 -0.0068,0.01464 -0.02573,0.01308 -0.02573,0.01308 v 0.02781 h -0.0089 v 0.07346 h -0.04358 v 0.02636 h -0.01847 c 0,0 -0.0041,0.04883 0.0075,0.0826 0.01037,0.03091 0.03542,0.08505 0.03985,0.09442 4.01e-4,8.89e-4 8.47e-4,0.0016 8.47e-4,0.0016 0,0 -0.03631,0.01033 -0.04753,0.03257 -0.01132,0.02225 -0.01993,0.05193 -0.03612,0.0635 -0.01622,0.01158 -0.01743,0.01141 -0.01743,0.01141 v 0.02676 h -0.0089 v 0.02406 c 0,0 -0.09214,-0.01147 -0.09214,0.131151 0,0.06877 0.01676,0.101084 0.02884,0.114551 h -0.106457 v 0.727785 h -0.577831 v -0.06848 h -0.102513 c 0.01193,-0.01015 0.03299,-0.04149 0.03299,-0.118701 0,-0.142546 -0.09214,-0.131153 -0.09214,-0.131153 v -0.02406 h -0.0089 v -0.02656 c 0,0 -0.0016,-3.9e-5 -0.01723,-0.01162 -0.01627,-0.01158 -0.02495,-0.04125 -0.03632,-0.06349 -0.0114,-0.02225 -0.04753,-0.03257 -0.04753,-0.03257 0,0 2.77e-4,-6.03e-4 8.46e-4,-0.0015 0.0044,-0.0094 0.02953,-0.06359 0.03984,-0.09442 0.01129,-0.03383 0.0075,-0.0828 0.0075,-0.0828 h -0.01826 v -0.02633 h -0.04358 v -0.07346 h -0.0089 v -0.02781 c 0,0 -0.01875,0.0015 -0.02573,-0.01308 -0.0068,-0.01477 -0.01972,-0.06038 -0.06723,-0.06038 v -0.0635 h -0.03175 v -0.05395 h -0.02365 c -4.01e-4,-0.0015 -0.01504,-0.03916 -0.02283,-0.136755 -0.0016,-0.01627 -0.0032,-0.03898 -0.0057,-0.06578 -0.0049,-0.05707 -0.01174,-0.1328 -0.01805,-0.204821 -0.0072,-0.08145 -0.0138,-0.158378 -0.0166,-0.19839 -7.75e-4,-0.0094 -0.0016,-0.01676 -0.0016,-0.02158 -7.75e-4,-0.02732 -0.0086,-0.08303 -0.03071,-0.136963 -0.02141,-0.05236 -0.05638,-0.104172 -0.112268,-0.124926 h -2.08e-4 l -0.01287,-0.147546 -0.0079,-0.09027 h -0.138001 l -0.03196,-0.399266 -0.03071,-0.380591 -0.006,-0.07471 c 0,0 -0.0028,-0.04088 -0.04857,-0.04088 h -8.47e-4 c -0.04549,0 -0.04836,0.04088 -0.04836,0.04088 l -0.006,0.07471 -0.03071,0.380591 -0.03196,0.399266 h -0.137997 l -0.0079,0.09027 -0.01287,0.147546 h -2.09e-4 c -0.05576,0.02069 -0.09066,0.07255 -0.11206,0.124926 -0.02213,0.05387 -0.02988,0.109639 -0.03092,0.136963 -1.97e-4,0.0048 -4.41e-4,0.01214 -0.0016,0.02158 -0.0028,0.04002 -0.0094,0.116934 -0.0166,0.19839 -0.0064,0.07202 -0.01321,0.147829 -0.01827,0.204821 -0.0025,0.0268 -0.0043,0.04952 -0.0054,0.06578 -0.0078,0.09759 -0.0223,0.135259 -0.02283,0.136755 h -0.02365 v 0.05395 h -0.03175 v 0.0635 c -0.04748,0 -0.06028,0.04562 -0.06724,0.06038 -0.0068,0.01464 -0.02573,0.01308 -0.02573,0.01308 v 0.02781 h -0.0089 v 0.07346 h -0.04358 v 0.02636 h -0.01848 c 0,0 -0.0041,0.04897 0.0075,0.0828 0.01036,0.03091 0.03539,0.08505 0.03985,0.09442 4.01e-4,8.89e-4 8.46e-4,0.0015 8.46e-4,0.0015 0,0 -0.03629,0.01033 -0.04752,0.03257 -4.03e-4,8.89e-4 -6.44e-4,0.0017 -0.0015,0.0027 0.328332,0.631491 0.651414,1.261779 0.871168,1.792136 h 19.40824 c 0.241164,-0.581351 0.609513,-1.28526 0.968492,-1.975584 4.02e-4,-0.0012 0.0015,-0.0022 0.0018,-0.0033 4.03e-4,-0.01562 -4e-4,-0.02719 -4e-4,-0.02719 h -0.01827 v -0.02636 h -0.04358 v -0.07346 h -0.0089 v -0.02781 c 0,0 -0.01874,0.0015 -0.02573,-0.01308 -0.0068,-0.01476 -0.01993,-0.06038 -0.06744,-0.06038 v -0.0635 h -0.03154 v -0.05396 h -0.02365 c -4.02e-4,-0.0015 -0.01504,-0.03916 -0.02283,-0.136754 -0.0016,-0.01627 -0.0032,-0.03898 -0.0056,-0.06579 -0.0049,-0.05706 -0.01175,-0.132799 -0.01805,-0.20482 -0.0072,-0.08145 -0.01379,-0.158171 -0.0166,-0.198181 -7.75e-4,-0.0094 -8.46e-4,-0.01676 -0.0016,-0.02158 -7.75e-4,-0.02733 -0.0086,-0.08324 -0.03072,-0.137169 -0.02141,-0.05237 -0.0566,-0.104174 -0.112477,-0.124928 h -1.33e-4 l -0.01266,-0.147546 -0.0077,-0.09027 h -0.137897 l -0.03196,-0.399267 -0.03071,-0.38059 -0.006,-0.07471 c 0,0 -0.0027,-0.04088 -0.04835,-0.04088 h -8.47e-4 c -0.04549,0 -0.04856,0.04088 -0.04856,0.04088 l -0.006,0.07471 -0.03072,0.38059 -0.03197,0.399267 h -0.138 l -0.0079,0.09027 -0.01266,0.147546 h -2.04e-4 c -0.05576,0.02069 -0.09093,0.07255 -0.11227,0.124928 -0.02213,0.05387 -0.02971,0.109844 -0.03072,0.137169 -2.01e-4,0.0048 -4.41e-4,0.01215 -0.0016,0.02158 -0.0028,0.04002 -0.0094,0.116726 -0.0166,0.198181 -0.0065,0.07202 -0.01328,0.147828 -0.01827,0.20482 -0.0025,0.0268 -0.0043,0.04952 -0.0054,0.06579 -0.0078,0.09759 -0.0223,0.135258 -0.02283,0.136754 h -0.02365 v 0.05396 h -0.03174 v 0.0635 c -0.04747,0 -0.06027,0.04562 -0.06723,0.06038 -0.0068,0.01464 -0.02573,0.01308 -0.02573,0.01308 v 0.02781 h -0.0089 v 0.07346 h -0.04358 v 0.02636 h -0.01847 c 0,0 -0.0038,0.04897 0.0077,0.0828 0.01037,0.03091 0.03538,0.08505 0.03985,0.09442 4.01e-4,8.89e-4 6.43e-4,0.0016 6.43e-4,0.0016 0,0 -0.03621,0.01012 -0.04753,0.03236 -0.01129,0.02225 -0.02013,0.05193 -0.03632,0.0635 -0.01619,0.01158 -0.01722,0.01162 -0.01722,0.01162 v 0.02656 h -0.0089 v 0.02428 c 0,0 -0.09214,-0.01167 -0.09214,0.130944 0,0.07729 0.02107,0.10876 0.03299,0.118908 h -0.10244 v 0.06848 h -0.554178 v -0.727947 h -0.166636 c 0.01212,-0.01347 0.02864,-0.04578 0.02864,-0.11455 0,-0.142546 -0.09193,-0.130945 -0.09193,-0.130945 v -0.02427 h -0.0089 v -0.02656 c 0,0 -0.0017,-3.5e-5 -0.01742,-0.01162 -0.01622,-0.01158 -0.02495,-0.04125 -0.03632,-0.0635 -0.01141,-0.02225 -0.04732,-0.03237 -0.04732,-0.03237 0,0 2.73e-4,-7.75e-4 8.46e-4,-0.0016 0.0044,-0.0094 0.02935,-0.06359 0.03964,-0.09442 0.01132,-0.03383 0.0075,-0.0828 0.0075,-0.0828 h -0.01827 v -0.02614 h -0.04358 v -0.07364 h -0.0089 v -0.02781 c 0,0 -0.01882,0.0015 -0.02573,-0.01309 -0.0068,-0.01477 -0.01973,-0.06018 -0.06723,-0.06018 v -0.06372 h -0.03175 v -0.05375 h -0.02365 c -4.01e-4,-0.0015 -0.01504,-0.03937 -0.02283,-0.136962 -0.0016,-0.01627 -0.0032,-0.03898 -0.0057,-0.06578 -0.0049,-0.05707 -0.01171,-0.1328 -0.01805,-0.204822 -0.0071,-0.08145 -0.0138,-0.158377 -0.0166,-0.198389 -7.75e-4,-0.0094 -0.0016,-0.01676 -0.0016,-0.02158 -7.76e-4,-0.02733 -0.0086,-0.08309 -0.03072,-0.136963 -0.0214,-0.05237 -0.05638,-0.104237 -0.112268,-0.124926 h -2.09e-4 l -0.01267,-0.147549 -0.0079,-0.09006 h -0.137931 l -0.03217,-0.399267 -0.03051,-0.380798 -0.006,-0.07471 c 0,0 -0.0028,-0.04088 -0.04856,-0.04088 h -8.47e-4 c -0.0455,0 -0.04835,0.04088 -0.04835,0.04088 l -0.0062,0.07471 -0.03071,0.380798 -0.03196,0.399267 h -0.138001 l -0.0077,0.09006 -0.01287,0.147547 h -2.07e-4 c -0.05575,0.02069 -0.09086,0.07254 -0.112267,0.124926 -0.02213,0.05387 -0.02971,0.109704 -0.03071,0.136963 -1.97e-4,0.0048 -4.43e-4,0.01222 -0.0016,0.02158 -0.0028,0.04002 -0.0094,0.116933 -0.0166,0.198388 -0.0065,0.07202 -0.0132,0.147765 -0.01827,0.204821 -0.0025,0.0268 -0.0044,0.04952 -0.0057,0.06579 -0.0078,0.09759 -0.02209,0.135401 -0.02261,0.136963 h -0.02386 v 0.05375 h -0.03155 v 0.0635 c -0.04748,0 -0.06048,0.04561 -0.06744,0.06039 -0.0068,0.01464 -0.02553,0.01308 -0.02553,0.01308 v 0.02781 h -0.0089 v 0.07346 h -0.04379 v 0.02635 h -0.01827 c 0,0 -0.0041,0.04903 0.0075,0.0828 0.01037,0.0309 0.03539,0.08505 0.03985,0.09442 4.02e-4,8.88e-4 8.47e-4,0.0015 8.47e-4,0.0015 0,0 -0.0363,0.01032 -0.04753,0.03257 -0.01129,0.02225 -0.02009,0.05193 -0.03632,0.06349 -0.01619,0.01158 -0.01722,0.01162 -0.01722,0.01162 v 0.02656 h -0.0089 v 0.02428 c 0,0 -0.09214,-0.01167 -0.09214,0.130945 0,0.06876 0.01667,0.101083 0.02864,0.114551 h -0.579187 v -0.589355 h 0.0044 V 28.947967 H 45.62609 c 0.01193,-0.01015 0.0332,-0.04169 0.0332,-0.118909 0,-0.142547 -0.09214,-0.130944 -0.09214,-0.130944 v -0.02428 h -0.0089 v -0.02656 c 0,0 -0.0016,-3.9e-5 -0.01722,-0.01162 -0.01627,-0.01158 -0.02495,-0.04125 -0.03631,-0.0635 -0.0114,-0.02225 -0.04753,-0.03237 -0.04753,-0.03237 0,0 2.76e-4,-7.76e-4 8.46e-4,-0.0016 0.0044,-0.0094 0.02957,-0.06359 0.03985,-0.09442 0.01129,-0.03383 0.0075,-0.0828 0.0075,-0.0828 h -0.01847 v -0.02614 h -0.04358 v -0.07367 h -0.0089 v -0.0276 c 0,0 -0.01875,0.0015 -0.02573,-0.01308 -0.0068,-0.01477 -0.01972,-0.06039 -0.06723,-0.06039 v -0.06372 h -0.03175 v -0.05375 h -0.02365 c -4e-4,-0.0015 -0.01504,-0.03937 -0.02283,-0.136962 -0.0016,-0.01627 -0.0032,-0.03898 -0.0057,-0.06578 -0.0049,-0.05707 -0.01171,-0.1328 -0.01805,-0.204822 -0.0072,-0.08145 -0.01379,-0.158377 -0.0166,-0.198388 -7.76e-4,-0.0094 -0.0016,-0.01676 -0.0016,-0.02158 -7.75e-4,-0.02733 -0.0086,-0.08309 -0.03071,-0.136964 -0.02141,-0.05237 -0.05639,-0.104238 -0.112269,-0.124927 h -2.08e-4 l -0.01266,-0.147545 -0.0079,-0.09006 h -0.138002 l -0.03217,-0.399268 -0.03051,-0.38059 -0.0062,-0.07492 c 0,0 -0.0027,-0.04088 -0.04836,-0.04088 h -8.47e-4 c -0.0455,0 -0.04857,0.04088 -0.04857,0.04088 l -0.006,0.07492 -0.03051,0.38059 -0.03217,0.399268 h -0.137169 l -0.0079,0.09006 -0.01267,0.147545 h -2.06e-4 c -0.05574,0.02069 -0.09086,0.07255 -0.112268,0.124927 -0.02213,0.05387 -0.02983,0.109702 -0.03092,0.136964 -1.93e-4,0.0048 -4.42e-4,0.0122 -0.0016,0.02158 -0.0028,0.04002 -0.0094,0.116933 -0.0166,0.198388 -0.0064,0.07202 -0.01303,0.147829 -0.01805,0.204822 -0.0024,0.0268 -0.0044,0.04952 -0.0056,0.06578 -0.0078,0.09759 -0.0223,0.1354 -0.02283,0.136962 h -0.02365 v 0.05375 h -0.03175 v 0.06349 c -0.04747,0 -0.06027,0.04562 -0.06723,0.06038 -0.0068,0.01465 -0.02573,0.01309 -0.02573,0.01309 v 0.02781 h -0.0089 v 0.07367 h -0.04357 v 0.02614 h -0.01827 c 0,0 -0.0041,0.04903 0.0075,0.0828 0.01036,0.03091 0.03539,0.08505 0.03985,0.09442 4.01e-4,8.89e-4 8.46e-4,0.0015 8.46e-4,0.0015 0,0 -0.03629,0.01032 -0.04752,0.03257 -0.01129,0.02225 -0.02013,0.05193 -0.03632,0.0635 -0.01619,0.01158 -0.01722,0.01162 -0.01722,0.01162 v 0.02656 h -0.009 v 0.02407 c 0,0 -0.09214,-0.01147 -0.09214,0.131152 0,0.0773 0.02108,0.108552 0.033,0.118702 h -0.102298 v 0.03217 h -0.44264 v -0.644966 h -0.177846 c 0,0 -0.02968,-0.177986 -0.02968,-0.266662 0,-0.08881 -0.177431,-0.148169 -0.177431,-0.148169 v -0.177636 l -0.147958,-0.08917 -0.237193,-0.177428 v -0.2372 l -0.177545,-0.177844 v -0.68108 h 0.118493 V 26.113217 H 42.49686 c -0.0044,0.01385 -0.01141,0 -0.01141,0 h 0.01141 c 0.0083,-0.0257 0.0065,-0.148946 -0.07076,-0.651403 -0.118541,-0.769918 -1.392247,-1.096116 -1.392247,-1.096116 L 40.91557,23.684411 h -0.38495 l -0.325804,-2.517624 z" /><path
     id="rect23753"
     style="vector-effect:none;fill:#ffcc00;fill-rule:evenodd;stroke-width:0.0147959;stop-color:#000000"
     d="m 49.1073,29.762493 h 1.205235 v 1.987446 H 49.1073 Z" /></svg>
