<svg xmlns="http://www.w3.org/2000/svg" width="300" height="311.197" version="1.1" viewBox="0 0 79.373 82.338" id="svg2090"><defs id="defs1724"><style type="text/css" id="style1718">.fil1{fill:none}.cls-1,.cls-3{fill:#be0000}.cls-2{fill:#f8c301}.cls-3{fill-rule:evenodd}.st0{fill:#bc0000}</style></defs><g id="g379" transform="translate(-.013 -.001) scale(.55172)"><g id="g205"><circle cx="71.952" cy="62.074" r="61.939" fill="#b61c1c" fill-rule="evenodd" stroke="maroon" stroke-width=".265" id="circle1736" style="fill:#a00"/><g id="g2494"><path d="M39.801 106.834 24.447 85.021m18.644 19.985L24.203 75.882m21.691 26.931L25.787 66.134m23.397 35.339L30.503 59.22m22.702 41.035-14.958-39.64m18.37 39.031L42.603 48.953m17.791 49.962L51.62 54.071m12.308 43.625-6.824-61.904m10.602 61.416-1.95-44.113m5.85 44.113.487-67.875m2.437 68.119 3.534-43.747m.61 43.991 9-62.21m-5.101 62.819 9.504-43.692M85.74 99.524l16.113-50.679m-12.7 51.411 16.45-39.36M92.81 102.328l20.594-42.65m-17.548 44.113 21.57-36.192m-17.792 38.142 19.01-27.784M102.68 107.69l14.623-19.01" fill="none" stroke="#fab825" stroke-linecap="round" stroke-width=".683" id="path1740"/><path d="M105.942 115.234a33.993 25.692 0 1 1-67.985 0 33.993 25.692 0 1 1 67.985 0z" fill="#fab825" fill-rule="evenodd" stroke="#fab825" stroke-width=".178" id="path1742"/></g><path d="m57.301 13.365 3.318 2.967v3.35l1.766.973 3.275-.912 3.63 3.814.794 2.854 3.508.16.186 1.621-4.707 1.742 1.502 1.772.996 1.975 3.258.067 2.496-1.817 4.38 4.284 1.553 5.908 1.715 2.053 3.66-.715 1.494 3.14 3.511-.405 2.009 1.114.142 4.601 1.83 1.898 2.615-3.259.118-1.755h2.127l2.583 3.849-1.581 2.98.082 2.793-1.855 1.973-.418 5.888-.998 1.825 1.757 4.137.117 3.763-.805 2.84.663 2.448-.78 1.614-1.094 3.717-1.067-.027-4.766-4.983-.79-2.305.786-1.806-.636-1.22-5.453-1.838-1.085-.063-1.174 1.381-.592-.34-1.094-2.17-2.197.932-1.903-.216-2.55.19-1.75-2.097-3.694-1.458-1.194-2.119-3.316-2.035.099-3.94-3.167-3.182-2.386-.28-2.642-3.683-1.745-.264-1.975-1.974-3.238-.108-4.154-1.75-3.08.584-2.255-3.42 3.52-4.24.73-3.489 3.01-3.143.111-2.45 3.102-2.014-1.7-2.827-.27-5.566 2.327-1.63L52 21.168l-.348-2.277-.936-1.145.144-.744 2.644-.139 1.684-2.715z" fill="#fab825" stroke="#b61c1c" stroke-width="1.302" id="path2026" style="stroke:#a00"/></g><g id="g4607"><g id="g4172" transform="translate(-.217 .196)" style="stroke:#d54d15;stroke-width:.211668;stroke-miterlimit:4;stroke-dasharray:none;stroke-opacity:1"><path d="M64.887 147.499c.92-1.084 13.212-6.994 19.358-11.082 1.129-.756 2.148-1.257 3.06-1.585 4.05-1.429 5.963.737 5.963.737-13.885 8.441-26.806 13.367-26.806 13.367s-2.486-.354-1.576-1.438z" id="path1744" style="fill:#fab825;stroke:#d54d15;stroke-width:.211668;stroke-miterlimit:4;stroke-dasharray:none;stroke-opacity:1"/><path d="M84.249 136.419c-6.146 4.088-18.438 9.997-19.358 11.082-2.614.354-2.614-1.03-2.614-1.03s5.955-3.97 17.783-11.928l7.248.291c-.91.328-1.93.83-3.059 1.585z" id="path1746" style="fill:#fab825;stroke:#d54d15;stroke-width:.211668;stroke-miterlimit:4;stroke-dasharray:none;stroke-opacity:1"/><path d="M80.059 134.549c-11.828 7.958-17.783 11.928-17.783 11.928s-2.75-.602-2.286-1.202c.455-.601 5.755-4.033 16.28-14.578z" id="path1748" style="fill:#fab825;stroke:#d54d15;stroke-width:.211668;stroke-miterlimit:4;stroke-dasharray:none;stroke-opacity:1"/></g><g id="g4167" transform="translate(-.217 .005)" style="stroke:#d54d15;stroke-width:.211668;stroke-miterlimit:4;stroke-dasharray:none;stroke-opacity:1"><path d="M79.449 147.679c-.92-1.083-13.212-6.984-19.358-11.081-1.13-.747-2.15-1.256-3.06-1.575-4.043-1.43-5.964.737-5.964.737 13.886 8.44 26.806 13.367 26.806 13.367s2.486-.365 1.575-1.448z" id="path1750" style="fill:#fab825;stroke:#d54d15;stroke-width:.211668;stroke-miterlimit:4;stroke-dasharray:none;stroke-opacity:1"/><path d="M60.088 136.599c6.146 4.097 18.438 9.997 19.358 11.08 2.613.366 2.613-1.02 2.613-1.02s-5.946-3.978-17.783-11.927l-7.248.292c.91.318 1.93.828 3.06 1.574z" id="path1752" style="fill:#fab825;stroke:#d54d15;stroke-width:.211668;stroke-miterlimit:4;stroke-dasharray:none;stroke-opacity:1"/><path d="M64.277 134.739c11.837 7.949 17.783 11.928 17.783 11.928s2.75-.601 2.285-1.202c-.455-.61-5.755-4.043-16.28-14.578z" id="path1754" style="fill:#fab825;stroke:#d54d15;stroke-width:.211668;stroke-miterlimit:4;stroke-dasharray:none;stroke-opacity:1"/></g><g id="g3437" style="stroke:#d54d15;stroke-width:.211668;stroke-miterlimit:4;stroke-dasharray:none;stroke-opacity:1"><path d="M9.654 62.394c3.214-9.661 9.306-18.02 12.392-21.863 4.69-10.581 14.669-21.58 22.717-26.771-3.269.701-10.699 3.506-13.703 5.746 5.072-4.772 11.746-8.742 16.635-11.4-1.411-.073-3.67.364-4.015.364 2.367-1.603 6.61-4.225 6.929-4.57C37.352 8.005 25.733 15.853 17 26.216 12.01 35.45 7.422 46.131 6.93 53.761c-.237 3.77 1.62 6.966 2.723 8.632z" id="path1758" style="fill:#fab825;stroke:#d54d15;stroke-width:.211668;stroke-miterlimit:4;stroke-dasharray:none;stroke-opacity:1"/><path d="M20.507 60.544c-.064.19-.119.382-.173.564 0-.137.063-.328.173-.565zm-.437-13.605c-3.651 8.942-8.286 22.782-6.137 31.223 3.915 5.718 12.775 9.88 12.775 9.88a47.69 47.69 0 0 1-2.586-15.534c0-2.823.237-5.582.71-8.268 0-.219.183-1.22.547-2.659a56.79 56.79 0 0 1 2.276-7.148 34.641 34.641 0 0 1 1.693-3.67c-2.358 1.758-7.812 7.604-8.84 9.78 2.43-7.949 7.885-19.194 11.973-22.664-1.821.528-10.553 7.23-12.41 9.06z" id="path1760" style="fill:#fab825;stroke:#d54d15;stroke-width:.211668;stroke-miterlimit:4;stroke-dasharray:none;stroke-opacity:1"/><path d="M29.093 38.474c.437-4.635 5.709-5.026 5.709-5.026s-1.666 5.855-5.709 5.026z" id="path1762" style="fill:#fab825;stroke:#d54d15;stroke-width:.211668;stroke-miterlimit:4;stroke-dasharray:none;stroke-opacity:1"/><path d="M25.242 42.144c.018-4.653 5.245-5.518 5.245-5.518s-1.138 5.983-5.245 5.518z" id="path1764" style="fill:#fab825;stroke:#d54d15;stroke-width:.211668;stroke-miterlimit:4;stroke-dasharray:none;stroke-opacity:1"/><path d="M22.282 46.364c-.419-4.635 4.708-5.982 4.708-5.982s-.583 6.064-4.708 5.982z" id="path1766" style="fill:#fab825;stroke:#d54d15;stroke-width:.211668;stroke-miterlimit:4;stroke-dasharray:none;stroke-opacity:1"/><path d="M20.17 50.734c-.81-4.58 4.18-6.365 4.18-6.365s-.055 6.092-4.18 6.365z" id="path1768" style="fill:#fab825;stroke:#d54d15;stroke-width:.211668;stroke-miterlimit:4;stroke-dasharray:none;stroke-opacity:1"/><path d="M18.304 54.894c-1.165-4.507 3.66-6.674 3.66-6.674s.428 6.073-3.66 6.674z" id="path1770" style="fill:#fab825;stroke:#d54d15;stroke-width:.211668;stroke-miterlimit:4;stroke-dasharray:none;stroke-opacity:1"/><path d="M16.856 59.194c-1.53-4.398 3.114-6.938 3.114-6.938s.902 6.019-3.114 6.938z" id="path1772" style="fill:#fab825;stroke:#d54d15;stroke-width:.211668;stroke-miterlimit:4;stroke-dasharray:none;stroke-opacity:1"/><path d="M16.3 63.574c-2.377-4.006 1.666-7.421 1.666-7.421s2.094 5.718-1.666 7.421z" id="path1774" style="fill:#fab825;stroke:#d54d15;stroke-width:.211668;stroke-miterlimit:4;stroke-dasharray:none;stroke-opacity:1"/><path d="M15.709 68.504c-2.659-3.833 1.13-7.53 1.13-7.53s2.494 5.545-1.13 7.53z" id="path1776" style="fill:#fab825;stroke:#d54d15;stroke-width:.211668;stroke-miterlimit:4;stroke-dasharray:none;stroke-opacity:1"/><path d="M16.237 73.664c-3.433-3.15-.555-7.594-.555-7.594s3.66 4.871.555 7.594z" id="path1778" style="fill:#fab825;stroke:#d54d15;stroke-width:.211668;stroke-miterlimit:4;stroke-dasharray:none;stroke-opacity:1"/><path d="M17.184 78.784c-4.006-2.377-2.094-7.312-2.094-7.312s4.57 4.016 2.094 7.312z" id="path1780" style="fill:#fab825;stroke:#d54d15;stroke-width:.211668;stroke-miterlimit:4;stroke-dasharray:none;stroke-opacity:1"/><path d="M24.249 53.794c-.938-4.562 3.988-6.483 3.988-6.483s.119 6.091-3.988 6.483z" id="path1782" style="fill:#fab825;stroke:#d54d15;stroke-width:.211668;stroke-miterlimit:4;stroke-dasharray:none;stroke-opacity:1"/><path d="M21.9 58.054c-1.183-4.507 3.642-6.684 3.642-6.684s.437 6.074-3.642 6.684z" id="path1784" style="fill:#fab825;stroke:#d54d15;stroke-width:.211668;stroke-miterlimit:4;stroke-dasharray:none;stroke-opacity:1"/><path d="M20.38 62.354c-1.539-4.398 3.096-6.957 3.096-6.957s.919 6.029-3.096 6.957z" id="path1786" style="fill:#fab825;stroke:#d54d15;stroke-width:.211668;stroke-miterlimit:4;stroke-dasharray:none;stroke-opacity:1"/><path d="M19.278 66.764c-1.876-4.261 2.54-7.175 2.54-7.175s1.393 5.927-2.54 7.175z" id="path1788" style="fill:#fab825;stroke:#d54d15;stroke-width:.211668;stroke-miterlimit:4;stroke-dasharray:none;stroke-opacity:1"/><path d="M19.087 71.164c-2.686-3.797 1.056-7.54 1.056-7.54s2.55 5.537-1.056 7.54z" id="path1790" style="fill:#fab825;stroke:#d54d15;stroke-width:.211668;stroke-miterlimit:4;stroke-dasharray:none;stroke-opacity:1"/><path d="M18.904 76.124c-2.96-3.597.5-7.594.5-7.594s2.951 5.326-.5 7.594z" id="path1792" style="fill:#fab825;stroke:#d54d15;stroke-width:.211668;stroke-miterlimit:4;stroke-dasharray:none;stroke-opacity:1"/><path d="M19.851 81.224c-3.678-2.859-1.175-7.521-1.175-7.521s4.043 4.562 1.175 7.521z" id="path1794" style="fill:#fab825;stroke:#d54d15;stroke-width:.211668;stroke-miterlimit:4;stroke-dasharray:none;stroke-opacity:1"/><path d="M23.857 65.784c-1.11-4.525 3.752-6.62 3.752-6.62s.336 6.083-3.752 6.62z" id="path1796" style="fill:#fab825;stroke:#d54d15;stroke-width:.211668;stroke-miterlimit:4;stroke-dasharray:none;stroke-opacity:1"/><path d="M22.336 70.074c-1.457-4.425 3.214-6.902 3.214-6.902s.829 6.028-3.214 6.902z" id="path1798" style="fill:#fab825;stroke:#d54d15;stroke-width:.211668;stroke-miterlimit:4;stroke-dasharray:none;stroke-opacity:1"/><path d="M21.726 74.434c-2.313-4.043 1.776-7.403 1.776-7.403s2.003 5.755-1.776 7.403z" id="path1800" style="fill:#fab825;stroke:#d54d15;stroke-width:.211668;stroke-miterlimit:4;stroke-dasharray:none;stroke-opacity:1"/><path d="M21.6 79.354c-2.604-3.86 1.23-7.511 1.23-7.511s2.421 5.58-1.23 7.511z" id="path1802" style="fill:#fab825;stroke:#d54d15;stroke-width:.211668;stroke-miterlimit:4;stroke-dasharray:none;stroke-opacity:1"/><path d="M22.046 84.524c-3.378-3.205-.446-7.603-.446-7.603s3.588 4.926.446 7.603z" id="path1804" style="fill:#fab825;stroke:#d54d15;stroke-width:.211668;stroke-miterlimit:4;stroke-dasharray:none;stroke-opacity:1"/><path d="M39.073 13.859c1.703-4.334 6.884-3.25 6.884-3.25s-3.224 5.162-6.884 3.25z" id="path1806" style="fill:#fab825;stroke:#d54d15;stroke-width:.211668;stroke-miterlimit:4;stroke-dasharray:none;stroke-opacity:1"/><path d="M34.93 16.363c1.384-4.453 6.629-3.733 6.629-3.733s-2.85 5.381-6.629 3.733z" id="path1808" style="fill:#fab825;stroke:#d54d15;stroke-width:.211668;stroke-miterlimit:4;stroke-dasharray:none;stroke-opacity:1"/><path d="M30.978 19.149c1.065-4.535 6.347-4.198 6.347-4.198s-2.459 5.573-6.347 4.198z" id="path1810" style="fill:#fab825;stroke:#d54d15;stroke-width:.211668;stroke-miterlimit:4;stroke-dasharray:none;stroke-opacity:1"/><path d="M27.126 22.308c.729-4.607 6.019-4.662 6.019-4.662s-2.04 5.746-6.019 4.662z" id="path1812" style="fill:#fab825;stroke:#d54d15;stroke-width:.211668;stroke-miterlimit:4;stroke-dasharray:none;stroke-opacity:1"/><path d="M24.004 25.25c.437-4.644 5.709-5.026 5.709-5.026s-1.667 5.855-5.709 5.026z" id="path1814" style="fill:#fab825;stroke:#d54d15;stroke-width:.211668;stroke-miterlimit:4;stroke-dasharray:none;stroke-opacity:1"/><path d="M20.635 28.884c.091-4.662 5.327-5.436 5.327-5.436s-1.239 5.964-5.327 5.436z" id="path1816" style="fill:#fab825;stroke:#d54d15;stroke-width:.211668;stroke-miterlimit:4;stroke-dasharray:none;stroke-opacity:1"/><path d="M33.154 22.819c1.703-4.334 6.883-3.25 6.883-3.25s-3.223 5.162-6.883 3.25z" id="path1818" style="fill:#fab825;stroke:#d54d15;stroke-width:.211668;stroke-miterlimit:4;stroke-dasharray:none;stroke-opacity:1"/><path d="M29.011 25.323c1.384-4.443 6.628-3.733 6.628-3.733s-2.85 5.381-6.628 3.733z" id="path1820" style="fill:#fab825;stroke:#d54d15;stroke-width:.211668;stroke-miterlimit:4;stroke-dasharray:none;stroke-opacity:1"/><path d="M25.06 28.104c1.065-4.534 6.346-4.197 6.346-4.197s-2.458 5.572-6.346 4.197z" id="path1822" style="fill:#fab825;stroke:#d54d15;stroke-width:.211668;stroke-miterlimit:4;stroke-dasharray:none;stroke-opacity:1"/><path d="M21.208 31.264c.728-4.598 6.019-4.653 6.019-4.653s-2.04 5.736-6.019 4.653z" id="path1824" style="fill:#fab825;stroke:#d54d15;stroke-width:.211668;stroke-miterlimit:4;stroke-dasharray:none;stroke-opacity:1"/><path d="M14.716 37.204c.1-4.653 5.336-5.436 5.336-5.436s-1.247 5.964-5.336 5.436z" id="path1826" style="fill:#fab825;stroke:#d54d15;stroke-width:.211668;stroke-miterlimit:4;stroke-dasharray:none;stroke-opacity:1"/><path d="M11.975 41.464c-.446-4.635 4.662-6.01 4.662-6.01s-.537 6.064-4.662 6.01z" id="path1828" style="fill:#fab825;stroke:#d54d15;stroke-width:.211668;stroke-miterlimit:4;stroke-dasharray:none;stroke-opacity:1"/><path d="M9.863 45.654c-1.138-4.516 3.706-6.647 3.706-6.647s.383 6.073-3.706 6.647z" id="path1830" style="fill:#fab825;stroke:#d54d15;stroke-width:.211668;stroke-miterlimit:4;stroke-dasharray:none;stroke-opacity:1"/><path d="M8.834 50.004c-1.921-4.243 2.467-7.202 2.467-7.202s1.458 5.91-2.467 7.202z" id="path1832" style="fill:#fab825;stroke:#d54d15;stroke-width:.211668;stroke-miterlimit:4;stroke-dasharray:none;stroke-opacity:1"/><path d="M7.714 54.834c-2.222-4.097 1.93-7.366 1.93-7.366s1.885 5.79-1.93 7.366z" id="path1834" style="fill:#fab825;stroke:#d54d15;stroke-width:.211668;stroke-miterlimit:4;stroke-dasharray:none;stroke-opacity:1"/><path d="M7.641 60.384c-3.068-3.506.273-7.612.273-7.612s3.106 5.236-.273 7.612z" id="path1836" style="fill:#fab825;stroke:#d54d15;stroke-width:.211668;stroke-miterlimit:4;stroke-dasharray:none;stroke-opacity:1"/><path d="M32.799 26.124c1.502-4.407 6.729-3.56 6.729-3.56s-2.996 5.308-6.729 3.56z" id="path1838" style="fill:#fab825;stroke:#d54d15;stroke-width:.211668;stroke-miterlimit:4;stroke-dasharray:none;stroke-opacity:1"/><path d="M28.765 28.814c1.184-4.498 6.456-4.034 6.456-4.034s-2.595 5.509-6.456 4.034z" id="path1840" style="fill:#fab825;stroke:#d54d15;stroke-width:.211668;stroke-miterlimit:4;stroke-dasharray:none;stroke-opacity:1"/><path d="M24.951 31.774c.856-4.58 6.146-4.489 6.146-4.489s-2.195 5.682-6.146 4.489z" id="path1842" style="fill:#fab825;stroke:#d54d15;stroke-width:.211668;stroke-miterlimit:4;stroke-dasharray:none;stroke-opacity:1"/><path d="M21.244 35.114c.519-4.635 5.8-4.926 5.8-4.926s-1.775 5.827-5.8 4.926z" id="path1844" style="fill:#fab825;stroke:#d54d15;stroke-width:.211668;stroke-miterlimit:4;stroke-dasharray:none;stroke-opacity:1"/><path d="M18.231 37.644c.228-4.653 5.481-5.281 5.481-5.281s-1.402 5.927-5.481 5.281z" id="path1846" style="fill:#fab825;stroke:#d54d15;stroke-width:.211668;stroke-miterlimit:4;stroke-dasharray:none;stroke-opacity:1"/><path d="M15.035 41.344c-.118-4.662 5.072-5.673 5.072-5.673s-.965 6.02-5.072 5.673z" id="path1848" style="fill:#fab825;stroke:#d54d15;stroke-width:.211668;stroke-miterlimit:4;stroke-dasharray:none;stroke-opacity:1"/><path d="M12.485 45.724c-.647-4.607 4.389-6.219 4.389-6.219s-.264 6.082-4.389 6.219z" id="path1850" style="fill:#fab825;stroke:#d54d15;stroke-width:.211668;stroke-miterlimit:4;stroke-dasharray:none;stroke-opacity:1"/><path d="M30.878 31.944c1.402-4.453 6.638-3.733 6.638-3.733s-2.85 5.38-6.638 3.733z" id="path1852" style="fill:#fab825;stroke:#d54d15;stroke-width:.211668;stroke-miterlimit:4;stroke-dasharray:none;stroke-opacity:1"/><path d="M26.917 34.724c1.075-4.535 6.356-4.198 6.356-4.198s-2.468 5.573-6.356 4.198z" id="path1854" style="fill:#fab825;stroke:#d54d15;stroke-width:.211668;stroke-miterlimit:4;stroke-dasharray:none;stroke-opacity:1"/><path d="M23.175 37.774c.746-4.598 6.037-4.635 6.037-4.635s-2.058 5.737-6.037 4.635z" id="path1856" style="fill:#fab825;stroke:#d54d15;stroke-width:.211668;stroke-miterlimit:4;stroke-dasharray:none;stroke-opacity:1"/><path d="M19.551 41.204c.41-4.644 5.682-5.063 5.682-5.063s-1.63 5.864-5.682 5.063z" id="path1858" style="fill:#fab825;stroke:#d54d15;stroke-width:.211668;stroke-miterlimit:4;stroke-dasharray:none;stroke-opacity:1"/><path d="M16.61 43.814c.11-4.662 5.345-5.418 5.345-5.418s-1.257 5.955-5.345 5.418z" id="path1860" style="fill:#fab825;stroke:#d54d15;stroke-width:.211668;stroke-miterlimit:4;stroke-dasharray:none;stroke-opacity:1"/><path d="M13.496 47.584c-.228-4.653 4.935-5.791 4.935-5.791s-.82 6.028-4.935 5.791z" id="path1862" style="fill:#fab825;stroke:#d54d15;stroke-width:.211668;stroke-miterlimit:4;stroke-dasharray:none;stroke-opacity:1"/><path d="M11.065 52.034c-.774-4.598 4.234-6.328 4.234-6.328s-.118 6.09-4.234 6.328z" id="path1864" style="fill:#fab825;stroke:#d54d15;stroke-width:.211668;stroke-miterlimit:4;stroke-dasharray:none;stroke-opacity:1"/><path d="M10.008 57.664c-2.23-4.097 1.93-7.367 1.93-7.367s1.886 5.792-1.93 7.367z" id="path1866" style="fill:#fab825;stroke:#d54d15;stroke-width:.211668;stroke-miterlimit:4;stroke-dasharray:none;stroke-opacity:1"/><path d="M9.927 63.214c-3.069-3.496.273-7.603.273-7.603s3.105 5.236-.273 7.603z" id="path1868" style="fill:#fab825;stroke:#d54d15;stroke-width:.211668;stroke-miterlimit:4;stroke-dasharray:none;stroke-opacity:1"/><path d="M7.75 71.444c.283-3.096.992-6.174 1.976-9.123-1.11-1.667-2.968-4.863-2.722-8.633.482-7.64 5.08-18.32 10.06-27.554-6.82 8.095-11.226 17.42-13.948 27.982-.474 1.83-.173 5.463.947 7.886z" id="path1870" style="fill:#fab825;stroke:#d54d15;stroke-width:.211668;stroke-miterlimit:4;stroke-dasharray:none;stroke-opacity:1"/><path d="M9.854 62.514c-.037-.055-.082-.119-.119-.182Zm10.307-15.707c2.085-5.099 3.842-8.604 3.842-8.604s-.728.81-1.884 2.248c-3.087 3.843-9.188 12.203-12.393 21.864-.984 2.95-1.694 6.027-1.976 9.123a34.158 34.158 0 0 0-.119 3.47s9.761 16.38 6.392 3.131c-2.148-8.44 2.486-22.28 6.137-31.223v-.009z" id="path1872" style="fill:#fab825;stroke:#d54d15;stroke-width:.211668;stroke-miterlimit:4;stroke-dasharray:none;stroke-opacity:1"/></g><g id="g3377" style="stroke:#d54d15;stroke-width:.211668;stroke-miterlimit:4;stroke-dasharray:none;stroke-opacity:1"><path d="M134.252 62.394c-3.214-9.661-9.315-18.02-12.393-21.863-4.69-10.581-14.668-21.58-22.727-26.771 3.278.701 10.708 3.506 13.713 5.746-5.072-4.772-11.746-8.742-16.644-11.4 1.42-.073 3.679.364 4.025.364-2.368-1.603-6.611-4.225-6.93-4.57 13.257 4.106 24.876 11.954 33.608 22.317 4.99 9.233 9.58 19.914 10.071 27.544.237 3.77-1.62 6.966-2.722 8.632z" id="path1874" style="fill:#fab825;stroke:#d54d15;stroke-width:.211668;stroke-miterlimit:4;stroke-dasharray:none;stroke-opacity:1"/><path d="M123.393 60.544c.064.19.119.382.173.564 0-.137-.063-.328-.173-.565zm.438-13.605c3.651 8.942 8.285 22.782 6.137 31.223-3.916 5.718-12.775 9.88-12.775 9.88a47.69 47.69 0 0 0 2.586-15.534c0-2.823-.246-5.582-.711-8.268 0-.219-.182-1.22-.546-2.659a56.796 56.796 0 0 0-2.277-7.148 34.484 34.484 0 0 0-1.693-3.67c2.358 1.758 7.812 7.604 8.841 9.78-2.43-7.949-7.885-19.194-11.973-22.664 1.821.528 10.553 7.23 12.411 9.06z" id="path1876" style="fill:#fab825;stroke:#d54d15;stroke-width:.211668;stroke-miterlimit:4;stroke-dasharray:none;stroke-opacity:1"/><path d="M114.812 38.474c-.437-4.635-5.718-5.026-5.718-5.026s1.676 5.855 5.718 5.026z" id="path1880" style="fill:#fab825;stroke:#d54d15;stroke-width:.211668;stroke-miterlimit:4;stroke-dasharray:none;stroke-opacity:1"/><path d="M118.662 42.144c-.028-4.653-5.245-5.518-5.245-5.518s1.138 5.983 5.245 5.518z" id="path1882" style="fill:#fab825;stroke:#d54d15;stroke-width:.211668;stroke-miterlimit:4;stroke-dasharray:none;stroke-opacity:1"/><path d="M121.622 46.364c.41-4.635-4.707-5.982-4.707-5.982s.582 6.064 4.707 5.982z" id="path1884" style="fill:#fab825;stroke:#d54d15;stroke-width:.211668;stroke-miterlimit:4;stroke-dasharray:none;stroke-opacity:1"/><path d="M123.722 50.734c.81-4.58-4.17-6.365-4.17-6.365s.054 6.092 4.17 6.365z" id="path1886" style="fill:#fab825;stroke:#d54d15;stroke-width:.211668;stroke-miterlimit:4;stroke-dasharray:none;stroke-opacity:1"/><path d="M125.602 54.894c1.165-4.507-3.66-6.674-3.66-6.674s-.428 6.073 3.66 6.674z" id="path1888" style="fill:#fab825;stroke:#d54d15;stroke-width:.211668;stroke-miterlimit:4;stroke-dasharray:none;stroke-opacity:1"/><path d="M127.052 59.194c1.53-4.398-3.114-6.938-3.114-6.938s-.91 6.019 3.114 6.938z" id="path1890" style="fill:#fab825;stroke:#d54d15;stroke-width:.211668;stroke-miterlimit:4;stroke-dasharray:none;stroke-opacity:1"/><path d="M127.602 63.574c2.368-4.006-1.666-7.421-1.666-7.421s-2.094 5.718 1.666 7.421z" id="path1892" style="fill:#fab825;stroke:#d54d15;stroke-width:.211668;stroke-miterlimit:4;stroke-dasharray:none;stroke-opacity:1"/><path d="M128.182 68.504c2.659-3.833-1.12-7.53-1.12-7.53s-2.495 5.545 1.12 7.53z" id="path1894" style="fill:#fab825;stroke:#d54d15;stroke-width:.211668;stroke-miterlimit:4;stroke-dasharray:none;stroke-opacity:1"/><path d="M127.672 73.664c3.423-3.15.556-7.594.556-7.594s-3.661 4.871-.556 7.594z" id="path1896" style="fill:#fab825;stroke:#d54d15;stroke-width:.211668;stroke-miterlimit:4;stroke-dasharray:none;stroke-opacity:1"/><path d="M126.722 78.784c3.997-2.377 2.094-7.312 2.094-7.312s-4.58 4.016-2.094 7.312z" id="path1898" style="fill:#fab825;stroke:#d54d15;stroke-width:.211668;stroke-miterlimit:4;stroke-dasharray:none;stroke-opacity:1"/><path d="M119.652 53.794c.938-4.562-3.988-6.483-3.988-6.483s-.119 6.091 3.988 6.483z" id="path1900" style="fill:#fab825;stroke:#d54d15;stroke-width:.211668;stroke-miterlimit:4;stroke-dasharray:none;stroke-opacity:1"/><path d="M122.002 58.054c1.184-4.507-3.642-6.684-3.642-6.684s-.437 6.074 3.642 6.684z" id="path1902" style="fill:#fab825;stroke:#d54d15;stroke-width:.211668;stroke-miterlimit:4;stroke-dasharray:none;stroke-opacity:1"/><path d="M123.522 62.354c1.539-4.398-3.096-6.957-3.096-6.957s-.92 6.029 3.096 6.957z" id="path1904" style="fill:#fab825;stroke:#d54d15;stroke-width:.211668;stroke-miterlimit:4;stroke-dasharray:none;stroke-opacity:1"/><path d="M124.612 66.764c1.885-4.261-2.531-7.175-2.531-7.175s-1.402 5.927 2.531 7.175z" id="path1906" style="fill:#fab825;stroke:#d54d15;stroke-width:.211668;stroke-miterlimit:4;stroke-dasharray:none;stroke-opacity:1"/><path d="M124.812 71.164c2.687-3.797-1.056-7.54-1.056-7.54s-2.55 5.537 1.056 7.54z" id="path1908" style="fill:#fab825;stroke:#d54d15;stroke-width:.211668;stroke-miterlimit:4;stroke-dasharray:none;stroke-opacity:1"/><path d="M125.002 76.124c2.96-3.597-.501-7.594-.501-7.594s-2.95 5.326.501 7.594z" id="path1910" style="fill:#fab825;stroke:#d54d15;stroke-width:.211668;stroke-miterlimit:4;stroke-dasharray:none;stroke-opacity:1"/><path d="M124.052 81.224c3.679-2.859 1.175-7.521 1.175-7.521s-4.043 4.562-1.175 7.521z" id="path1912" style="fill:#fab825;stroke:#d54d15;stroke-width:.211668;stroke-miterlimit:4;stroke-dasharray:none;stroke-opacity:1"/><path d="M120.052 65.784c1.11-4.525-3.752-6.62-3.752-6.62s-.336 6.083 3.752 6.62z" id="path1914" style="fill:#fab825;stroke:#d54d15;stroke-width:.211668;stroke-miterlimit:4;stroke-dasharray:none;stroke-opacity:1"/><path d="M121.562 70.074c1.466-4.425-3.205-6.902-3.205-6.902s-.83 6.028 3.205 6.902z" id="path1916" style="fill:#fab825;stroke:#d54d15;stroke-width:.211668;stroke-miterlimit:4;stroke-dasharray:none;stroke-opacity:1"/><path d="M122.182 74.434c2.313-4.043-1.776-7.403-1.776-7.403s-2.003 5.755 1.776 7.403z" id="path1918" style="fill:#fab825;stroke:#d54d15;stroke-width:.211668;stroke-miterlimit:4;stroke-dasharray:none;stroke-opacity:1"/><path d="M122.302 79.354c2.604-3.86-1.23-7.511-1.23-7.511s-2.421 5.58 1.23 7.511z" id="path1920" style="fill:#fab825;stroke:#d54d15;stroke-width:.211668;stroke-miterlimit:4;stroke-dasharray:none;stroke-opacity:1"/><path d="M121.852 84.524c3.388-3.205.456-7.603.456-7.603s-3.597 4.926-.456 7.603z" id="path1922" style="fill:#fab825;stroke:#d54d15;stroke-width:.211668;stroke-miterlimit:4;stroke-dasharray:none;stroke-opacity:1"/><path d="M104.832 13.859c-1.703-4.334-6.884-3.25-6.884-3.25s3.223 5.162 6.884 3.25z" id="path1924" style="fill:#fab825;stroke:#d54d15;stroke-width:.211668;stroke-miterlimit:4;stroke-dasharray:none;stroke-opacity:1"/><path d="M108.972 16.363c-1.384-4.453-6.629-3.733-6.629-3.733s2.85 5.381 6.629 3.733z" id="path1926" style="fill:#fab825;stroke:#d54d15;stroke-width:.211668;stroke-miterlimit:4;stroke-dasharray:none;stroke-opacity:1"/><path d="M112.922 19.149c-1.065-4.535-6.346-4.198-6.346-4.198s2.459 5.573 6.346 4.198z" id="path1928" style="fill:#fab825;stroke:#d54d15;stroke-width:.211668;stroke-miterlimit:4;stroke-dasharray:none;stroke-opacity:1"/><path d="M116.782 22.308c-.728-4.607-6.02-4.662-6.02-4.662s2.04 5.746 6.02 4.662z" id="path1930" style="fill:#fab825;stroke:#d54d15;stroke-width:.211668;stroke-miterlimit:4;stroke-dasharray:none;stroke-opacity:1"/><path d="M119.902 25.25c-.437-4.644-5.709-5.026-5.709-5.026s1.666 5.855 5.709 5.026z" id="path1932" style="fill:#fab825;stroke:#d54d15;stroke-width:.211668;stroke-miterlimit:4;stroke-dasharray:none;stroke-opacity:1"/><path d="M123.272 28.884c-.1-4.662-5.336-5.436-5.336-5.436s1.247 5.964 5.336 5.436z" id="path1934" style="fill:#fab825;stroke:#d54d15;stroke-width:.211668;stroke-miterlimit:4;stroke-dasharray:none;stroke-opacity:1"/><path d="M110.752 22.819c-1.703-4.334-6.883-3.25-6.883-3.25s3.223 5.162 6.883 3.25z" id="path1936" style="fill:#fab825;stroke:#d54d15;stroke-width:.211668;stroke-miterlimit:4;stroke-dasharray:none;stroke-opacity:1"/><path d="M114.892 25.323c-1.384-4.443-6.63-3.733-6.63-3.733s2.85 5.381 6.63 3.733z" id="path1938" style="fill:#fab825;stroke:#d54d15;stroke-width:.211668;stroke-miterlimit:4;stroke-dasharray:none;stroke-opacity:1"/><path d="M118.842 28.104c-1.065-4.534-6.346-4.197-6.346-4.197s2.458 5.572 6.346 4.197z" id="path1940" style="fill:#fab825;stroke:#d54d15;stroke-width:.211668;stroke-miterlimit:4;stroke-dasharray:none;stroke-opacity:1"/><path d="M122.692 31.264c-.728-4.598-6.019-4.653-6.019-4.653s2.04 5.736 6.019 4.653z" id="path1942" style="fill:#fab825;stroke:#d54d15;stroke-width:.211668;stroke-miterlimit:4;stroke-dasharray:none;stroke-opacity:1"/><path d="M129.192 37.204c-.1-4.653-5.336-5.436-5.336-5.436s1.248 5.964 5.336 5.436z" id="path1944" style="fill:#fab825;stroke:#d54d15;stroke-width:.211668;stroke-miterlimit:4;stroke-dasharray:none;stroke-opacity:1"/><path d="M131.932 41.464c.446-4.635-4.671-6.01-4.671-6.01s.546 6.064 4.671 6.01z" id="path1946" style="fill:#fab825;stroke:#d54d15;stroke-width:.211668;stroke-miterlimit:4;stroke-dasharray:none;stroke-opacity:1"/><path d="M134.042 45.654c1.138-4.516-3.706-6.647-3.706-6.647s-.383 6.073 3.706 6.647z" id="path1948" style="fill:#fab825;stroke:#d54d15;stroke-width:.211668;stroke-miterlimit:4;stroke-dasharray:none;stroke-opacity:1"/><path d="M135.072 50.004c1.922-4.243-2.467-7.202-2.467-7.202s-1.457 5.91 2.467 7.202z" id="path1950" style="fill:#fab825;stroke:#d54d15;stroke-width:.211668;stroke-miterlimit:4;stroke-dasharray:none;stroke-opacity:1"/><path d="M136.192 54.834c2.221-4.097-1.93-7.366-1.93-7.366s-1.886 5.79 1.93 7.366z" id="path1952" style="fill:#fab825;stroke:#d54d15;stroke-width:.211668;stroke-miterlimit:4;stroke-dasharray:none;stroke-opacity:1"/><path d="M136.262 60.384c3.069-3.506-.273-7.612-.273-7.612s-3.105 5.236.273 7.612z" id="path1954" style="fill:#fab825;stroke:#d54d15;stroke-width:.211668;stroke-miterlimit:4;stroke-dasharray:none;stroke-opacity:1"/><path d="M111.102 26.124c-1.503-4.407-6.729-3.56-6.729-3.56s2.987 5.308 6.729 3.56z" id="path1956" style="fill:#fab825;stroke:#d54d15;stroke-width:.211668;stroke-miterlimit:4;stroke-dasharray:none;stroke-opacity:1"/><path d="M115.142 28.814c-1.184-4.498-6.456-4.034-6.456-4.034s2.595 5.509 6.456 4.034z" id="path1958" style="fill:#fab825;stroke:#d54d15;stroke-width:.211668;stroke-miterlimit:4;stroke-dasharray:none;stroke-opacity:1"/><path d="M118.952 31.774c-.856-4.58-6.146-4.489-6.146-4.489s2.194 5.682 6.146 4.489z" id="path1960" style="fill:#fab825;stroke:#d54d15;stroke-width:.211668;stroke-miterlimit:4;stroke-dasharray:none;stroke-opacity:1"/><path d="M122.662 35.114c-.519-4.635-5.8-4.926-5.8-4.926s1.775 5.827 5.8 4.926z" id="path1962" style="fill:#fab825;stroke:#d54d15;stroke-width:.211668;stroke-miterlimit:4;stroke-dasharray:none;stroke-opacity:1"/><path d="M125.672 37.644c-.227-4.653-5.481-5.281-5.481-5.281s1.402 5.927 5.481 5.281z" id="path1964" style="fill:#fab825;stroke:#d54d15;stroke-width:.211668;stroke-miterlimit:4;stroke-dasharray:none;stroke-opacity:1"/><path d="M128.872 41.344c.118-4.662-5.08-5.673-5.08-5.673s.973 6.02 5.08 5.673z" id="path1966" style="fill:#fab825;stroke:#d54d15;stroke-width:.211668;stroke-miterlimit:4;stroke-dasharray:none;stroke-opacity:1"/><path d="M131.412 45.724c.656-4.607-4.38-6.219-4.38-6.219s.255 6.082 4.38 6.219z" id="path1968" style="fill:#fab825;stroke:#d54d15;stroke-width:.211668;stroke-miterlimit:4;stroke-dasharray:none;stroke-opacity:1"/><path d="M113.012 31.944c-1.393-4.453-6.629-3.733-6.629-3.733s2.85 5.38 6.629 3.733z" id="path1970" style="fill:#fab825;stroke:#d54d15;stroke-width:.211668;stroke-miterlimit:4;stroke-dasharray:none;stroke-opacity:1"/><path d="M116.982 34.724c-1.075-4.535-6.355-4.198-6.355-4.198s2.458 5.573 6.355 4.198z" id="path1972" style="fill:#fab825;stroke:#d54d15;stroke-width:.211668;stroke-miterlimit:4;stroke-dasharray:none;stroke-opacity:1"/><path d="M120.732 37.774c-.747-4.598-6.037-4.635-6.037-4.635s2.058 5.737 6.037 4.635z" id="path1974" style="fill:#fab825;stroke:#d54d15;stroke-width:.211668;stroke-miterlimit:4;stroke-dasharray:none;stroke-opacity:1"/><path d="M124.352 41.204c-.41-4.644-5.682-5.063-5.682-5.063s1.63 5.864 5.682 5.063z" id="path1976" style="fill:#fab825;stroke:#d54d15;stroke-width:.211668;stroke-miterlimit:4;stroke-dasharray:none;stroke-opacity:1"/><path d="M127.292 43.814c-.11-4.662-5.345-5.418-5.345-5.418s1.257 5.955 5.345 5.418z" id="path1978" style="fill:#fab825;stroke:#d54d15;stroke-width:.211668;stroke-miterlimit:4;stroke-dasharray:none;stroke-opacity:1"/><path d="M130.412 47.584c.228-4.653-4.935-5.791-4.935-5.791s.81 6.028 4.935 5.791z" id="path1980" style="fill:#fab825;stroke:#d54d15;stroke-width:.211668;stroke-miterlimit:4;stroke-dasharray:none;stroke-opacity:1"/><path d="M132.842 52.034c.774-4.598-4.234-6.328-4.234-6.328s.118 6.09 4.234 6.328z" id="path1982" style="fill:#fab825;stroke:#d54d15;stroke-width:.211668;stroke-miterlimit:4;stroke-dasharray:none;stroke-opacity:1"/><path d="M133.892 57.664c2.231-4.097-1.93-7.367-1.93-7.367s-1.885 5.792 1.93 7.367z" id="path1984" style="fill:#fab825;stroke:#d54d15;stroke-width:.211668;stroke-miterlimit:4;stroke-dasharray:none;stroke-opacity:1"/><path d="M133.982 63.214c3.068-3.496-.273-7.603-.273-7.603s-3.104 5.236.273 7.603z" id="path1986" style="fill:#fab825;stroke:#d54d15;stroke-width:.211668;stroke-miterlimit:4;stroke-dasharray:none;stroke-opacity:1"/><path d="M136.152 71.444c-.283-3.096-.993-6.173-1.976-9.123 1.11-1.667 2.968-4.863 2.722-8.633-.482-7.64-5.08-18.32-10.06-27.554 6.819 8.095 11.226 17.42 13.95 27.982.472 1.83.163 5.463-.948 7.886z" id="path1988" style="fill:#fab825;stroke:#d54d15;stroke-width:.211668;stroke-miterlimit:4;stroke-dasharray:none;stroke-opacity:1"/><path d="M134.052 62.514c.036-.054.072-.119.118-.182zm-10.308-15.707c-2.085-5.099-3.842-8.604-3.842-8.604s.728.81 1.885 2.248c3.086 3.843 9.178 12.203 12.392 21.864.983 2.95 1.693 6.027 1.976 9.123.1 1.156.136 2.313.11 3.47 0 0-9.753 16.38-6.384 3.131 2.149-8.44-2.486-22.28-6.137-31.223v-.009z" id="path1990" style="fill:#fab825;stroke:#d54d15;stroke-width:.211668;stroke-miterlimit:4;stroke-dasharray:none;stroke-opacity:1"/></g><g id="g4336"><path d="M2.733 77.074c-4.462 12.739 3.67 24.504 3.67 24.504" fill="none" stroke="#221f20" stroke-miterlimit="10" stroke-width=".151" id="path1994" style="stroke-width:.52917;stroke-miterlimit:10;stroke-dasharray:none"/><path d="M141.172 77.074c4.461 12.739-3.67 24.504-3.67 24.504" fill="none" stroke="#221f20" stroke-miterlimit="10" stroke-width=".151" id="path1996" style="stroke-width:.52917;stroke-miterlimit:10;stroke-dasharray:none"/><path d="M25.888 107.004c2.221 1.967 5.336 4.707 7.202 6.346-.1-.51-.182-.883-.218-1.074a1.453 1.453 0 0 1-.037-.173.922.922 0 0 1 .137-.656c.492-.783 1.512-.893 2.622-.646.082-.947.1-2.058-.018-3.305-.173-1.758-.6-3.798-1.466-6.056-1.093-2.86-2.886-6.073-5.728-9.56-1.384 11.39-4.78 13.057-4.78 13.057.437.41 1.266 1.157 2.286 2.067z" id="path1998" style="fill:#a00;stroke:maroon;stroke-width:.52917;stroke-miterlimit:10;stroke-dasharray:none"/><path d="M6.403 101.584c3.533 4.68 12.82 5.563 22.681 5.399 9.861-.164 11.445 3.014 11.445 3.014l7.95 22.527c.718 2.03-3.388.182-5.237.355-7.612.728-13.584-.246-18.164-7.968-2.559-4.307-8.022-8.012-11.072-10.234-3.115-2.276-7.203-9.743-7.604-13.093z" id="path2000" style="fill:#a00;stroke:maroon;stroke-width:.52917;stroke-miterlimit:10;stroke-dasharray:none"/><path d="M24.231 70.834s-.128 2.367-.62 4.443a37.403 37.403 0 0 1-2.057 6.894c-1.639 3.996-4.261 8.276-8.459 11.592 5.472 6.801 10.507 11.172 10.507 11.172s3.396-1.666 4.78-13.057c1.394-11.391-4.151-21.043-4.151-21.043z" id="path2002" style="fill:#a00;stroke:maroon;stroke-width:.52917;stroke-miterlimit:10;stroke-dasharray:none"/><path d="M13.095 93.764c4.197-3.315 6.82-7.595 8.459-11.592 0 0-12.292-7.285-18.793-24.94 0 0-.829.992-1.548 2.95a70.914 70.914 0 0 0-.928 8.414c.254 2.249.937 4.972 2.449 8.486 2.686 6.274 6.62 12.047 10.362 16.682z" id="path2004" style="fill:#a00;stroke:maroon;stroke-width:.52917;stroke-miterlimit:10;stroke-dasharray:none"/><path d="M13.095 93.764C9.353 89.129 5.42 83.356 2.733 77.082c-1.02 2.914-1.384 5.773-1.338 8.46.173 9.041 5.008 16.043 5.008 16.043 3.14 4.17 10.862 5.327 19.486 5.418a155 155 0 0 1-2.286-2.067s-5.035-4.37-10.508-11.172z" id="path2006" style="fill:#a00;stroke:maroon;stroke-width:.52917;stroke-miterlimit:10;stroke-dasharray:none"/><path d="M119.672 70.834s.127 2.367.619 4.443a37.45 37.45 0 0 0 2.058 6.894c1.639 3.996 4.26 8.276 8.46 11.592-5.474 6.801-10.509 11.172-10.509 11.172s-3.396-1.666-4.78-13.057c-1.393-11.391 4.152-21.043 4.152-21.043z" id="path2008" style="fill:#a00;stroke:maroon;stroke-width:.52917;stroke-miterlimit:10;stroke-dasharray:none"/><path d="M130.812 93.764c-4.198-3.315-6.82-7.595-8.46-11.592 0 0 12.293-7.285 18.794-24.94 0 0 .828.992 1.548 2.95a71.19 71.19 0 0 1 .928 8.414c-.255 2.249-.947 4.972-2.45 8.486-2.685 6.274-6.627 12.047-10.36 16.682z" id="path2010" style="fill:#a00;stroke:maroon;stroke-width:.52917;stroke-miterlimit:10;stroke-dasharray:none"/><path d="M118.012 107.004a2771.828 2771.828 0 0 1-7.203 6.346c.1-.51.182-.883.219-1.074.018-.064.028-.118.037-.173a.92.92 0 0 0-.138-.656c-.491-.783-1.51-.893-2.621-.646-.083-.947-.1-2.058.018-3.305.173-1.758.6-3.798 1.466-6.056 1.093-2.86 2.886-6.073 5.727-9.56 1.384 11.39 4.78 13.057 4.78 13.057-.437.41-1.265 1.157-2.285 2.067z" id="path2012" style="fill:#a00;stroke:maroon;stroke-width:.52917;stroke-miterlimit:10;stroke-dasharray:none"/><path d="M130.812 93.764c3.733-4.635 7.676-10.408 10.362-16.682a23.984 23.984 0 0 1 1.329 8.46c-.164 9.041-4.998 16.044-4.998 16.044-3.142 4.17-10.863 5.326-19.486 5.417 1.02-.91 1.848-1.656 2.285-2.067 0 0 5.035-4.37 10.508-11.173z" stroke-width=".567" id="path2016" style="fill:#a00;stroke:maroon;stroke-width:.52917;stroke-miterlimit:10;stroke-dasharray:none"/><path d="M137.502 101.584c-3.533 4.68-12.821 5.563-22.682 5.399-9.861-.164-11.445 3.014-11.445 3.014l-7.949 22.527c-.72 2.03 3.387.182 5.236.355 7.612.728 13.585-.246 18.165-7.968 2.559-4.307 8.021-8.012 11.072-10.234 3.114-2.276 7.202-9.743 7.603-13.093z" stroke-width=".567" id="path2018" style="fill:#a00;stroke:maroon;stroke-width:.52917;stroke-miterlimit:10;stroke-dasharray:none"/><path d="M71.582 117.594c-.525-.008 0 0 0 0s-27.272-.922-30.559-1.131c-4.552-.293-6.528-2.259-6.729-2.424-1.12-.892-1.785-1.875-1.32-2.595.728-1.165 2.64-.837 4.27-.063 1.64.775 3.743.182 3.287-1.384-.336-1.147-4.798-3.706-14.64-2.995-4.217.3-10.436-.528-14.005-1.822-4.243-1.539-5.481-3.596-5.481-3.596m65.177 16.01s28.015-.923 31.294-1.132c4.561-.292 6.538-2.258 6.738-2.423 1.12-.892 1.776-1.876 1.32-2.595-.728-1.165-2.64-.837-4.27-.063-1.64.774-3.742.182-3.287-1.384.337-1.148 4.799-3.706 14.642-2.996 4.215.3 10.435-.528 14.004-1.821 4.243-1.539 5.482-3.597 5.482-3.597" fill="none" stroke="maroon" stroke-miterlimit="10" stroke-width=".578" id="path2022" style="stroke-width:.52917;stroke-miterlimit:10;stroke-dasharray:none"/><path d="M42.861 116.604c-2.823-.182-5.09-.583-6.191-1.102-1.795-.847-3.506-2.158-3.798-3.232.036.19.119.564.22 1.074.5 2.568 1.62 8.65 2.03 14.114.172 2.258.227 3.978.318 5.264.037.582.082 1.065.146 1.484.1.7.264 1.192.546 1.502 1.366 1.53 4.662 2.495 8.541 3.014 3.833.519 8.231.6 11.937.364 3.751-.246 8.423-.337 12.137-.364h.31c1.01-.008 1.948-.008 2.767-.008h.255c.82 0 1.758 0 2.768.008h.31c3.714.027 8.385.118 12.136.364 3.706.237 8.104.155 11.928-.364 3.888-.52 7.184-1.484 8.55-3.014.282-.31.446-.802.546-1.502.064-.42.11-.902.146-1.484.09-1.285.145-3.006.318-5.264.41-5.463 1.53-11.546 2.03-14.114.101-.51.183-.883.22-1.074-.3 1.074-2.004 2.385-3.806 3.232-1.093.52-3.36.92-6.183 1.102-3.077.2-5.18.346-10.389-.346-5.217-.692-17.822-.83-17.822-.83l-1.63.004s-12.736.134-17.953.826c-5.216.693-7.31.547-10.389.346z" fill="#b61c1c" stroke="maroon" stroke-miterlimit="10" stroke-width=".578" id="path2024" style="fill:#a00;stroke-width:.52917;stroke-miterlimit:10;stroke-dasharray:none"/><g id="g4116"><path d="m47.808 125.197-.974.083a300.567 300.567 0 0 0-1.61-1.742l-.335.047.112 1.201c.01.106.024.193.04.259.02.066.052.118.095.157.043.036.1.059.172.07.072.008.166.01.283.006l.01.112c-.556.05-1.113.103-1.67.157l-.011-.111c.112-.022.2-.045.266-.069a.292.292 0 0 0 .15-.106.348.348 0 0 0 .052-.181 2.4 2.4 0 0 0-.014-.31l-.25-2.625a1.616 1.616 0 0 0-.04-.254.3.3 0 0 0-.085-.152.315.315 0 0 0-.169-.07 1.77 1.77 0 0 0-.277-.016l-.012-.122c.563-.055 1.125-.108 1.688-.16.3-.027.572-.01.815.05.246.057.432.148.558.273a.772.772 0 0 1 .191.273c.045.103.073.217.083.34.024.277-.044.503-.205.678-.156.174-.425.317-.804.43a294 294 0 0 1 1.383 1.432.866.866 0 0 0 .256.187c.081.033.178.05.292.05l.01.112zm-2.94-1.835c.142-.017.264-.033.366-.05.106-.017.198-.036.275-.057a1.544 1.544 0 0 0 .417-.198.621.621 0 0 0 .232-.29.905.905 0 0 0 .054-.417c-.025-.287-.134-.488-.328-.603-.19-.119-.482-.16-.875-.124-.121.01-.2.034-.237.07-.036.032-.05.09-.043.175l.14 1.494z" id="path2030" style="fill:#fab825;stroke:none;stroke-width:.123032;stroke-miterlimit:4;stroke-dasharray:none;stroke-opacity:1"/><path d="M51.19 124.939c-1.087.078-2.174.163-3.261.254l-.01-.112c.11-.016.197-.036.262-.06a.312.312 0 0 0 .152-.097.311.311 0 0 0 .067-.167 1.316 1.316 0 0 0 0-.262l-.221-2.703a1.3 1.3 0 0 0-.043-.259.28.28 0 0 0-.088-.153.35.35 0 0 0-.173-.071 1.474 1.474 0 0 0-.271-.015l-.01-.123c1.083-.09 2.167-.175 3.251-.254l.074.873-.144.01a1.712 1.712 0 0 0-.12-.323.434.434 0 0 0-.17-.185.57.57 0 0 0-.27-.071 3.291 3.291 0 0 0-.42.01l-.826.064c-.082.007-.136.023-.163.05-.023.027-.031.085-.024.174l.107 1.346c.311-.025.622-.05.934-.073.124-.01.225-.024.302-.044a.395.395 0 0 0 .18-.094.387.387 0 0 0 .1-.184c.02-.076.035-.178.047-.303l.145-.011.104 1.41-.144.011a2.08 2.08 0 0 0-.092-.298.371.371 0 0 0-.12-.168.365.365 0 0 0-.192-.071 1.63 1.63 0 0 0-.311.003l-.933.073.12 1.5c.004.06.011.105.02.132.01.028.024.049.043.061.03.016.098.026.205.032.11.002.24-.003.388-.014l.17-.013a3.86 3.86 0 0 0 .538-.073c.146-.032.269-.083.367-.15a.911.911 0 0 0 .258-.266c.07-.108.137-.249.199-.42.058-.005.117-.01.175-.013l-.202 1.047z" id="path2032" style="fill:#fab825;stroke:none;stroke-width:.123032;stroke-miterlimit:4;stroke-dasharray:none;stroke-opacity:1"/><path d="M52.725 124.172c.007.11.02.2.04.27a.311.311 0 0 0 .09.155c.045.036.105.06.18.074.075.009.173.012.294.008l.007.112c-.565.036-1.13.075-1.695.115l-.008-.112c.115-.019.205-.04.267-.062a.29.29 0 0 0 .147-.1.317.317 0 0 0 .052-.181 2.405 2.405 0 0 0-.006-.31l-.181-2.63a1.66 1.66 0 0 0-.035-.26.272.272 0 0 0-.08-.15.312.312 0 0 0-.162-.074c-.069-.013-.16-.021-.27-.024l-.01-.123c.54-.038 1.078-.075 1.617-.11.304-.02.581.005.83.075.252.07.445.17.579.302.165.171.254.38.269.625a1.121 1.121 0 0 1-.529 1.006 1.56 1.56 0 0 1-.444.183 3.374 3.374 0 0 1-.61.087l-.208.014-.208.003.074 1.108zm-.09-1.358c.07.003.13.003.176.004.05 0 .105-.002.166-.006.707-.046 1.043-.366 1.006-.963-.02-.316-.132-.54-.338-.674-.203-.133-.513-.187-.932-.159-.082.005-.135.023-.158.054-.023.026-.032.082-.027.167l.106 1.577z" id="path2034" style="fill:#fab825;stroke:none;stroke-width:.123032;stroke-miterlimit:4;stroke-dasharray:none;stroke-opacity:1"/><path d="M58.533 122.942c.011.234.005.43-.02.588a1.39 1.39 0 0 1-.129.429c-.22.427-.663.657-1.327.691-.516.027-.905-.077-1.167-.316-.261-.238-.408-.622-.439-1.151l-.109-1.897a1.337 1.337 0 0 0-.037-.265.28.28 0 0 0-.084-.156.288.288 0 0 0-.166-.07 1.652 1.652 0 0 0-.292-.02l-.007-.123c.578-.035 1.157-.067 1.736-.098l.006.122a2.145 2.145 0 0 0-.298.06.318.318 0 0 0-.163.088.31.31 0 0 0-.071.165 1.66 1.66 0 0 0-.002.262l.108 1.945c.01.192.032.35.064.472.031.123.076.231.135.324.182.28.487.407.915.384.23-.012.433-.065.61-.159a.848.848 0 0 0 .375-.366c.045-.098.074-.21.085-.335.015-.129.018-.298.008-.508l-.079-1.642a2.62 2.62 0 0 0-.04-.373.497.497 0 0 0-.096-.225.325.325 0 0 0-.178-.114 1.092 1.092 0 0 0-.287-.034l-.006-.122c.473-.024.946-.046 1.42-.068l.005.123c-.125.02-.226.044-.304.072a.37.37 0 0 0-.172.126.5.5 0 0 0-.07.228 3.47 3.47 0 0 0 .002.374l.074 1.589z" id="path2036" style="fill:#fab825;stroke:none;stroke-width:.123032;stroke-miterlimit:4;stroke-dasharray:none;stroke-opacity:1"/><path d="M60.923 120.35c.534-.02.94.053 1.214.218.275.165.417.419.429.76a.965.965 0 0 1-.053.354.666.666 0 0 1-.173.268 1.916 1.916 0 0 1-.11.089.804.804 0 0 1-.273.132c-.057.02-.124.042-.201.066.1.018.186.036.258.055.076.019.143.042.2.068.059.023.111.05.159.08.047.03.094.066.142.107a.88.88 0 0 1 .322.679c.005.17-.024.325-.087.462a.979.979 0 0 1-.28.356 1.431 1.431 0 0 1-.455.23 2.32 2.32 0 0 1-.608.097c-.675.025-1.35.053-2.026.083l-.005-.112c.123-.01.222-.022.296-.04a.391.391 0 0 0 .176-.093.292.292 0 0 0 .079-.164c.01-.071.014-.162.01-.273l-.116-2.709a1.365 1.365 0 0 0-.033-.27.265.265 0 0 0-.087-.158.36.36 0 0 0-.186-.072 2.475 2.475 0 0 0-.308-.018l-.005-.123c.573-.025 1.147-.05 1.72-.071zm-.368 3.578c.004.1.033.166.088.2.054.03.152.042.294.036.106-.004.2-.009.281-.016.085-.01.16-.022.228-.035a1.092 1.092 0 0 0 .346-.14c.242-.152.358-.391.347-.718-.013-.384-.198-.638-.556-.76a1.7 1.7 0 0 0-.414-.07 2.869 2.869 0 0 0-.29-.01 5.7 5.7 0 0 0-.385.004l.061 1.509zm.518-1.777c.288-.011.507-.082.656-.212.152-.133.224-.321.216-.563-.01-.277-.109-.482-.296-.614-.188-.132-.461-.192-.82-.178l-.268.01c-.093.004-.138.067-.133.188l.056 1.392.589-.023z" id="path2038" style="fill:#fab825;stroke:none;stroke-width:.123032;stroke-miterlimit:4;stroke-dasharray:none;stroke-opacity:1"/><path d="m66.924 123.165-.278 1.063c-1.085.02-2.17.048-3.254.081l-.003-.112c.11-.01.197-.025.264-.045.07-.02.123-.05.157-.09a.312.312 0 0 0 .075-.163c.012-.068.017-.155.014-.262l-.078-2.71a1.302 1.302 0 0 0-.03-.261.28.28 0 0 0-.08-.158.351.351 0 0 0-.168-.08 1.47 1.47 0 0 0-.27-.03l-.004-.122c.575-.018 1.151-.034 1.727-.048l.003.122c-.122.01-.22.025-.295.045a.303.303 0 0 0-.17.09.31.31 0 0 0-.076.162 1.3 1.3 0 0 0-.015.262l.077 2.882a.475.475 0 0 0 .02.133.15.15 0 0 0 .082.072c.039.017.092.028.16.033.067.002.158.001.271-.002l.404-.01c.258-.006.472-.04.64-.105a.991.991 0 0 0 .42-.286c.042-.05.081-.114.119-.19.041-.075.086-.165.133-.269.052 0 .103-.002.155-.003z" id="path2040" style="fill:#fab825;stroke:none;stroke-width:.123032;stroke-miterlimit:4;stroke-dasharray:none;stroke-opacity:1"/><path d="M67.66 120.841a1.368 1.368 0 0 0-.026-.271.265.265 0 0 0-.083-.16.36.36 0 0 0-.184-.076 2.629 2.629 0 0 0-.313-.027l-.002-.123c.608-.01 1.216-.02 1.825-.026l.001.122c-.129.005-.233.017-.311.036a.36.36 0 0 0-.182.083.295.295 0 0 0-.084.166 1.33 1.33 0 0 0-.018.267l.037 2.712c.002.11.01.2.025.271.019.068.05.12.092.16a.39.39 0 0 0 .182.082c.078.014.18.021.303.023l.001.113c-.6.007-1.2.015-1.8.026l-.002-.112c.128-.006.23-.017.308-.032a.353.353 0 0 0 .174-.088.292.292 0 0 0 .082-.162c.014-.068.02-.159.017-.272l-.042-2.712z" id="path2042" style="fill:#fab825;stroke:none;stroke-width:.123032;stroke-miterlimit:4;stroke-dasharray:none;stroke-opacity:1"/><path d="M71.53 120.136c.537-.002 1.074-.001 1.61 0v.123a2.152 2.152 0 0 0-.264.031.682.682 0 0 0-.204.064 1.037 1.037 0 0 0-.205.138 5.243 5.243 0 0 0-.258.235c-.387.383-.772.766-1.156 1.15.475.505.947 1.012 1.417 1.519.139.15.25.267.335.353.088.085.164.151.228.198a.593.593 0 0 0 .186.091c.056.01.124.018.201.022v.112c-.614-.003-1.228-.003-1.842-.002v-.112c.054-.003.11-.008.164-.01.17-.004.255-.05.255-.135a.353.353 0 0 0-.059-.154 1.952 1.952 0 0 0-.165-.235 6.647 6.647 0 0 0-.572-.644c-.215-.213-.432-.426-.649-.638l-.154.13.008 1.147c0 .11.007.199.018.267.014.067.04.12.075.16.04.038.094.066.165.084.075.014.17.024.287.03v.112c-.567.003-1.136.007-1.704.013v-.112c.12-.01.215-.022.286-.04a.291.291 0 0 0 .159-.092.352.352 0 0 0 .072-.183c.014-.078.02-.181.019-.31l-.023-2.636c0-.107-.008-.194-.023-.261a.28.28 0 0 0-.077-.16.35.35 0 0 0-.168-.084 1.622 1.622 0 0 0-.285-.034v-.123c.58-.006 1.162-.01 1.743-.013v.123c-.125.008-.225.02-.3.039a.318.318 0 0 0-.167.08.31.31 0 0 0-.08.161c-.01.068-.014.157-.014.267l.008 1.25c.358-.33.717-.66 1.078-.988.171-.157.292-.283.364-.38.075-.096.113-.178.113-.245 0-.06-.02-.105-.06-.134-.036-.028-.102-.046-.199-.053h-.161v-.122z" id="path2044" style="fill:#fab825;stroke:none;stroke-width:.123032;stroke-miterlimit:4;stroke-dasharray:none;stroke-opacity:1"/><path d="M79.002 124.25c-.326-.008-.651-.015-.977-.021-.468-.636-.94-1.27-1.415-1.904-.112.003-.225.008-.337.01l-.017 1.207c-.001.107.003.194.013.262a.345.345 0 0 0 .077.166c.038.04.093.07.164.088.07.015.164.027.28.036l-.001.112a275.88 275.88 0 0 0-1.678-.021l.001-.112c.114-.01.204-.023.271-.04a.292.292 0 0 0 .16-.09c.037-.041.06-.1.072-.175a2.41 2.41 0 0 0 .02-.309l.03-2.636c.001-.107-.003-.193-.012-.257a.301.301 0 0 0-.068-.16.316.316 0 0 0-.16-.088 1.777 1.777 0 0 0-.275-.045l.001-.123c.565.006 1.13.013 1.696.022.301.005.57.05.805.136.239.083.414.194.526.331a.77.77 0 0 1 .16.292c.034.107.05.223.047.348-.006.277-.098.494-.276.65-.175.157-.457.27-.847.342.41.523.817 1.047 1.223 1.572a.866.866 0 0 0 .234.214c.077.04.172.068.285.081l-.003.112zm-2.726-2.138a9.57 9.57 0 0 0 .37-.011c.107-.005.2-.015.278-.028a1.562 1.562 0 0 0 .436-.153.621.621 0 0 0 .262-.261.905.905 0 0 0 .099-.41c.005-.288-.082-.5-.263-.634-.176-.139-.462-.211-.857-.217-.121-.002-.202.013-.242.044-.04.028-.06.085-.062.17l-.02 1.5z" id="path2046" style="fill:#fab825;stroke:none;stroke-width:.123032;stroke-miterlimit:4;stroke-dasharray:none;stroke-opacity:1"/><path d="M83.331 124.388c-.514-.02-1.029-.04-1.543-.056l.003-.112.133.004c.035-.003.064-.005.085-.008l.064-.014a.43.43 0 0 0 .054-.025.184.184 0 0 0 .066-.062.16.16 0 0 0 .03-.084c.003-.1-.03-.24-.103-.42l-.235-.59c-.53-.018-1.06-.035-1.589-.05l-.302.702c-.015.039-.028.08-.04.122a.698.698 0 0 0-.014.117.21.21 0 0 0 .09.19c.063.044.169.068.317.072l-.003.112c-.402-.011-.803-.022-1.205-.031l.003-.112a.595.595 0 0 0 .192-.033.41.41 0 0 0 .163-.13c.055-.07.114-.167.177-.294.068-.13.152-.306.254-.527.448-.985.9-1.968 1.356-2.951.04 0 .079.003.118.003.475 1.168.944 2.338 1.406 3.509.046.115.085.208.118.277a.779.779 0 0 0 .11.164c.038.037.08.063.125.08a.79.79 0 0 0 .174.033l-.004.112zm-1.518-1.615a401.41 401.41 0 0 0-.652-1.703c-.253.553-.506 1.106-.756 1.66.47.013.939.028 1.408.043z" id="path2048" style="fill:#fab825;stroke:none;stroke-width:.123032;stroke-miterlimit:4;stroke-dasharray:none;stroke-opacity:1"/><path d="M86.069 120.463c.536.025 1.071.053 1.607.081l-.007.123a2.303 2.303 0 0 0-.265.018.683.683 0 0 0-.207.053 1.04 1.04 0 0 0-.211.128c-.071.054-.161.127-.27.222-.406.362-.81.726-1.212 1.09.449.528.895 1.058 1.338 1.588.13.157.236.28.317.37.084.09.156.159.217.208.065.05.125.084.181.101.056.014.123.025.2.032l-.006.112c-.613-.033-1.226-.065-1.839-.094l.005-.112.165-.003c.17.005.257-.035.261-.121a.355.355 0 0 0-.05-.157 1.953 1.953 0 0 0-.153-.243 6.643 6.643 0 0 0-.538-.672l-.617-.67-.16.122-.05 1.146c-.006.11-.004.2.004.267a.337.337 0 0 0 .067.164c.037.04.09.071.16.092.074.018.17.033.285.045l-.005.112c-.567-.026-1.135-.05-1.702-.073l.004-.112c.12-.003.217-.01.288-.026a.292.292 0 0 0 .163-.084.353.353 0 0 0 .082-.178c.017-.078.029-.18.034-.308l.11-2.635c.004-.106.001-.194-.01-.262a.279.279 0 0 0-.069-.163.352.352 0 0 0-.163-.092 1.626 1.626 0 0 0-.284-.049l.006-.123c.58.024 1.161.048 1.742.075l-.006.123a1.835 1.835 0 0 0-.302.023.318.318 0 0 0-.17.073.31.31 0 0 0-.088.156 1.767 1.767 0 0 0-.028.266l-.055 1.248c.374-.311.75-.622 1.126-.931.18-.149.307-.269.383-.361.08-.093.122-.172.125-.24.003-.06-.015-.106-.053-.136-.034-.03-.1-.051-.196-.063l-.161-.008.006-.123z" id="path2050" style="fill:#fab825;stroke:none;stroke-width:.123032;stroke-miterlimit:4;stroke-dasharray:none;stroke-opacity:1"/><path d="M92.275 120.953a.781.781 0 0 0-.223.022.623.623 0 0 0-.196.1c-.064.045-.135.11-.212.193-.074.08-.162.185-.264.314-.332.438-.663.876-.993 1.315l-.075 1.188a1.52 1.52 0 0 0 .003.278c.01.069.035.124.075.166a.396.396 0 0 0 .185.092c.08.02.188.035.322.048l-.008.111c-.616-.04-1.232-.079-1.849-.115l.007-.112c.138 0 .249-.003.33-.013a.334.334 0 0 0 .187-.08.308.308 0 0 0 .09-.175 1.85 1.85 0 0 0 .04-.313l.065-1.055c-.24-.405-.482-.81-.726-1.215-.14-.225-.256-.403-.345-.533a2.101 2.101 0 0 0-.225-.301.512.512 0 0 0-.368-.176l.007-.122c.572.031 1.143.064 1.715.1l-.008.122-.15-.01c-.19 0-.289.051-.295.154a.502.502 0 0 0 .09.284c.276.467.55.935.822 1.403.319-.44.639-.879.96-1.318a.402.402 0 0 0 .101-.218c.005-.07-.022-.122-.08-.155-.06-.036-.17-.059-.33-.07l.007-.122 1.348.091-.008.122z" id="path2052" style="fill:#fab825;stroke:none;stroke-width:.123032;stroke-miterlimit:4;stroke-dasharray:none;stroke-opacity:1"/><path d="M96.389 125.197c-.513-.044-1.026-.087-1.54-.128l.01-.112.132.01.086-.002a.782.782 0 0 1 .064-.011.41.41 0 0 0 .055-.022.182.182 0 0 0 .07-.059.16.16 0 0 0 .033-.083c.007-.1-.02-.24-.083-.424l-.208-.6c-.528-.043-1.056-.084-1.584-.124l-.334.687a1.246 1.246 0 0 0-.047.12.658.658 0 0 0-.019.116.211.211 0 0 0 .082.194c.06.047.165.076.313.087l-.009.112c-.4-.03-.8-.06-1.201-.088l.007-.112a.574.574 0 0 0 .194-.023.409.409 0 0 0 .168-.122 1.78 1.78 0 0 0 .191-.286c.074-.127.166-.298.278-.515.493-.963.99-1.924 1.492-2.884l.118.009c.42 1.189.834 2.38 1.24 3.57.04.118.075.212.105.282.033.07.068.127.103.17a.335.335 0 0 0 .12.085.792.792 0 0 0 .173.041l-.01.112zm-1.441-1.684c-.19-.577-.38-1.154-.572-1.731a385.6 385.6 0 0 0-.833 1.622c.468.035.937.072 1.405.11z" id="path2054" style="fill:#fab825;stroke:none;stroke-width:.123032;stroke-miterlimit:4;stroke-dasharray:none;stroke-opacity:1"/><path d="M97.973 121.547a2.745 2.745 0 0 0-.426-.011.582.582 0 0 0-.278.088.612.612 0 0 0-.187.225 2.602 2.602 0 0 0-.147.389c-.05-.004-.1-.01-.15-.013l.127-1.029c1.152.1 2.303.207 3.453.32l-.064 1.035-.15-.015a2.206 2.206 0 0 0-.078-.41.569.569 0 0 0-.137-.255.544.544 0 0 0-.257-.137 2.798 2.798 0 0 0-.426-.068l-.327-.031-.292 3.109c-.01.11-.011.199-.003.267.008.069.03.125.064.167a.386.386 0 0 0 .167.102c.076.021.175.042.298.06l-.01.112c-.585-.056-1.17-.11-1.755-.163l.01-.111c.124.004.223.003.299-.005a.326.326 0 0 0 .177-.075.335.335 0 0 0 .097-.18 1.81 1.81 0 0 0 .049-.305l.278-3.035-.332-.03z" id="path2056" style="fill:#fab825;stroke:none;stroke-width:.123032;stroke-miterlimit:4;stroke-dasharray:none;stroke-opacity:1"/><path d="m48.331 134.887-.135.007a613.062 613.062 0 0 0-2.56-4.87l.21 3.656c.014.234.035.425.065.572a.816.816 0 0 0 .154.335.525.525 0 0 0 .272.168c.113.031.257.047.432.048l.01.168c-.708.039-1.416.08-2.123.122l-.01-.167c.184-.027.33-.06.44-.098a.483.483 0 0 0 .25-.199.75.75 0 0 0 .107-.35c.013-.15.012-.342-.002-.575l-.214-3.689a2 2 0 0 0-.055-.396.396.396 0 0 0-.134-.232.48.48 0 0 0-.264-.104 2.694 2.694 0 0 0-.452-.03l-.011-.183a475.05 475.05 0 0 1 1.813-.105c.79 1.493 1.572 2.988 2.348 4.484a632.887 632.887 0 0 1 1.8-4.699c.606-.028 1.21-.056 1.815-.082l.008.184c-.17.018-.306.042-.407.073a.52.52 0 0 0-.235.139.463.463 0 0 0-.11.244 2.585 2.585 0 0 0-.006.392l.183 4.05c.007.159.023.289.05.389.025.1.065.178.12.234.062.056.143.095.244.117.107.022.243.034.407.038l.007.167c-.845.037-1.69.076-2.535.117l-.009-.167c.18-.02.321-.045.426-.077a.487.487 0 0 0 .247-.147.527.527 0 0 0 .098-.277c.016-.117.02-.272.01-.463l-.194-4.121a624.77 624.77 0 0 0-2.06 5.327z" id="path2060" style="fill:#fab825;stroke:none;stroke-width:.123032;stroke-miterlimit:4;stroke-dasharray:none;stroke-opacity:1"/><path d="M59 134.453c-.77.022-1.539.046-2.308.072l-.006-.167.199-.007c.052-.007.094-.014.126-.02a1.27 1.27 0 0 1 .094-.027.556.556 0 0 0 .078-.043.274.274 0 0 0 .093-.099.24.24 0 0 0 .035-.129c-.005-.148-.07-.354-.195-.616l-.41-.856c-.792.026-1.583.055-2.373.086l-.38 1.077c-.019.06-.035.121-.048.185a.991.991 0 0 0-.01.176.315.315 0 0 0 .155.274c.097.06.257.085.48.077l.006.167c-.6.023-1.2.048-1.8.073l-.006-.167a.875.875 0 0 0 .283-.068.61.61 0 0 0 .23-.21c.074-.109.153-.261.235-.456.087-.2.195-.471.325-.812a646.893 646.893 0 0 1 1.725-4.538l.177-.007c.824 1.696 1.64 3.393 2.448 5.093.08.168.147.301.203.4.061.1.122.178.182.235a.5.5 0 0 0 .194.106c.074.019.162.03.263.032l.004.168zm-2.427-2.255c-.379-.825-.76-1.65-1.143-2.475-.322.85-.642 1.7-.96 2.551.7-.027 1.402-.052 2.103-.076z" id="path2062" style="fill:#fab825;stroke:none;stroke-width:.123032;stroke-miterlimit:4;stroke-dasharray:none;stroke-opacity:1"/><path d="m65.027 134.318-1.459.025a466.948 466.948 0 0 0-2.224-2.762l-.502.036.045 1.803c.004.16.015.29.033.39.024.1.066.182.126.245.06.057.142.097.249.121.106.02.247.032.421.038l.004.168c-.835.02-1.67.04-2.506.064l-.004-.167c.168-.02.303-.046.402-.075a.436.436 0 0 0 .235-.142.52.52 0 0 0 .096-.266c.013-.118.016-.272.011-.464l-.105-3.94a2.409 2.409 0 0 0-.035-.382.45.45 0 0 0-.11-.237.472.472 0 0 0-.245-.12 2.662 2.662 0 0 0-.411-.053l-.005-.184a464.02 464.02 0 0 1 2.53-.065c.45-.01.853.042 1.21.158.36.11.629.264.804.463.114.12.2.262.256.426.056.158.086.33.09.517.007.415-.118.744-.374.989-.251.244-.666.43-1.243.56.642.757 1.28 1.516 1.916 2.277.13.146.25.248.363.305.117.056.26.091.43.104l.003.168zm-4.193-3.036c.213-.01.396-.023.55-.037.16-.014.298-.034.414-.058a2.319 2.319 0 0 0 .642-.254.928.928 0 0 0 .375-.406c.087-.183.129-.388.124-.617-.009-.43-.151-.742-.428-.933-.272-.197-.702-.288-1.291-.274-.182.004-.302.03-.36.08-.057.044-.085.13-.082.258l.056 2.241z" id="path2064" style="fill:#fab825;stroke:none;stroke-width:.123032;stroke-miterlimit:4;stroke-dasharray:none;stroke-opacity:1"/><path d="m69.718 131.007-.01-1.771c-.001-.165-.012-.295-.034-.39a.42.42 0 0 0-.114-.24.43.43 0 0 0-.242-.118 2.915 2.915 0 0 0-.426-.06l-.001-.184c.85-.006 1.698-.01 2.548-.012v.184a2.91 2.91 0 0 0-.426.064.475.475 0 0 0-.248.12.45.45 0 0 0-.104.24 2.483 2.483 0 0 0-.023.392l.015 4.053c0 .16.009.29.025.391a.46.46 0 0 0 .12.231c.058.059.138.1.238.127.106.027.244.047.413.063v.168c-.838.002-1.676.006-2.514.011v-.167c.174-.012.314-.03.42-.051a.436.436 0 0 0 .237-.137.536.536 0 0 0 .11-.28c.02-.117.03-.272.028-.463l-.01-1.772c-.923.005-1.846.013-2.769.024l.022 1.883c.002.16.011.29.028.39a.46.46 0 0 0 .122.23c.059.059.141.1.247.126.106.025.244.045.414.06l.002.167c-.841.009-1.682.019-2.523.032l-.002-.168c.18-.013.322-.031.427-.054a.436.436 0 0 0 .237-.14.536.536 0 0 0 .107-.28 3.59 3.59 0 0 0 .017-.463l-.053-3.942a1.872 1.872 0 0 0-.037-.39.42.42 0 0 0-.116-.238.43.43 0 0 0-.243-.116 2.91 2.91 0 0 0-.426-.058l-.003-.183c.852-.013 1.703-.024 2.555-.032l.002.183c-.176.018-.318.04-.425.068a.475.475 0 0 0-.248.123.501.501 0 0 0-.11.24 2.484 2.484 0 0 0-.019.392l.02 1.771c.925-.01 1.849-.018 2.773-.024z" id="path2066" style="fill:#fab825;stroke:none;stroke-width:.123032;stroke-miterlimit:4;stroke-dasharray:none;stroke-opacity:1"/><path d="M78.047 134.298c-.77-.01-1.54-.017-2.309-.023l.001-.167c.018 0 .18 0 .199.002.053-.005.095-.01.127-.015l.095-.024a.549.549 0 0 0 .08-.039.274.274 0 0 0 .096-.095.24.24 0 0 0 .04-.127c.002-.149-.054-.357-.169-.624l-.375-.873a481.66 481.66 0 0 0-2.373-.012l-.424 1.06c-.022.059-.04.12-.056.184a.99.99 0 0 0-.016.175c0 .123.047.216.142.28.095.064.254.096.476.097v.167c-.6-.002-1.2-.002-1.801-.002v-.167a.863.863 0 0 0 .285-.056.612.612 0 0 0 .239-.2c.079-.106.164-.255.254-.447.095-.196.215-.462.359-.797a639.987 639.987 0 0 1 1.91-4.462h.178a621.991 621.991 0 0 1 2.235 5.19c.072.171.134.308.186.41.057.101.114.181.172.24a.5.5 0 0 0 .189.115c.074.022.16.036.261.043 0 .055 0 .111-.002.167zm-2.33-2.353c-.345-.84-.692-1.68-1.04-2.52-.357.836-.712 1.672-1.066 2.51.702.001 1.404.005 2.105.01z" id="path2068" style="fill:#fab825;stroke:none;stroke-width:.123032;stroke-miterlimit:4;stroke-dasharray:none;stroke-opacity:1"/><path d="M83.104 134.385a457.27 457.27 0 0 0-4.885-.09l.001-.167c.165-.009.297-.025.398-.05a.464.464 0 0 0 .24-.125.466.466 0 0 0 .122-.237c.023-.101.036-.231.038-.39l.06-4.054c.001-.16-.007-.29-.027-.392a.42.42 0 0 0-.109-.24.524.524 0 0 0-.247-.132 2.189 2.189 0 0 0-.4-.061l.001-.184c1.623.021 3.247.051 4.87.09l-.015 1.308a15.604 15.604 0 0 0-.217-.005 2.558 2.558 0 0 0-.132-.498.649.649 0 0 0-.226-.3.854.854 0 0 0-.39-.145 4.893 4.893 0 0 0-.626-.044c-.413-.01-.825-.016-1.237-.024-.123-.002-.206.015-.25.052-.038.037-.058.121-.06.254l-.034 2.019 1.398.025c.186.004.338-.004.456-.022a.589.589 0 0 0 .282-.114.578.578 0 0 0 .174-.26c.04-.11.077-.259.113-.444l.217.005-.048 2.114-.215-.005a3.098 3.098 0 0 0-.094-.457.555.555 0 0 0-.154-.267.545.545 0 0 0-.276-.133 2.658 2.658 0 0 0-.462-.042c-.466-.01-.932-.017-1.397-.025l-.038 2.25a.894.894 0 0 0 .013.2.17.17 0 0 0 .054.096c.041.027.142.053.3.077.164.019.357.03.579.034l.254.005c.323.006.593-.004.81-.031.223-.027.412-.084.568-.171a1.36 1.36 0 0 0 .421-.358c.12-.151.24-.35.357-.598l.262.007-.45 1.53z" id="path2070" style="fill:#fab825;stroke:none;stroke-width:.123032;stroke-miterlimit:4;stroke-dasharray:none;stroke-opacity:1"/><path d="M89.01 134.675a453.312 453.312 0 0 0-3.863-5.139l-.099 3.566c-.007.234-.001.425.016.575.022.144.064.26.125.347.061.087.147.15.257.19.11.041.252.07.426.085l-.005.168c-.708-.022-1.417-.041-2.125-.059l.004-.167c.185-.012.334-.032.446-.06a.483.483 0 0 0 .267-.177.751.751 0 0 0 .136-.34c.025-.148.041-.34.047-.573l.108-4.005a4.37 4.37 0 0 0-.225-.261.686.686 0 0 0-.19-.157.568.568 0 0 0-.198-.077 1.12 1.12 0 0 0-.248-.03l.004-.183c.523.013 1.045.027 1.567.042a456.029 456.029 0 0 1 3.367 4.524l.111-3.07c.02-.553-.056-.897-.228-1.03a.681.681 0 0 0-.23-.097 2.11 2.11 0 0 0-.375-.06l.007-.184c.714.024 1.43.05 2.144.079l-.007.183c-.171.004-.3.018-.387.041a.76.76 0 0 0-.213.096c-.186.11-.29.439-.31.986l-.177 4.793-.151-.006z" id="path2072" style="fill:#fab825;stroke:none;stroke-width:.123032;stroke-miterlimit:4;stroke-dasharray:none;stroke-opacity:1"/><path d="M91.413 129.618a2.08 2.08 0 0 0-.015-.408.396.396 0 0 0-.11-.244.54.54 0 0 0-.268-.131 3.897 3.897 0 0 0-.464-.067l.008-.183c.907.036 1.815.075 2.722.116l-.009.183a2.494 2.494 0 0 0-.467.027.54.54 0 0 0-.279.108.44.44 0 0 0-.139.241c-.026.1-.042.233-.05.397l-.176 4.05c-.007.165-.003.3.014.408a.482.482 0 0 0 .124.245c.061.061.15.108.264.14.116.026.266.046.45.06l-.007.167c-.896-.04-1.791-.079-2.687-.114l.007-.168c.19.002.344-.005.462-.021a.528.528 0 0 0 .266-.117.438.438 0 0 0 .137-.234c.026-.1.042-.235.049-.405l.168-4.05z" id="path2074" style="fill:#fab825;stroke:none;stroke-width:.123032;stroke-miterlimit:4;stroke-dasharray:none;stroke-opacity:1"/><path d="M99.588 135.08c-.768-.046-1.536-.09-2.305-.133l.01-.167.198.01c.053-.001.096-.004.128-.008.037-.01.07-.015.096-.019a.543.543 0 0 0 .082-.035.273.273 0 0 0 .1-.09.24.24 0 0 0 .047-.125c.009-.15-.038-.36-.14-.632l-.333-.89c-.79-.043-1.58-.085-2.37-.124l-.474 1.039a1.846 1.846 0 0 0-.064.18.991.991 0 0 0-.025.175.316.316 0 0 0 .13.286c.091.069.248.108.47.12l-.009.167c-.6-.03-1.199-.06-1.798-.087l.008-.168a.87.87 0 0 0 .288-.042.61.61 0 0 0 .247-.188c.084-.103.176-.247.275-.434.105-.193.237-.452.396-.78.7-1.457 1.408-2.913 2.12-4.367l.177.01c.671 1.762 1.333 3.526 1.986 5.29.065.175.12.314.167.418.052.104.106.187.16.25a.5.5 0 0 0 .184.122c.072.026.159.044.259.055l-.01.168zm-2.216-2.461c-.304-.856-.61-1.712-.919-2.567-.396.818-.79 1.637-1.183 2.456.7.035 1.401.072 2.102.11z" id="path2076" style="fill:#fab825;stroke:none;stroke-width:.123032;stroke-miterlimit:4;stroke-dasharray:none;stroke-opacity:1"/></g></g></g></g></svg>