<?xml version="1.0" encoding="UTF-8" standalone="no"?>
<svg
   xmlns:dc="http://purl.org/dc/elements/1.1/"
   xmlns:cc="http://creativecommons.org/ns#"
   xmlns:rdf="http://www.w3.org/1999/02/22-rdf-syntax-ns#"
   xmlns:svg="http://www.w3.org/2000/svg"
   xmlns="http://www.w3.org/2000/svg"
   width="250"
   height="35.879498"
   viewBox="0 0 66.145832 9.4931171"
   version="1.1"
   id="svg381">
  <defs
     id="defs375">
    <style
       type="text/css"
       id="style10">.fil1{fill:none}</style>
    <style
       id="style12">.cls-1, .cls-3 {
        fill: #be0000;
      }

      .cls-2 {
        fill: #f8c301;
      }

      .cls-3 {
        fill-rule: evenodd;
      }</style>
    <style
       id="style14">.cls-1, .cls-3 {
        fill: #be0000;
      }

      .cls-2 {
        fill: #f8c301;
      }

      .cls-3 {
        fill-rule: evenodd;
      }</style>
    <style
       id="style16">.cls-1, .cls-3 {
        fill: #be0000;
      }

      .cls-2 {
        fill: #f8c301;
      }

      .cls-3 {
        fill-rule: evenodd;
      }</style>
    <style
       type="text/css"
       id="style18">.fil1{fill:none}</style>
    <style
       id="style20">.cls-1, .cls-3 {
        fill: #be0000;
      }

      .cls-2 {
        fill: #f8c301;
      }

      .cls-3 {
        fill-rule: evenodd;
      }</style>
    <style
       id="style22">.cls-1, .cls-3 {
        fill: #be0000;
      }

      .cls-2 {
        fill: #f8c301;
      }

      .cls-3 {
        fill-rule: evenodd;
      }</style>
    <style
       id="style24">.cls-1, .cls-3 {
        fill: #be0000;
      }

      .cls-2 {
        fill: #f8c301;
      }

      .cls-3 {
        fill-rule: evenodd;
      }</style>
    <style
       id="style26">.cls-1, .cls-3 {
        fill: #be0000;
      }

      .cls-2 {
        fill: #f8c301;
      }

      .cls-3 {
        fill-rule: evenodd;
      }</style>
    <style
       type="text/css"
       id="style28">.fil1{fill:none}</style>
    <style
       id="style30">.cls-1, .cls-3 {
        fill: #be0000;
      }

      .cls-2 {
        fill: #f8c301;
      }

      .cls-3 {
        fill-rule: evenodd;
      }</style>
    <style
       id="style32">.cls-1, .cls-3 {
        fill: #be0000;
      }

      .cls-2 {
        fill: #f8c301;
      }

      .cls-3 {
        fill-rule: evenodd;
      }</style>
    <style
       id="style34">.cls-1, .cls-3 {
        fill: #be0000;
      }

      .cls-2 {
        fill: #f8c301;
      }

      .cls-3 {
        fill-rule: evenodd;
      }</style>
    <style
       type="text/css"
       id="style36">.fil1{fill:none}</style>
    <style
       id="style38">.cls-1, .cls-3 {
        fill: #be0000;
      }

      .cls-2 {
        fill: #f8c301;
      }

      .cls-3 {
        fill-rule: evenodd;
      }</style>
    <style
       id="style40">.cls-1, .cls-3 {
        fill: #be0000;
      }

      .cls-2 {
        fill: #f8c301;
      }

      .cls-3 {
        fill-rule: evenodd;
      }</style>
    <style
       id="style42">.cls-1, .cls-3 {
        fill: #be0000;
      }

      .cls-2 {
        fill: #f8c301;
      }

      .cls-3 {
        fill-rule: evenodd;
      }</style>
    <style
       id="style6868">.cls-1, .cls-3 {
        fill: #be0000;
      }

      .cls-2 {
        fill: #f8c301;
      }

      .cls-3 {
        fill-rule: evenodd;
      }</style>
    <style
       id="style6870">.cls-1, .cls-3 {
        fill: #be0000;
      }

      .cls-2 {
        fill: #f8c301;
      }

      .cls-3 {
        fill-rule: evenodd;
      }</style>
    <style
       type="text/css"
       id="style10-7">.fil1{fill:none}</style>
    <style
       id="style12-5">.cls-1, .cls-3 {
        fill: #be0000;
      }

      .cls-2 {
        fill: #f8c301;
      }

      .cls-3 {
        fill-rule: evenodd;
      }</style>
    <style
       id="style14-3">.cls-1, .cls-3 {
        fill: #be0000;
      }

      .cls-2 {
        fill: #f8c301;
      }

      .cls-3 {
        fill-rule: evenodd;
      }</style>
    <style
       id="style16-5">.cls-1, .cls-3 {
        fill: #be0000;
      }

      .cls-2 {
        fill: #f8c301;
      }

      .cls-3 {
        fill-rule: evenodd;
      }</style>
    <style
       type="text/css"
       id="style18-6">.fil1{fill:none}</style>
    <style
       id="style20-2">.cls-1, .cls-3 {
        fill: #be0000;
      }

      .cls-2 {
        fill: #f8c301;
      }

      .cls-3 {
        fill-rule: evenodd;
      }</style>
    <style
       id="style22-9">.cls-1, .cls-3 {
        fill: #be0000;
      }

      .cls-2 {
        fill: #f8c301;
      }

      .cls-3 {
        fill-rule: evenodd;
      }</style>
    <style
       id="style24-1">.cls-1, .cls-3 {
        fill: #be0000;
      }

      .cls-2 {
        fill: #f8c301;
      }

      .cls-3 {
        fill-rule: evenodd;
      }</style>
    <style
       id="style26-2">.cls-1, .cls-3 {
        fill: #be0000;
      }

      .cls-2 {
        fill: #f8c301;
      }

      .cls-3 {
        fill-rule: evenodd;
      }</style>
    <style
       type="text/css"
       id="style28-7">.fil1{fill:none}</style>
    <style
       id="style30-0">.cls-1, .cls-3 {
        fill: #be0000;
      }

      .cls-2 {
        fill: #f8c301;
      }

      .cls-3 {
        fill-rule: evenodd;
      }</style>
    <style
       id="style32-9">.cls-1, .cls-3 {
        fill: #be0000;
      }

      .cls-2 {
        fill: #f8c301;
      }

      .cls-3 {
        fill-rule: evenodd;
      }</style>
    <style
       id="style34-3">.cls-1, .cls-3 {
        fill: #be0000;
      }

      .cls-2 {
        fill: #f8c301;
      }

      .cls-3 {
        fill-rule: evenodd;
      }</style>
    <style
       type="text/css"
       id="style36-6">.fil1{fill:none}</style>
    <style
       id="style38-0">.cls-1, .cls-3 {
        fill: #be0000;
      }

      .cls-2 {
        fill: #f8c301;
      }

      .cls-3 {
        fill-rule: evenodd;
      }</style>
    <style
       id="style40-6">.cls-1, .cls-3 {
        fill: #be0000;
      }

      .cls-2 {
        fill: #f8c301;
      }

      .cls-3 {
        fill-rule: evenodd;
      }</style>
    <style
       id="style42-2">.cls-1, .cls-3 {
        fill: #be0000;
      }

      .cls-2 {
        fill: #f8c301;
      }

      .cls-3 {
        fill-rule: evenodd;
      }</style>
    <style
       type="text/css"
       id="style10-5">.fil1{fill:none}</style>
    <style
       id="style12-0">.cls-1, .cls-3 {
        fill: #be0000;
      }

      .cls-2 {
        fill: #f8c301;
      }

      .cls-3 {
        fill-rule: evenodd;
      }</style>
    <style
       id="style14-36">.cls-1, .cls-3 {
        fill: #be0000;
      }

      .cls-2 {
        fill: #f8c301;
      }

      .cls-3 {
        fill-rule: evenodd;
      }</style>
    <style
       id="style16-1">.cls-1, .cls-3 {
        fill: #be0000;
      }

      .cls-2 {
        fill: #f8c301;
      }

      .cls-3 {
        fill-rule: evenodd;
      }</style>
    <style
       type="text/css"
       id="style18-0">.fil1{fill:none}</style>
    <style
       id="style20-6">.cls-1, .cls-3 {
        fill: #be0000;
      }

      .cls-2 {
        fill: #f8c301;
      }

      .cls-3 {
        fill-rule: evenodd;
      }</style>
    <style
       id="style22-3">.cls-1, .cls-3 {
        fill: #be0000;
      }

      .cls-2 {
        fill: #f8c301;
      }

      .cls-3 {
        fill-rule: evenodd;
      }</style>
    <style
       id="style24-2">.cls-1, .cls-3 {
        fill: #be0000;
      }

      .cls-2 {
        fill: #f8c301;
      }

      .cls-3 {
        fill-rule: evenodd;
      }</style>
    <style
       id="style26-0">.cls-1, .cls-3 {
        fill: #be0000;
      }

      .cls-2 {
        fill: #f8c301;
      }

      .cls-3 {
        fill-rule: evenodd;
      }</style>
    <style
       type="text/css"
       id="style28-6">.fil1{fill:none}</style>
    <style
       id="style30-1">.cls-1, .cls-3 {
        fill: #be0000;
      }

      .cls-2 {
        fill: #f8c301;
      }

      .cls-3 {
        fill-rule: evenodd;
      }</style>
    <style
       id="style32-5">.cls-1, .cls-3 {
        fill: #be0000;
      }

      .cls-2 {
        fill: #f8c301;
      }

      .cls-3 {
        fill-rule: evenodd;
      }</style>
    <style
       id="style34-5">.cls-1, .cls-3 {
        fill: #be0000;
      }

      .cls-2 {
        fill: #f8c301;
      }

      .cls-3 {
        fill-rule: evenodd;
      }</style>
    <style
       type="text/css"
       id="style36-4">.fil1{fill:none}</style>
    <style
       id="style38-7">.cls-1, .cls-3 {
        fill: #be0000;
      }

      .cls-2 {
        fill: #f8c301;
      }

      .cls-3 {
        fill-rule: evenodd;
      }</style>
    <style
       id="style40-65">.cls-1, .cls-3 {
        fill: #be0000;
      }

      .cls-2 {
        fill: #f8c301;
      }

      .cls-3 {
        fill-rule: evenodd;
      }</style>
    <style
       id="style42-6">.cls-1, .cls-3 {
        fill: #be0000;
      }

      .cls-2 {
        fill: #f8c301;
      }

      .cls-3 {
        fill-rule: evenodd;
      }</style>
    <style
       type="text/css"
       id="style11518">.fil1{fill:none}</style>
    <style
       id="style11520">.cls-1, .cls-3 {
        fill: #be0000;
      }

      .cls-2 {
        fill: #f8c301;
      }

      .cls-3 {
        fill-rule: evenodd;
      }</style>
    <style
       id="style11522">.cls-1, .cls-3 {
        fill: #be0000;
      }

      .cls-2 {
        fill: #f8c301;
      }

      .cls-3 {
        fill-rule: evenodd;
      }</style>
  </defs>
  <metadata
     id="metadata378">
    <rdf:RDF>
      <cc:Work
         rdf:about="">
        <dc:format>image/svg+xml</dc:format>
        <dc:type
           rdf:resource="http://purl.org/dc/dcmitype/StillImage" />
        <dc:title></dc:title>
      </cc:Work>
    </rdf:RDF>
  </metadata>
  <g
     id="layer1"
     transform="translate(78.522195,-121.70833)">
    <g
       id="g1272"
       transform="matrix(0.17939748,0,0,0.17939748,-64.435511,99.874163)">
      <g
         id="g877"
         transform="matrix(0.9999937,0,0,0.9999937,-78.521945,121.70833)">
        <rect
           x="-0.0002499923"
           y="-6.6174449e-24"
           width="79.375504"
           height="52.917"
           fill="#b61c1c"
           stroke-width="0.104132"
           id="rect6876"
           style="fill:#d40000" />
        <path
           d="m 18.642131,7.0058828 1.518307,4.6783272 h 4.913473 l -3.975212,2.891514 1.518308,4.678326 -3.974932,-2.891235 -3.974932,2.891235 1.518306,-4.678326 -3.97521,-2.891514 h 4.913474 z"
           fill="none"
           stroke="#f3d606"
           stroke-width="1.23835"
           id="path6882"
           style="fill:#d40000;fill-opacity:1;stroke:#ffcc00;stroke-width:1.05834;stroke-miterlimit:4;stroke-dasharray:none;stroke-opacity:1" />
        <text
           x="15.834085"
           y="126.15437"
           fill="#000000"
           font-family="'Times New Roman'"
           font-size="2.77692px"
           letter-spacing="0px"
           stroke-width="0.104132"
           text-align="center"
           text-anchor="middle"
           word-spacing="0px"
           style="line-height:1.25"
           xml:space="preserve"
           id="text6880"
           transform="scale(0.99998762,1.0000124)"><tspan
             x="15.834085"
             y="128.6192"
             stroke-width="0.104132"
             id="tspan6878" /></text>
      </g>
      <g
         aria-label="MARHAENIA"
         id="text881"
         style="font-weight:bold;font-size:79.3353px;line-height:1.25;font-family:'Arial Narrow';-inkscape-font-specification:'Arial Narrow Bold';stroke-width:0.550939"
         transform="matrix(0.62311783,0,0,0.62311783,-60.503687,45.662002)">
        <path
           d="m 168.50737,171.86424 -0.55535,3.09407 h -21.49987 l 0.31734,-3.25274 q 2.6974,-0.55535 4.44278,-2.38006 v -34.66953 l -12.93165,40.30233 h -6.10882 l -14.20102,-38.16027 v 32.52747 q 1.82471,1.66604 5.95015,2.53873 l -0.55535,3.09407 h -17.13642 l 0.31734,-3.25274 q 2.61806,-0.47602 4.52211,-2.38006 v -41.65103 q -1.66604,-1.42804 -4.83945,-2.53873 l 0.31734,-3.09408 h 17.92978 l 12.93165,35.70088 11.10694,-35.70088 h 19.35781 l -0.47601,3.09408 q -3.09408,0.95202 -4.83945,2.53873 v 41.65103 q 1.82471,1.66604 5.95015,2.53873 z"
           style="font-style:normal;font-variant:normal;font-weight:bold;font-stretch:normal;font-family:Caladea;-inkscape-font-specification:'Caladea Bold';fill:#ffcc00;stroke-width:0.550939"
           id="path883" />
        <path
           d="m 205.16017,169.80152 -3.72876,-11.34495 h -16.34307 l -3.80809,10.94827 q 2.22139,1.82471 6.7435,2.38006 l -0.39668,3.17341 H 169.6973 l 0.47601,-3.17341 q 3.64942,-0.15867 4.83945,-1.98338 l 16.89842,-47.75985 h 8.25087 l 17.05709,47.04583 q 1.26936,2.06272 4.83945,2.6974 l -0.39668,3.17341 h -21.73787 l 0.47602,-3.17341 q 3.64942,-0.55535 4.76011,-1.98338 z m -11.58295,-35.38354 -6.7435,19.04047 h 12.93165 z"
           style="font-style:normal;font-variant:normal;font-weight:bold;font-stretch:normal;font-family:Caladea;-inkscape-font-specification:'Caladea Bold';fill:#ffcc00;stroke-width:0.550939"
           id="path885" />
        <path
           d="m 247.76311,122.04167 q 20.30983,0 20.30983,13.96301 0,10.15492 -10.31358,13.56634 2.53872,1.74537 4.12543,5.23613 l 5.95015,14.12168 q 0.79335,1.82471 4.83945,2.77674 l -0.55535,3.25274 h -14.43902 l -7.69552,-20.78584 q -1.03136,-2.53873 -4.28411,-3.01475 -1.3487,0 -3.25275,-0.15867 h -0.87269 v 18.32646 q 1.66605,1.66604 5.95015,2.53873 l -0.55535,3.09407 h -21.89654 l 0.31734,-3.25274 q 2.6974,-0.55535 4.52212,-2.38006 v -41.65103 q -1.50737,-1.42804 -4.83946,-2.53873 l 0.31734,-3.09408 z m 8.01286,14.12168 q 0,-4.44277 -2.38006,-6.82283 -2.38006,-2.4594 -6.10881,-2.4594 -3.72876,0 -5.71215,0.31734 v 18.96114 h 5.1568 q 9.04422,0 9.04422,-9.99625 z"
           style="font-style:normal;font-variant:normal;font-weight:bold;font-stretch:normal;font-family:Caladea;-inkscape-font-specification:'Caladea Bold';fill:#ffcc00;stroke-width:0.550939"
           id="path887" />
        <path
           d="m 293.53947,145.36625 h 18.16779 v -17.69177 q -2.06272,-1.74538 -5.47414,-2.38006 l 0.39668,-3.25275 h 22.05521 l -0.47601,3.09408 q -3.09408,0.95202 -4.83945,2.53873 v 41.65103 q 1.82471,1.66604 5.95014,2.53873 l -0.55534,3.09407 H 306.8678 l 0.31735,-3.25274 q 2.61806,-0.47602 4.52211,-2.38006 v -18.96114 h -18.16779 v 18.96114 q 1.82472,1.66604 5.95015,2.53873 l -0.55535,3.09407 h -21.89654 l 0.31734,-3.25274 q 2.61807,-0.47602 4.52212,-2.38006 v -41.65103 q -1.66605,-1.42804 -4.83946,-2.53873 l 0.31734,-3.09408 h 22.13455 l -0.47601,3.25275 q -3.41142,0.63468 -5.47414,2.38006 z"
           style="font-style:normal;font-variant:normal;font-weight:bold;font-stretch:normal;font-family:Caladea;-inkscape-font-specification:'Caladea Bold';fill:#ffcc00;stroke-width:0.550939"
           id="path889" />
        <path
           d="m 366.68647,169.80152 -3.72876,-11.34495 h -16.34307 l -3.80809,10.94827 q 2.22139,1.82471 6.7435,2.38006 l -0.39668,3.17341 h -17.92978 l 0.47602,-3.17341 q 3.64942,-0.15867 4.83945,-1.98338 l 16.89842,-47.75985 h 8.25087 l 17.05709,47.04583 q 1.26936,2.06272 4.83945,2.6974 l -0.39668,3.17341 h -21.73787 l 0.47601,-3.17341 q 3.64943,-0.55535 4.76012,-1.98338 z m -11.58295,-35.38354 -6.7435,19.04047 h 12.93165 z"
           style="font-style:normal;font-variant:normal;font-weight:bold;font-stretch:normal;font-family:Caladea;-inkscape-font-specification:'Caladea Bold';fill:#ffcc00;stroke-width:0.550939"
           id="path891" />
        <path
           d="m 425.71182,135.13199 q -1.82471,0.55535 -3.01474,0.55535 -1.1107,0 -2.85607,-0.31734 -1.19003,-5.47414 -3.41142,-8.48888 h -13.32833 v 18.80247 l 7.37818,-0.55535 q 1.42804,-0.15867 2.61807,-1.5867 1.26936,-1.42804 1.82471,-3.72876 h 4.12544 v 16.4224 h -4.12544 q -1.11069,-3.17341 -2.14205,-4.44277 -1.03136,-1.26937 -2.38006,-1.42804 l -7.29885,-0.63468 v 20.30983 h 13.88368 q 2.53873,-3.80809 3.72876,-10.07558 1.66604,-0.238 3.09407,-0.238 1.50737,0 2.77674,0.238 l -0.79335,14.99437 h -39.19164 l 0.31734,-3.25274 q 3.09408,-0.47602 4.52211,-1.98339 V 127.2778 q -1.90404,-1.66604 -4.83945,-2.30072 l 0.238,-2.93541 h 38.55696 z"
           style="font-style:normal;font-variant:normal;font-weight:bold;font-stretch:normal;font-family:Caladea;-inkscape-font-specification:'Caladea Bold';fill:#ffcc00;stroke-width:0.550939"
           id="path893" />
        <path
           d="m 476.64502,174.95831 h -12.05896 l -20.94452,-36.49423 v 30.86143 q 1.82471,1.66604 5.95015,2.53873 l -0.55535,3.09407 h -17.13642 l 0.31734,-3.25274 q 2.61806,-0.47602 4.52211,-2.38006 v -41.65103 q -1.66604,-1.42804 -4.83945,-2.53873 l 0.31734,-3.09408 h 15.62905 l 21.89654,38.39828 v -32.76547 q -2.06272,-1.74538 -5.47413,-2.38006 l 0.39667,-3.25275 h 17.2951 l -0.47601,3.09408 q -3.09408,0.95202 -4.83946,2.53873 z"
           style="font-style:normal;font-variant:normal;font-weight:bold;font-stretch:normal;font-family:Caladea;-inkscape-font-specification:'Caladea Bold';fill:#ffcc00;stroke-width:0.550939"
           id="path895" />
        <path
           d="m 485.29246,125.29442 0.39668,-3.25275 h 23.24524 l -0.47601,3.25275 q -3.41142,0.63468 -5.47413,2.38006 v 41.65103 q 1.5867,1.50737 5.95014,2.38006 l -0.55534,3.25274 h -23.08658 l 0.31735,-3.25274 q 3.57008,-0.55535 5.71214,-2.38006 v -41.65103 q -1.74538,-1.74538 -6.02949,-2.38006 z"
           style="font-style:normal;font-variant:normal;font-weight:bold;font-stretch:normal;font-family:Caladea;-inkscape-font-specification:'Caladea Bold';fill:#ffcc00;stroke-width:0.550939"
           id="path897" />
        <path
           d="m 545.90452,169.80152 -3.72876,-11.34495 h -16.34307 l -3.80809,10.94827 q 2.22138,1.82471 6.7435,2.38006 l -0.39668,3.17341 h -17.92978 l 0.47601,-3.17341 q 3.64943,-0.15867 4.83946,-1.98338 l 16.89842,-47.75985 h 8.25087 l 17.05708,47.04583 q 1.26937,2.06272 4.83946,2.6974 l -0.39668,3.17341 h -21.73787 l 0.47601,-3.17341 q 3.64943,-0.55535 4.76012,-1.98338 z m -11.58295,-35.38354 -6.7435,19.04047 h 12.93165 z"
           style="font-style:normal;font-variant:normal;font-weight:bold;font-stretch:normal;font-family:Caladea;-inkscape-font-specification:'Caladea Bold';fill:#ffcc00;stroke-width:0.550939"
           id="path899" />
      </g>
      <g
         aria-label="www.mhe.my.id"
         id="text904"
         style="font-weight:bold;font-size:38.1px;line-height:1.25;font-family:'Arial Narrow';-inkscape-font-specification:'Arial Narrow Bold';stroke-width:0.264583"
         transform="matrix(0.48655263,0,0,0.48655263,80.645717,64.391499)">
        <path
           d="m 167.894,218.17828 h -3.9243 l -5.0292,-15.9258 q -0.5715,-0.8763 -2.1717,-1.1811 l 0.0762,-1.3335 h 9.9822 l -0.1905,1.3335 q -1.3716,0.0762 -2.2479,0.8001 l 2.9718,10.4394 4.3053,-12.573 h 3.429 l 3.6195,12.6111 3.5433,-10.4394 q -0.8763,-0.5715 -2.4384,-0.8382 l 0.1524,-1.3335 h 7.0866 l -0.1524,1.3335 q -1.4478,0.0762 -2.0574,1.0668 l -5.6007,16.0401 h -3.9243 l -3.4671,-11.3538 z"
           style="font-style:normal;font-variant:normal;font-weight:bold;font-stretch:normal;font-family:Caladea;-inkscape-font-specification:'Caladea Bold';fill:#ffcc00;stroke-width:0.264583"
           id="path906" />
        <path
           d="m 198.29773,218.17828 h -3.9243 l -5.0292,-15.9258 q -0.5715,-0.8763 -2.1717,-1.1811 l 0.0762,-1.3335 h 9.9822 l -0.1905,1.3335 q -1.3716,0.0762 -2.2479,0.8001 l 2.9718,10.4394 4.3053,-12.573 h 3.429 l 3.6195,12.6111 3.5433,-10.4394 q -0.8763,-0.5715 -2.4384,-0.8382 l 0.1524,-1.3335 h 7.0866 l -0.1524,1.3335 q -1.4478,0.0762 -2.0574,1.0668 l -5.6007,16.0401 h -3.9243 l -3.4671,-11.3538 z"
           style="font-style:normal;font-variant:normal;font-weight:bold;font-stretch:normal;font-family:Caladea;-inkscape-font-specification:'Caladea Bold';fill:#ffcc00;stroke-width:0.264583"
           id="path908" />
        <path
           d="m 228.70147,218.17828 h -3.9243 l -5.0292,-15.9258 q -0.5715,-0.8763 -2.1717,-1.1811 l 0.0762,-1.3335 h 9.9822 l -0.1905,1.3335 q -1.3716,0.0762 -2.2479,0.8001 l 2.9718,10.4394 4.3053,-12.573 h 3.429 l 3.6195,12.6111 3.5433,-10.4394 q -0.8763,-0.5715 -2.4384,-0.8382 l 0.1524,-1.3335 h 7.0866 l -0.1524,1.3335 q -1.4478,0.0762 -2.0574,1.0668 l -5.6007,16.0401 h -3.9243 l -3.4671,-11.3538 z"
           style="font-style:normal;font-variant:normal;font-weight:bold;font-stretch:normal;font-family:Caladea;-inkscape-font-specification:'Caladea Bold';fill:#ffcc00;stroke-width:0.264583"
           id="path910" />
        <path
           d="m 246.57029,215.43508 q 0,-2.9337 2.667,-2.9337 2.667,0 2.667,2.9337 0,2.8956 -2.667,2.8956 -1.3335,0 -2.0193,-0.762 -0.6477,-0.8001 -0.6477,-2.1336 z"
           style="font-style:normal;font-variant:normal;font-weight:bold;font-stretch:normal;font-family:Caladea;-inkscape-font-specification:'Caladea Bold';fill:#ffcc00;stroke-width:0.264583"
           id="path912" />
        <path
           d="m 268.05862,205.64338 q 0,-3.6576 -2.3241,-3.6576 -2.0955,0 -3.3147,2.0955 v 11.5824 q 0.8763,0.6858 2.286,1.0287 l -0.1524,1.4859 h -9.6393 l 0.1143,-1.5621 q 1.2192,-0.2286 2.0193,-0.9525 v -10.9728 q 0,-1.3716 -0.5334,-1.8669 -0.5334,-0.5334 -1.8669,-0.6096 l 0.1143,-1.4859 q 5.715,-1.0668 6.5151,-1.2954 l 0.6858,0.3429 0.3048,2.2098 q 2.1336,-2.5527 5.4483,-2.5527 3.81,0 5.1816,3.1242 2.0574,-3.1242 5.8674,-3.1242 2.5908,0 4.1529,1.5621 1.5621,1.5621 1.5621,4.3053 v 10.3632 q 0.9525,0.7239 2.4384,1.0287 l -0.1524,1.4859 h -9.6393 l 0.1143,-1.4859 q 1.0668,-0.2286 1.8669,-1.0287 v -10.0203 q 0,-3.6576 -2.3241,-3.6576 -1.0287,0 -1.9812,0.6477 -0.9144,0.6096 -1.4478,1.6383 0.0762,0.6858 0.0762,1.0287 v 10.3632 q 0.8382,0.6858 2.286,1.0287 l -0.1524,1.4859 h -9.4869 l 0.1143,-1.4859 q 1.0668,-0.2286 1.8669,-1.0287 z"
           style="font-style:normal;font-variant:normal;font-weight:bold;font-stretch:normal;font-family:Caladea;-inkscape-font-specification:'Caladea Bold';fill:#ffcc00;stroke-width:0.264583"
           id="path914" />
        <path
           d="m 290.68999,196.88038 q 0,-1.4097 -0.5334,-1.905 -0.4953,-0.5334 -1.8288,-0.6096 l 0.1143,-1.4859 q 0.4953,-0.1143 2.0574,-0.381 3.6957,-0.5715 4.9149,-0.9144 l 0.6858,0.381 v 9.8679 q 2.1336,-2.4003 5.4102,-2.4003 2.5908,0 4.1529,1.5621 1.5621,1.5621 1.5621,4.3053 v 10.3632 q 0.8763,0.7239 2.4003,1.0287 l -0.1143,1.4859 h -9.6774 l 0.1143,-1.4859 q 1.143,-0.2286 1.8669,-1.0287 v -10.0203 q 0,-3.6576 -2.3622,-3.6576 -2.0955,0 -3.3528,2.0574 v 11.5824 q 0.762,0.6477 2.286,1.0287 l -0.1524,1.4859 h -9.6774 l 0.1524,-1.5621 q 1.2573,-0.2667 1.9812,-0.9525 z"
           style="font-style:normal;font-variant:normal;font-weight:bold;font-stretch:normal;font-family:Caladea;-inkscape-font-specification:'Caladea Bold';fill:#ffcc00;stroke-width:0.264583"
           id="path916" />
        <path
           d="m 317.35993,208.91998 v 0.6096 q 0,3.2004 0.9144,4.7625 0.9144,1.524 3.429,1.524 3.2004,0 5.2578,-2.0955 l 1.524,1.4859 q -1.5621,1.5621 -3.2766,2.4003 -1.6764,0.8382 -4.4196,0.8382 -4.4196,0 -6.6675,-2.4765 -2.2098,-2.5146 -2.2098,-6.9342 0,-4.4577 2.3622,-7.0104 2.3622,-2.5908 6.7056,-2.5908 4.3815,0 6.1722,1.9812 1.7907,1.9812 2.0193,5.9055 l -1.0668,1.6002 z m 3.5814,-7.62 q -3.4671,0 -3.5814,6.096 l 6.4008,-0.3048 q 0,-3.048 -0.6096,-4.4196 -0.6096,-1.3716 -2.2098,-1.3716 z"
           style="font-style:normal;font-variant:normal;font-weight:bold;font-stretch:normal;font-family:Caladea;-inkscape-font-specification:'Caladea Bold';fill:#ffcc00;stroke-width:0.264583"
           id="path918" />
        <path
           d="m 331.91405,215.43508 q 0,-2.9337 2.667,-2.9337 2.667,0 2.667,2.9337 0,2.8956 -2.667,2.8956 -1.3335,0 -2.0193,-0.762 -0.6477,-0.8001 -0.6477,-2.1336 z"
           style="font-style:normal;font-variant:normal;font-weight:bold;font-stretch:normal;font-family:Caladea;-inkscape-font-specification:'Caladea Bold';fill:#ffcc00;stroke-width:0.264583"
           id="path920" />
        <path
           d="m 353.40239,205.64338 q 0,-3.6576 -2.3241,-3.6576 -2.0955,0 -3.3147,2.0955 v 11.5824 q 0.8763,0.6858 2.286,1.0287 l -0.1524,1.4859 h -9.6393 l 0.1143,-1.5621 q 1.2192,-0.2286 2.0193,-0.9525 v -10.9728 q 0,-1.3716 -0.5334,-1.8669 -0.5334,-0.5334 -1.8669,-0.6096 l 0.1143,-1.4859 q 5.715,-1.0668 6.5151,-1.2954 l 0.6858,0.3429 0.3048,2.2098 q 2.1336,-2.5527 5.4483,-2.5527 3.81,0 5.1816,3.1242 2.0574,-3.1242 5.8674,-3.1242 2.5908,0 4.1529,1.5621 1.5621,1.5621 1.5621,4.3053 v 10.3632 q 0.9525,0.7239 2.4384,1.0287 l -0.1524,1.4859 h -9.6393 l 0.1143,-1.4859 q 1.0668,-0.2286 1.8669,-1.0287 v -10.0203 q 0,-3.6576 -2.3241,-3.6576 -1.0287,0 -1.9812,0.6477 -0.9144,0.6096 -1.4478,1.6383 0.0762,0.6858 0.0762,1.0287 v 10.3632 q 0.8382,0.6858 2.286,1.0287 l -0.1524,1.4859 h -9.4869 l 0.1143,-1.4859 q 1.0668,-0.2286 1.8669,-1.0287 z"
           style="font-style:normal;font-variant:normal;font-weight:bold;font-stretch:normal;font-family:Caladea;-inkscape-font-specification:'Caladea Bold';fill:#ffcc00;stroke-width:0.264583"
           id="path922" />
        <path
           d="m 381.71061,222.10258 q -0.9906,2.4003 -2.2098,3.429 -1.2192,1.0287 -3.1242,1.0287 -1.905,0 -2.9718,-0.762 -1.0668,-0.762 -1.0668,-2.0574 0,-1.2573 0.6096,-1.9431 0.6096,-0.6858 1.6383,-0.6858 1.0668,0 1.8669,0.9144 -0.4191,0.3429 -0.4191,1.143 0,1.1811 1.0287,1.1811 0.6477,0 1.1811,-0.7239 0.5715,-0.7239 1.2954,-2.5527 l 1.143,-2.8956 h -1.2954 l -5.4864,-15.5067 q -0.4572,-1.2573 -2.3622,-1.6002 l 0.0762,-1.3335 h 9.9822 l -0.1905,1.3335 q -1.4097,0.0381 -2.1717,0.7239 l 3.7719,10.6299 4.191,-10.5156 q -0.8763,-0.5715 -2.4765,-0.8382 l 0.1524,-1.3335 h 7.0866 l -0.1524,1.3335 q -1.6764,0.0762 -1.9812,0.9144 z"
           style="font-style:normal;font-variant:normal;font-weight:bold;font-stretch:normal;font-family:Caladea;-inkscape-font-specification:'Caladea Bold';fill:#ffcc00;stroke-width:0.264583"
           id="path924" />
        <path
           d="m 390.13062,215.43508 q 0,-2.9337 2.667,-2.9337 2.667,0 2.667,2.9337 0,2.8956 -2.667,2.8956 -1.3335,0 -2.0193,-0.762 -0.6477,-0.8001 -0.6477,-2.1336 z"
           style="font-style:normal;font-variant:normal;font-weight:bold;font-stretch:normal;font-family:Caladea;-inkscape-font-specification:'Caladea Bold';fill:#ffcc00;stroke-width:0.264583"
           id="path926" />
        <path
           d="m 400.72236,204.69088 q 0,-1.3716 -0.5334,-1.8669 -0.4953,-0.5334 -1.8288,-0.6096 l 0.1143,-1.4859 q 0.4953,-0.1143 2.0574,-0.381 3.6957,-0.5715 4.9149,-0.9144 l 0.6477,0.3429 v 15.8877 q 0.9525,0.7239 2.4384,1.0287 l -0.1524,1.4859 h -9.7917 l 0.1524,-1.5621 q 1.2573,-0.2667 1.9812,-0.9525 z m 2.7432,-12.8016 q 3.048,0 3.048,2.667 0,2.667 -3.048,2.667 -3.0099,0 -3.0099,-2.667 0,-2.667 3.0099,-2.667 z"
           style="font-style:normal;font-variant:normal;font-weight:bold;font-stretch:normal;font-family:Caladea;-inkscape-font-specification:'Caladea Bold';fill:#ffcc00;stroke-width:0.264583"
           id="path928" />
        <path
           d="m 423.16324,215.70178 q -1.6764,2.7432 -5.2197,2.7432 -3.5052,0 -5.334,-2.286 -1.7907,-2.286 -1.7907,-6.9342 0,-4.6482 2.1717,-7.2009 2.2098,-2.5908 6.2484,-2.5908 2.0193,0 3.7719,0.9144 v -3.429 q 0,-1.4097 -0.5715,-1.905 -0.5715,-0.5334 -2.0955,-0.6096 l 0.1143,-1.4859 q 5.3721,-0.762 7.2771,-1.2954 l 0.6477,0.381 v 23.8125 q 0.8001,0.7239 2.286,1.0287 l -0.1524,1.3335 h -6.858 z m -0.1524,-6.4389 v -7.0485 q -1.0287,-0.7239 -2.4765,-0.7239 -4.1529,0 -4.1529,7.9629 0,6.7056 3.1623,6.7056 3.4671,0 3.4671,-6.8961 z"
           style="font-style:normal;font-variant:normal;font-weight:bold;font-stretch:normal;font-family:Caladea;-inkscape-font-specification:'Caladea Bold';fill:#ffcc00;stroke-width:0.264583"
           id="path930" />
      </g>
      <path
         id="rect933"
         style="font-variation-settings:normal;vector-effect:none;fill:#ffcc00;fill-opacity:1;fill-rule:evenodd;stroke-width:0.191768;stroke-linecap:butt;stroke-linejoin:miter;stroke-miterlimit:4;stroke-dasharray:none;stroke-dashoffset:0;stroke-opacity:1;stop-color:#000000"
         d="M 5.689567,161.64864 H 150.62115 v 8.89807 H 5.689567 Z" />
    </g>
  </g>
  <style
     type="text/css"
     id="style54">.st0{fill:#BC0000;}</style>
  <style
     type="text/css"
     id="style56">.st0{fill:#BC0000;}</style>
  <style
     type="text/css"
     id="style58">.st0{fill:#BC0000;}</style>
  <style
     type="text/css"
     id="style60">.st0{fill:#BC0000;}</style>
  <style
     type="text/css"
     id="style62">.st0{fill:#BC0000;}</style>
  <style
     id="style64"><![CDATA[.B{fill:#ff0}.C{fill:none}.D{stroke:#da251d}.E{stroke-linejoin:round}.F{stroke-width:2.13049}.G{stroke-width:.563693}.H{fill:#fcd134}.I{fill:#eed025}.J{stroke-dashoffset:181.417}.K{stroke-width:.396875}.L{stroke-linecap:round}]]></style>
  <style
     type="text/css"
     id="style66">.st0{fill:#BC0000;}</style>
  <style
     type="text/css"
     id="style68">.st0{fill:#BC0000;}</style>
  <style
     type="text/css"
     id="style70">.st0{fill:#BC0000;}</style>
  <style
     type="text/css"
     id="style72">.st0{fill:#BC0000;}</style>
  <style
     type="text/css"
     id="style74">.st0{fill:#BC0000;}</style>
  <style
     id="style76"><![CDATA[.B{fill:#ff0}.C{fill:none}.D{stroke:#da251d}.E{stroke-linejoin:round}.F{stroke-width:2.13049}.G{stroke-width:.563693}.H{fill:#fcd134}.I{fill:#eed025}.J{stroke-dashoffset:181.417}.K{stroke-width:.396875}.L{stroke-linecap:round}]]></style>
  <style
     type="text/css"
     id="style78">.st0{fill:#BC0000;}</style>
  <style
     type="text/css"
     id="style80">.st0{fill:#BC0000;}</style>
  <style
     type="text/css"
     id="style82">.st0{fill:#BC0000;}</style>
  <style
     type="text/css"
     id="style84">.st0{fill:#BC0000;}</style>
  <style
     type="text/css"
     id="style86">.st0{fill:#BC0000;}</style>
  <style
     type="text/css"
     id="style88">.st0{fill:#BC0000;}</style>
  <style
     id="style90"><![CDATA[.B{fill:#ff0}.C{fill:none}.D{stroke:#da251d}.E{stroke-linejoin:round}.F{stroke-width:2.13049}.G{stroke-width:.563693}.H{fill:#fcd134}.I{fill:#eed025}.J{stroke-dashoffset:181.417}.K{stroke-width:.396875}.L{stroke-linecap:round}]]></style>
  <style
     type="text/css"
     id="style92">.st0{fill:#BC0000;}</style>
  <style
     type="text/css"
     id="style94">.st0{fill:#BC0000;}</style>
  <style
     type="text/css"
     id="style96">.st0{fill:#BC0000;}</style>
  <style
     type="text/css"
     id="style98">.st0{fill:#BC0000;}</style>
  <style
     type="text/css"
     id="style100">.st0{fill:#BC0000;}</style>
  <style
     id="style102"><![CDATA[.B{fill:#ff0}.C{fill:none}.D{stroke:#da251d}.E{stroke-linejoin:round}.F{stroke-width:2.13049}.G{stroke-width:.563693}.H{fill:#fcd134}.I{fill:#eed025}.J{stroke-dashoffset:181.417}.K{stroke-width:.396875}.L{stroke-linecap:round}]]></style>
  <style
     type="text/css"
     id="style6890">.st0{fill:#BC0000;}</style>
  <style
     type="text/css"
     id="style54-8">.st0{fill:#BC0000;}</style>
  <style
     type="text/css"
     id="style56-7">.st0{fill:#BC0000;}</style>
  <style
     type="text/css"
     id="style58-9">.st0{fill:#BC0000;}</style>
  <style
     type="text/css"
     id="style60-2">.st0{fill:#BC0000;}</style>
  <style
     type="text/css"
     id="style62-0">.st0{fill:#BC0000;}</style>
  <style
     id="style64-2"><![CDATA[.B{fill:#ff0}.C{fill:none}.D{stroke:#da251d}.E{stroke-linejoin:round}.F{stroke-width:2.13049}.G{stroke-width:.563693}.H{fill:#fcd134}.I{fill:#eed025}.J{stroke-dashoffset:181.417}.K{stroke-width:.396875}.L{stroke-linecap:round}]]></style>
  <style
     type="text/css"
     id="style66-3">.st0{fill:#BC0000;}</style>
  <style
     type="text/css"
     id="style68-7">.st0{fill:#BC0000;}</style>
  <style
     type="text/css"
     id="style70-5">.st0{fill:#BC0000;}</style>
  <style
     type="text/css"
     id="style72-9">.st0{fill:#BC0000;}</style>
  <style
     type="text/css"
     id="style74-2">.st0{fill:#BC0000;}</style>
  <style
     id="style76-2"><![CDATA[.B{fill:#ff0}.C{fill:none}.D{stroke:#da251d}.E{stroke-linejoin:round}.F{stroke-width:2.13049}.G{stroke-width:.563693}.H{fill:#fcd134}.I{fill:#eed025}.J{stroke-dashoffset:181.417}.K{stroke-width:.396875}.L{stroke-linecap:round}]]></style>
  <style
     type="text/css"
     id="style78-8">.st0{fill:#BC0000;}</style>
  <style
     type="text/css"
     id="style80-9">.st0{fill:#BC0000;}</style>
  <style
     type="text/css"
     id="style82-7">.st0{fill:#BC0000;}</style>
  <style
     type="text/css"
     id="style84-3">.st0{fill:#BC0000;}</style>
  <style
     type="text/css"
     id="style86-6">.st0{fill:#BC0000;}</style>
  <style
     type="text/css"
     id="style88-1">.st0{fill:#BC0000;}</style>
  <style
     id="style90-2"><![CDATA[.B{fill:#ff0}.C{fill:none}.D{stroke:#da251d}.E{stroke-linejoin:round}.F{stroke-width:2.13049}.G{stroke-width:.563693}.H{fill:#fcd134}.I{fill:#eed025}.J{stroke-dashoffset:181.417}.K{stroke-width:.396875}.L{stroke-linecap:round}]]></style>
  <style
     type="text/css"
     id="style92-9">.st0{fill:#BC0000;}</style>
  <style
     type="text/css"
     id="style94-3">.st0{fill:#BC0000;}</style>
  <style
     type="text/css"
     id="style96-1">.st0{fill:#BC0000;}</style>
  <style
     type="text/css"
     id="style98-9">.st0{fill:#BC0000;}</style>
  <style
     type="text/css"
     id="style100-4">.st0{fill:#BC0000;}</style>
  <style
     id="style102-7"><![CDATA[.B{fill:#ff0}.C{fill:none}.D{stroke:#da251d}.E{stroke-linejoin:round}.F{stroke-width:2.13049}.G{stroke-width:.563693}.H{fill:#fcd134}.I{fill:#eed025}.J{stroke-dashoffset:181.417}.K{stroke-width:.396875}.L{stroke-linecap:round}]]></style>
  <style
     type="text/css"
     id="style54-3">.st0{fill:#BC0000;}</style>
  <style
     type="text/css"
     id="style56-74">.st0{fill:#BC0000;}</style>
  <style
     type="text/css"
     id="style58-5">.st0{fill:#BC0000;}</style>
  <style
     type="text/css"
     id="style60-25">.st0{fill:#BC0000;}</style>
  <style
     type="text/css"
     id="style62-4">.st0{fill:#BC0000;}</style>
  <style
     id="style64-7"><![CDATA[.B{fill:#ff0}.C{fill:none}.D{stroke:#da251d}.E{stroke-linejoin:round}.F{stroke-width:2.13049}.G{stroke-width:.563693}.H{fill:#fcd134}.I{fill:#eed025}.J{stroke-dashoffset:181.417}.K{stroke-width:.396875}.L{stroke-linecap:round}]]></style>
  <style
     type="text/css"
     id="style66-4">.st0{fill:#BC0000;}</style>
  <style
     type="text/css"
     id="style68-4">.st0{fill:#BC0000;}</style>
  <style
     type="text/css"
     id="style70-3">.st0{fill:#BC0000;}</style>
  <style
     type="text/css"
     id="style72-0">.st0{fill:#BC0000;}</style>
  <style
     type="text/css"
     id="style74-7">.st0{fill:#BC0000;}</style>
  <style
     id="style76-8"><![CDATA[.B{fill:#ff0}.C{fill:none}.D{stroke:#da251d}.E{stroke-linejoin:round}.F{stroke-width:2.13049}.G{stroke-width:.563693}.H{fill:#fcd134}.I{fill:#eed025}.J{stroke-dashoffset:181.417}.K{stroke-width:.396875}.L{stroke-linecap:round}]]></style>
  <style
     type="text/css"
     id="style78-6">.st0{fill:#BC0000;}</style>
  <style
     type="text/css"
     id="style80-8">.st0{fill:#BC0000;}</style>
  <style
     type="text/css"
     id="style82-8">.st0{fill:#BC0000;}</style>
  <style
     type="text/css"
     id="style84-4">.st0{fill:#BC0000;}</style>
  <style
     type="text/css"
     id="style86-3">.st0{fill:#BC0000;}</style>
  <style
     type="text/css"
     id="style88-14">.st0{fill:#BC0000;}</style>
  <style
     id="style90-9"><![CDATA[.B{fill:#ff0}.C{fill:none}.D{stroke:#da251d}.E{stroke-linejoin:round}.F{stroke-width:2.13049}.G{stroke-width:.563693}.H{fill:#fcd134}.I{fill:#eed025}.J{stroke-dashoffset:181.417}.K{stroke-width:.396875}.L{stroke-linecap:round}]]></style>
  <style
     type="text/css"
     id="style92-2">.st0{fill:#BC0000;}</style>
  <style
     type="text/css"
     id="style94-0">.st0{fill:#BC0000;}</style>
  <style
     type="text/css"
     id="style96-6">.st0{fill:#BC0000;}</style>
  <style
     type="text/css"
     id="style98-8">.st0{fill:#BC0000;}</style>
  <style
     type="text/css"
     id="style100-9">.st0{fill:#BC0000;}</style>
  <style
     id="style102-2"><![CDATA[.B{fill:#ff0}.C{fill:none}.D{stroke:#da251d}.E{stroke-linejoin:round}.F{stroke-width:2.13049}.G{stroke-width:.563693}.H{fill:#fcd134}.I{fill:#eed025}.J{stroke-dashoffset:181.417}.K{stroke-width:.396875}.L{stroke-linecap:round}]]></style>
  <style
     type="text/css"
     id="style11884">.st0{fill:#BC0000;}</style>
  <style
     type="text/css"
     id="style11886">.st0{fill:#BC0000;}</style>
  <style
     type="text/css"
     id="style11888">.st0{fill:#BC0000;}</style>
</svg>
