<?xml version="1.0" encoding="UTF-8" standalone="no"?>
<!-- Created with Inkscape (http://www.inkscape.org/) -->

<svg
   width="1280"
   height="272.504"
   viewBox="0 0 338.66666 72.100016"
   version="1.1"
   id="svg5"
   xml:space="preserve"
   xmlns="http://www.w3.org/2000/svg"
   xmlns:svg="http://www.w3.org/2000/svg"><defs
     id="defs2" /><g
     id="layer1"
     transform="translate(-268.70045,-183.82504)"><path
       d="m 268.70045,254.92543 v -61.06079 h 15.11943 l 9.07996,41.65128 8.99669,-41.65128 h 15.16107 v 61.06079 h -9.37154 v -48.0656 l -9.95466,48.0656 h -9.7464 l -9.87135,-48.0656 v 48.0656 z"
       style="font-weight:bold;font-size:38.1px;line-height:1.25;font-family:'Arial Narrow';-inkscape-font-specification:'Arial Narrow Bold';fill:#ffffff;stroke-width:0.592373"
       id="path302" /><path
       d="m 334.21793,224.18678 -8.70511,-1.91597 q 1.58274,-6.70585 5.20642,-9.62145 3.66529,-2.95724 10.49611,-2.95724 6.08108,0 9.28825,1.70772 3.20715,1.70769 4.58163,4.66493 1.3745,2.9156 1.3745,10.66273 l -0.0833,13.66162 q 0,5.74789 0.45817,8.58018 0.45817,2.79062 1.70769,5.95613 h -9.49649 l -1.24953,-4.83156 q -2.45743,2.9156 -5.28972,4.37339 -2.79064,1.45779 -5.95613,1.45779 -5.28972,0 -8.66346,-3.54034 -3.37377,-3.58203 -3.37377,-9.49651 0,-3.74861 1.3745,-6.53925 1.37448,-2.79063 3.87356,-4.45668 2.4991,-1.66605 7.99706,-2.95724 6.6642,-1.5411 9.28823,-2.87396 0,-3.66529 -0.54146,-4.78989 -0.49981,-1.16623 -1.91595,-1.87431 -1.3745,-0.74971 -3.91522,-0.74971 -2.58239,0 -4.08184,1.16624 -1.45779,1.16624 -2.37413,4.37338 z m 12.82859,9.4965 q -1.83264,0.74971 -5.70622,1.74935 -4.45667,1.16622 -5.83118,2.58237 -1.3745,1.41614 -1.3745,3.66531 0,2.54074 1.49946,4.29008 1.5411,1.70772 3.83191,1.70772 2.04093,0 4.04017,-1.37451 1.99927,-1.41614 2.749,-3.3321 0.79136,-1.91595 0.79136,-6.95577 z"
       style="font-weight:bold;font-size:38.1px;line-height:1.25;font-family:'Arial Narrow';-inkscape-font-specification:'Arial Narrow Bold';fill:#ffffff;stroke-width:0.592373"
       id="path304" /><path
       d="m 375.16116,254.92543 h -9.62146 v -44.23367 h 8.91339 v 6.28935 q 2.29081,-4.41503 4.08182,-5.83118 1.83266,-1.45781 4.20679,-1.45781 3.29043,0 6.28934,2.20753 l -2.99891,10.20456 q -2.37412,-1.91596 -4.49834,-1.91596 -1.99926,0 -3.54036,1.49946 -1.49943,1.45779 -2.16586,5.33136 -0.66641,3.87356 -0.66641,14.24474 z"
       style="font-weight:bold;font-size:38.1px;line-height:1.25;font-family:'Arial Narrow';-inkscape-font-specification:'Arial Narrow Bold';fill:#ffffff;stroke-width:0.592373"
       id="path306" /><path
       d="m 402.7343,193.86464 v 22.45004 q 2.29081,-3.3321 5.03982,-4.95651 2.79062,-1.66605 6.03944,-1.66605 4.33172,0 7.24732,2.29084 2.91557,2.29081 4.16512,6.49758 0.91634,3.08219 0.91634,10.49613 v 25.94876 h -9.5798 v -23.36637 q 0,-8.12201 -1.04129,-10.16292 -1.45779,-2.74898 -4.95651,-2.74898 -3.70696,0 -5.78953,2.99888 -2.04091,2.95725 -2.04091,11.1209 v 22.15849 h -9.62144 v -61.06079 z"
       style="font-weight:bold;font-size:38.1px;line-height:1.25;font-family:'Arial Narrow';-inkscape-font-specification:'Arial Narrow Bold';fill:#ffffff;stroke-width:0.592373"
       id="path308" /><path
       d="m 443.05274,224.18678 -8.7051,-1.91597 q 1.58274,-6.70585 5.20641,-9.62145 3.66531,-2.95724 10.49611,-2.95724 6.0811,0 9.28825,1.70772 3.20715,1.70769 4.58163,4.66493 1.3745,2.9156 1.3745,10.66273 l -0.0833,13.66162 q 0,5.74789 0.45817,8.58018 0.45817,2.79062 1.70769,5.95613 h -9.49649 l -1.24952,-4.83156 q -2.45743,2.9156 -5.28972,4.37339 -2.79063,1.45779 -5.95613,1.45779 -5.28973,0 -8.66347,-3.54034 -3.37377,-3.58203 -3.37377,-9.49651 0,-3.74861 1.37451,-6.53925 1.37447,-2.79063 3.87357,-4.45668 2.49908,-1.66605 7.99704,-2.95724 6.6642,-1.5411 9.28823,-2.87396 0,-3.66529 -0.54146,-4.78989 -0.49981,-1.16623 -1.91595,-1.87431 -1.3745,-0.74971 -3.91522,-0.74971 -2.58239,0 -4.08184,1.16624 -1.45779,1.16624 -2.37412,4.37338 z m 12.8286,9.4965 q -1.83265,0.74971 -5.70623,1.74935 -4.45667,1.16622 -5.83117,2.58237 -1.3745,1.41614 -1.3745,3.66531 0,2.54074 1.49945,4.29008 1.5411,1.70772 3.83191,1.70772 2.04093,0 4.0402,-1.37451 1.99924,-1.41614 2.74898,-3.3321 0.79136,-1.91595 0.79136,-6.95577 z"
       style="font-weight:bold;font-size:38.1px;line-height:1.25;font-family:'Arial Narrow';-inkscape-font-specification:'Arial Narrow Bold';fill:#ffffff;stroke-width:0.592373"
       id="path310" /><path
       d="m 495.82494,240.84729 9.53814,1.95762 q -1.91596,6.6642 -5.95613,9.91299 -4.04017,3.20715 -9.82971,3.20715 -8.0387,0 -12.41209,-5.37301 -5.16474,-6.2477 -5.16474,-17.49355 0,-11.07923 5.20641,-17.74343 4.41503,-5.62294 11.41245,-5.62294 7.78879,0 12.20383,5.74789 5.08146,6.58089 5.08146,19.4095 l -0.0417,1.33284 h -24.0328 q 0.0833,5.24806 2.33246,8.12199 2.29084,2.87396 5.49798,2.87396 4.6233,0 6.16439,-6.33101 z m 0.54146,-11.82897 q -0.12493,-5.16475 -2.20751,-7.74714 -2.08257,-2.62402 -4.9565,-2.62402 -3.04055,0 -5.12311,2.70733 -2.12421,2.74898 -2.08257,7.66383 z"
       style="font-weight:bold;font-size:38.1px;line-height:1.25;font-family:'Arial Narrow';-inkscape-font-specification:'Arial Narrow Bold';fill:#ffffff;stroke-width:0.592373"
       id="path312" /><path
       d="m 546.68117,254.92543 h -9.62147 v -22.57499 q 0,-6.78918 -0.54145,-9.03835 -0.54148,-2.24917 -2.04091,-3.45705 -1.45781,-1.20788 -3.3321,-1.20788 -2.41579,0 -4.37339,1.58274 -1.95762,1.5411 -2.749,4.29008 -0.79136,2.749 -0.79136,10.37118 v 20.03427 h -9.62145 v -44.23367 h 8.91338 v 6.49761 q 2.37412,-3.74863 5.33136,-5.62294 2.99889,-1.87431 6.62256,-1.87431 4.20677,0 7.0807,2.20753 2.9156,2.16586 3.99853,5.62291 1.1246,3.41541 1.1246,9.91302 z"
       style="font-weight:bold;font-size:38.1px;line-height:1.25;font-family:'Arial Narrow';-inkscape-font-specification:'Arial Narrow Bold';fill:#ffffff;stroke-width:0.592373"
       id="path314" /><path
       style="font-weight:bold;font-size:38.1px;line-height:1.25;font-family:'Arial Narrow';-inkscape-font-specification:'Arial Narrow Bold';fill:#ffffff;stroke-width:0.592373"
       d="m 556.42756,254.92543 v -44.23367 h 9.62147 v 44.23367 z"
       id="path349" /><path
       d="m 583.04272,224.18678 -8.70511,-1.91597 q 1.58275,-6.70585 5.20642,-9.62145 3.66531,-2.95724 10.49613,-2.95724 6.08108,0 9.28823,1.70772 3.20715,1.70769 4.58165,4.66493 1.37448,2.9156 1.37448,10.66273 l -0.0833,13.66162 q 0,5.74789 0.45817,8.58018 0.45817,2.79062 1.70772,5.95613 h -9.49649 l -1.24955,-4.83156 q -2.45744,2.9156 -5.28973,4.37339 -2.79062,1.45779 -5.95612,1.45779 -5.2897,0 -8.66347,-3.54034 -3.37374,-3.58203 -3.37374,-9.49651 0,-3.74861 1.37448,-6.53925 1.3745,-2.79063 3.87357,-4.45668 2.49908,-1.66605 7.99704,-2.95724 6.66422,-1.5411 9.28825,-2.87396 0,-3.66529 -0.54148,-4.78989 -0.49981,-1.16623 -1.91595,-1.87431 -1.3745,-0.74971 -3.91522,-0.74971 -2.58239,0 -4.08182,1.16624 -1.45781,1.16624 -2.37414,4.37338 z m 12.82862,9.4965 q -1.83267,0.74971 -5.70623,1.74935 -4.45669,1.16622 -5.83119,2.58237 -1.37448,1.41614 -1.37448,3.66531 0,2.54074 1.49943,4.29008 1.5411,1.70772 3.83193,1.70772 2.04091,0 4.04018,-1.37451 1.99926,-1.41614 2.74898,-3.3321 0.79138,-1.91595 0.79138,-6.95577 z"
       style="font-weight:bold;font-size:38.1px;line-height:1.25;font-family:'Arial Narrow';-inkscape-font-specification:'Arial Narrow Bold';fill:#ffffff;stroke-width:0.592373"
       id="path318" /><g
       id="Star"
       fill="#000000"
       stroke="none"
       transform="matrix(0.15640767,0,0,0.15640767,561.2383,197.9332)"
       style="fill:#ffcc00"><title
         id="title330">Classical Five-Point Star, by Adam Stanislav</title><desc
         id="desc332">A star polygon, calculated and coded by hand to follow the classical star shape (sometimes called a concave decagon) traditionally constructed geometrically since antiquity.</desc><path
         d="M 1.2999903e-7,-90.201227 21.318538,-24.589516 H 90.306817 L 34.494567,15.960753 55.81263,81.572462 1.2999903e-7,41.022193 -55.812631,81.572462 -34.494568,15.960753 -90.306818,-24.589516 h 68.988279 z"
         id="path334"
         style="fill:#ffcc00;stroke-width:0.949542" /></g></g></svg>
