<?xml version="1.0" encoding="UTF-8" standalone="no"?>
<!-- Created with Inkscape (http://www.inkscape.org/) -->

<svg
   width="300"
   height="59.092159"
   viewBox="0 0 79.374998 15.6348"
   version="1.1"
   id="svg5"
   xml:space="preserve"
   xmlns="http://www.w3.org/2000/svg"
   xmlns:svg="http://www.w3.org/2000/svg"><defs
     id="defs2" /><g
     id="layer1"
     transform="translate(-6.5430828,-151.41859)"><path
       d="m 6.5430828,166.81911 v -14.31113 h 3.5436142 l 2.12812,9.76203 2.108597,-9.76203 h 3.553376 v 14.31113 h -2.196455 v -11.26538 l -2.333123,11.26538 H 11.062899 L 8.7492996,155.55373 v 11.26538 z"
       style="font-weight:bold;font-size:20.4521px;line-height:1.25;font-family:'Arial Narrow';-inkscape-font-specification:'Arial Narrow Bold';fill:#ffffff;stroke-width:0.138837"
       id="path1198" /><path
       d="m 21.898742,159.61473 -2.040263,-0.44905 q 0.370957,-1.57169 1.220253,-2.25502 0.859058,-0.69311 2.460029,-0.69311 1.425255,0 2.176932,0.40025 0.751675,0.40024 1.073821,1.09334 0.322147,0.68335 0.322147,2.49908 l -0.01952,3.20194 q 0,1.34716 0.107382,2.01098 0.107383,0.65406 0.400243,1.39597 h -2.225741 l -0.29286,-1.1324 q -0.575959,0.68335 -1.239777,1.02501 -0.654055,0.34167 -1.395969,0.34167 -1.239777,0 -2.0305,-0.82977 -0.790724,-0.83953 -0.790724,-2.22573 0,-0.87859 0.322147,-1.53264 0.322146,-0.65406 0.907868,-1.04454 0.585721,-0.39048 1.874308,-0.6931 1.561923,-0.3612 2.17693,-0.67358 0,-0.85906 -0.126906,-1.12263 -0.117144,-0.27334 -0.449053,-0.4393 -0.322146,-0.17571 -0.91763,-0.17571 -0.605245,0 -0.956677,0.27333 -0.341672,0.27334 -0.556436,1.02501 z m 3.006702,2.22575 q -0.429528,0.17571 -1.337396,0.41001 -1.044537,0.27332 -1.366683,0.60524 -0.322147,0.33191 -0.322147,0.85905 0,0.59549 0.351433,1.00549 0.361195,0.40024 0.898106,0.40024 0.478339,0 0.946915,-0.32214 0.468577,-0.33191 0.644294,-0.78096 0.185478,-0.44905 0.185478,-1.63027 z"
       style="font-weight:bold;font-size:20.4521px;line-height:1.25;font-family:'Arial Narrow';-inkscape-font-specification:'Arial Narrow Bold';fill:#ffffff;stroke-width:0.138837"
       id="path1200" /><path
       d="m 31.494809,166.81911 h -2.255027 v -10.36727 h 2.089072 v 1.47407 q 0.536911,-1.03478 0.956678,-1.36668 0.429529,-0.34168 0.985964,-0.34168 0.7712,0 1.474065,0.51739 l -0.702865,2.39169 q -0.556435,-0.44905 -1.054299,-0.44905 -0.468577,0 -0.829771,0.35143 -0.351433,0.34167 -0.507625,1.24955 -0.156192,0.90786 -0.156192,3.33861 z"
       style="font-weight:bold;font-size:20.4521px;line-height:1.25;font-family:'Arial Narrow';-inkscape-font-specification:'Arial Narrow Bold';fill:#ffffff;stroke-width:0.138837"
       id="path1202" /><path
       d="m 37.957267,152.50798 v 5.26173 q 0.536911,-0.78096 1.181205,-1.16168 0.654055,-0.39048 1.415492,-0.39048 1.015251,0 1.698592,0.53691 0.683341,0.53692 0.976203,1.52288 0.214764,0.72239 0.214764,2.46003 v 6.08174 h -2.245265 v -5.4765 q 0,-1.90359 -0.24405,-2.38193 -0.341671,-0.64429 -1.161681,-0.64429 -0.86882,0 -1.356921,0.70286 -0.478339,0.69311 -0.478339,2.60646 v 5.1934 H 35.70224 v -14.31113 z"
       style="font-weight:bold;font-size:20.4521px;line-height:1.25;font-family:'Arial Narrow';-inkscape-font-specification:'Arial Narrow Bold';fill:#ffffff;stroke-width:0.138837"
       id="path1204" /><path
       d="m 47.406903,159.61473 -2.040262,-0.44905 q 0.370957,-1.57169 1.220253,-2.25502 0.859058,-0.69311 2.46003,-0.69311 1.425255,0 2.17693,0.40025 0.751676,0.40024 1.073822,1.09334 0.322147,0.68335 0.322147,2.49908 l -0.01952,3.20194 q 0,1.34716 0.107382,2.01098 0.107382,0.65406 0.400243,1.39597 h -2.22574 l -0.292862,-1.1324 q -0.575959,0.68335 -1.239777,1.02501 -0.654055,0.34167 -1.395969,0.34167 -1.239776,0 -2.0305,-0.82977 -0.790724,-0.83953 -0.790724,-2.22573 0,-0.87859 0.322148,-1.53264 0.322146,-0.65406 0.907867,-1.04454 0.585721,-0.39048 1.874308,-0.6931 1.561924,-0.3612 2.176931,-0.67358 0,-0.85906 -0.126906,-1.12263 -0.117144,-0.27334 -0.449053,-0.4393 -0.322147,-0.17571 -0.91763,-0.17571 -0.605246,0 -0.956678,0.27333 -0.341671,0.27334 -0.556436,1.02501 z m 3.006703,2.22575 q -0.429529,0.17571 -1.337397,0.41001 -1.044536,0.27332 -1.366683,0.60524 -0.322147,0.33191 -0.322147,0.85905 0,0.59549 0.351433,1.00549 0.361195,0.40024 0.898107,0.40024 0.478338,0 0.946915,-0.32214 0.468577,-0.33191 0.644293,-0.78096 0.185479,-0.44905 0.185479,-1.63027 z"
       style="font-weight:bold;font-size:20.4521px;line-height:1.25;font-family:'Arial Narrow';-inkscape-font-specification:'Arial Narrow Bold';fill:#ffffff;stroke-width:0.138837"
       id="path1206" /><path
       d="m 59.775382,163.51954 2.235504,0.45881 q -0.449054,1.56193 -1.395969,2.32337 -0.946917,0.75167 -2.303837,0.75167 -1.884071,0 -2.909083,-1.2593 -1.210491,-1.4643 -1.210491,-4.10005 0,-2.59669 1.220253,-4.15861 1.034775,-1.31788 2.674794,-1.31788 1.825497,0 2.860272,1.34716 1.190967,1.5424 1.190967,4.54911 l -0.0098,0.31238 H 56.49533 q 0.01952,1.23001 0.546674,1.90359 0.536911,0.67358 1.288586,0.67358 1.083585,0 1.44478,-1.48383 z m 0.126907,-2.77241 q -0.02929,-1.21049 -0.517387,-1.81573 -0.488102,-0.61501 -1.161681,-0.61501 -0.712627,0 -1.200728,0.63453 -0.497863,0.64429 -0.488102,1.79621 z"
       style="font-weight:bold;font-size:20.4521px;line-height:1.25;font-family:'Arial Narrow';-inkscape-font-specification:'Arial Narrow Bold';fill:#ffffff;stroke-width:0.138837"
       id="path1208" /><path
       d="m 71.694812,166.81911 h -2.255027 v -5.29102 q 0,-1.59121 -0.126906,-2.11836 -0.126906,-0.52714 -0.478339,-0.81025 -0.341671,-0.28309 -0.780962,-0.28309 -0.566197,0 -1.025012,0.37096 -0.458815,0.36118 -0.644294,1.00548 -0.185478,0.6443 -0.185478,2.43074 v 4.69554 h -2.255027 v -10.36727 h 2.089073 v 1.52287 q 0.556435,-0.87857 1.249538,-1.31787 0.702866,-0.43929 1.552162,-0.43929 0.985964,0 1.659543,0.51739 0.683342,0.50762 0.937154,1.31787 0.263575,0.80049 0.263575,2.32336 z"
       style="font-weight:bold;font-size:20.4521px;line-height:1.25;font-family:'Arial Narrow';-inkscape-font-specification:'Arial Narrow Bold';fill:#ffffff;stroke-width:0.138837"
       id="path1210" /><path
       style="font-weight:bold;font-size:20.4521px;line-height:1.25;font-family:'Arial Narrow';-inkscape-font-specification:'Arial Narrow Bold';fill:#ffffff;stroke-width:0.138837"
       d="m 73.979123,166.81911 v -10.36727 h 2.255027 v 10.36727 z"
       id="path1228" /><path
       d="m 80.217059,159.61473 -2.040262,-0.44905 q 0.370956,-1.57169 1.220252,-2.25502 0.859058,-0.69311 2.46003,-0.69311 1.425255,0 2.17693,0.40025 0.751676,0.40024 1.073823,1.09334 0.322146,0.68335 0.322146,2.49908 l -0.01952,3.20194 q 0,1.34716 0.107382,2.01098 0.107382,0.65406 0.400242,1.39597 h -2.22574 l -0.292861,-1.1324 q -0.575959,0.68335 -1.239776,1.02501 -0.654056,0.34167 -1.395969,0.34167 -1.239777,0 -2.030501,-0.82977 -0.790724,-0.83953 -0.790724,-2.22573 0,-0.87859 0.322147,-1.53264 0.322147,-0.65406 0.907868,-1.04454 0.585721,-0.39048 1.874308,-0.6931 1.561923,-0.3612 2.176931,-0.67358 0,-0.85906 -0.126907,-1.12263 -0.117143,-0.27334 -0.449052,-0.4393 -0.322147,-0.17571 -0.917631,-0.17571 -0.605245,0 -0.956678,0.27333 -0.34167,0.27334 -0.556435,1.02501 z m 3.006703,2.22575 q -0.429529,0.17571 -1.337397,0.41001 -1.044536,0.27332 -1.366683,0.60524 -0.322147,0.33191 -0.322147,0.85905 0,0.59549 0.351433,1.00549 0.361195,0.40024 0.898106,0.40024 0.478339,0 0.946916,-0.32214 0.468577,-0.33191 0.644294,-0.78096 0.185478,-0.44905 0.185478,-1.63027 z"
       style="font-weight:bold;font-size:20.4521px;line-height:1.25;font-family:'Arial Narrow';-inkscape-font-specification:'Arial Narrow Bold';fill:#ffffff;stroke-width:0.138837"
       id="path1214" /><path
       d="m 75.106636,151.41859 0.53165,1.63625 h 1.72046 l -1.391869,1.01126 0.531638,1.63626 -1.391879,-1.01126 -1.391879,1.01126 0.531639,-1.63626 -1.39187,-1.01126 h 1.72046 z"
       id="path1234"
       style="fill:#ffff00;stroke:none;stroke-width:0.0236801" /></g></svg>
