<?xml version="1.0" encoding="UTF-8" standalone="no"?>
<!-- Created with Inkscape (http://www.inkscape.org/) -->

<svg
   width="300"
   height="40"
   viewBox="0 0 79.374999 10.583333"
   version="1.1"
   id="svg5"
   xmlns="http://www.w3.org/2000/svg"
   xmlns:svg="http://www.w3.org/2000/svg">
  <defs
     id="defs2" />
  <g
     id="layer1">
    <rect
       style="font-variation-settings:normal;vector-effect:none;fill:#d40000;fill-opacity:1;fill-rule:evenodd;stroke-width:0.0250343;stroke-linecap:butt;stroke-linejoin:miter;stroke-miterlimit:4;stroke-dasharray:none;stroke-dashoffset:0;stroke-opacity:1;stop-color:#000000"
       id="rect395"
       width="79.375"
       height="10.583333"
       x="-1.0513916e-06"
       y="1.0742187e-06" />
    <path
       d="m 3.005886,7.49697 q -0.07716,0 -0.13099,-0.052 -0.05383,-0.0556 -0.05383,-0.13099 V 5.84437 q 0,-0.0754 0.05383,-0.13099 0.05383,-0.0538 0.13099,-0.0538 0.07536,0 0.129196,0.0538 0.05383,0.0556 0.05383,0.13099 V 6.7631 l 2.93921,-2.94101 q 0.152523,0 0.260187,0.10946 0.107663,0.10767 0.107663,0.25839 L 3.188912,7.497 Z"
       id="path165"
       style="font-weight:bold;font-size:38.1px;line-height:1.25;font-family:'Surat Ulu';-inkscape-font-specification:'Surat Ulu Bold';fill:#ffffff;stroke-width:0.0255202" />
    <path
       d="m 5.257845,3.45601 q -0.152523,0 -0.260187,-0.10766 Q 4.889995,3.24068 4.889995,3.08816 l 0.7357,-0.7357 q 0.152523,0 0.258392,0.10766 0.107663,0.10766 0.107663,0.26019 z m -0.7357,-0.36785 q -0.152523,0 -0.258392,-0.10767 Q 4.154295,2.87283 4.154295,2.72031 l 0.7357,-0.7357 q 0.152523,0 0.260187,0.10946 0.107663,0.10766 0.107663,0.25839 z"
       id="path167"
       style="font-weight:bold;font-size:38.1px;line-height:1.25;font-family:'Surat Ulu';-inkscape-font-specification:'Surat Ulu Bold';fill:#ffffff;stroke-width:0.0255202" />
    <path
       d="m 9.654299,6.39522 0.7357,-0.7357 V 4.55776 l -0.7357,0.7357 z M 7.448994,7.49697 q -0.152523,0 -0.258392,-0.10766 Q 7.082939,7.28165 7.082939,7.13092 l 3.30706,-3.30886 h 0.183028 q 0.07536,0 0.13099,0.0538 0.05383,0.0556 0.05383,0.13099 v 1.28657 l 1.469605,-1.4714 h 0.183028 q 0.07536,0 0.13099,0.0538 0.05383,0.0556 0.05383,0.13099 v 1.83745 q 0,0.0754 -0.05383,0.1292 -0.05563,0.0538 -0.13099,0.0538 -0.07536,0 -0.129197,-0.0538 -0.05383,-0.0538 -0.05383,-0.1292 V 4.55768 L 9.654298,7.13084 H 9.471271 q -0.07716,0 -0.130991,-0.0538 Q 9.28645,7.02324 9.28645,6.94605 V 5.65947 Z"
       id="path169"
       style="font-weight:bold;font-size:38.1px;line-height:1.25;font-family:'Surat Ulu';-inkscape-font-specification:'Surat Ulu Bold';fill:#ffffff;stroke-width:0.0255202" />
    <path
       d="M 9.747608,3.82206 Q 9.595085,3.82206 9.487422,3.7144 9.379758,3.60674 9.379758,3.45601 l 0.7357,-0.7357 q 0.152523,0 0.258392,0.10766 0.107663,0.10766 0.107663,0.26019 z"
       id="path171"
       style="font-weight:bold;font-size:38.1px;line-height:1.25;font-family:'Surat Ulu';-inkscape-font-specification:'Surat Ulu Bold';fill:#ffffff;stroke-width:0.0255202" />
    <path
       d="m 14.297183,7.49697 q -0.152522,0 -0.258391,-0.10766 -0.107664,-0.10766 -0.107664,-0.25839 l 3.30706,-3.30886 h 0.183028 q 0.07536,0 0.13099,0.0538 0.05383,0.0556 0.05383,0.13099 v 1.28657 l 1.101755,-1.10355 q 0.152523,0 0.260187,0.10767 0.107663,0.10766 0.107663,0.26018 l -1.469605,1.46961 h -0.18482 q -0.07536,0 -0.129196,-0.0538 -0.05383,-0.0538 -0.05383,-0.1292 V 4.55775 l -0.7357,0.7357 v 1.65264 q 0,0.0772 -0.05383,0.13099 -0.05383,0.0538 -0.129197,0.0538 -0.07716,0 -0.13099,-0.0538 -0.05383,-0.0538 -0.05383,-0.13099 V 5.65951 Z"
       id="path173"
       style="font-weight:bold;font-size:38.1px;line-height:1.25;font-family:'Surat Ulu';-inkscape-font-specification:'Surat Ulu Bold';fill:#ffffff;stroke-width:0.0255202" />
    <path
       d="m 14.298977,8.59873 q -0.152522,0 -0.260185,-0.10766 Q 13.931128,8.3834 13.931128,8.23088 l 0.735699,-0.73391 q 0.152523,0 0.260186,0.10767 0.107664,0.10766 0.107664,0.25839 z"
       id="path175"
       style="font-weight:bold;font-size:38.1px;line-height:1.25;font-family:'Surat Ulu';-inkscape-font-specification:'Surat Ulu Bold';fill:#ffffff;stroke-width:0.0255202" />
    <path
       d="m 20.554022,7.49697 q -0.07537,0 -0.130993,-0.052 -0.05203,-0.0556 -0.05203,-0.13099 V 5.84437 q 0,-0.0754 0.05203,-0.13099 0.05563,-0.0538 0.130993,-0.0538 0.07536,0 0.129196,0.0538 0.05383,0.0556 0.05383,0.13099 V 6.7631 L 21.840596,5.65955 V 4.37477 q 0,-0.0772 0.05383,-0.13099 0.05383,-0.0538 0.129196,-0.0538 0.07536,0 0.13099,0.0538 0.05383,0.0538 0.05383,0.13099 v 0.91872 l 1.469605,-1.4714 q 0.152524,0 0.258392,0.10946 0.109458,0.10767 0.109458,0.25839 L 22.208442,6.0274 v 0.7357 l 0.733904,-0.7357 q 0.152524,0 0.260186,0.10766 0.107664,0.10767 0.107664,0.26019 L 22.208442,7.497 h -0.184816 q -0.07536,0 -0.129196,-0.052 Q 21.8406,7.3894 21.8406,7.31401 V 6.39528 l -1.103548,1.10175 z"
       id="path177"
       style="font-weight:bold;font-size:38.1px;line-height:1.25;font-family:'Surat Ulu';-inkscape-font-specification:'Surat Ulu Bold';fill:#ffffff;stroke-width:0.0255202" />
    <path
       d="m 20.64733,8.59873 q -0.152524,0 -0.260189,-0.10766 Q 20.27948,8.3834 20.27948,8.23088 l 0.735697,-0.73391 q 0.152525,0 0.260189,0.10767 0.107662,0.10766 0.107662,0.25839 z"
       id="path179"
       style="font-weight:bold;font-size:38.1px;line-height:1.25;font-family:'Surat Ulu';-inkscape-font-specification:'Surat Ulu Bold';fill:#ffffff;stroke-width:0.0255202" />
    <path
       d="m 23.678053,3.27118 q -0.07536,0 -0.129196,-0.0538 -0.05383,-0.0538 -0.05383,-0.1292 V 2.16945 q 0,-0.0754 0.05383,-0.13099 0.05383,-0.0538 0.129196,-0.0538 0.07537,0 0.130992,0.0538 0.05204,0.0556 0.05204,0.13099 v 0.55088 l 0.7357,-0.7357 q 0.07536,0 0.13099,0.0538 0.05204,0.0556 0.05204,0.13099 0,0.0754 -0.05204,0.1292 -0.05563,0.0538 -0.13099,0.0538 l -0.7357,0.7357 q 0,0.0754 -0.05204,0.1292 -0.05563,0.0538 -0.130992,0.0538 z"
       id="path181"
       style="font-weight:bold;font-size:38.1px;line-height:1.25;font-family:'Surat Ulu';-inkscape-font-specification:'Surat Ulu Bold';fill:#ffffff;stroke-width:0.0255202" />
    <path
       d="m 28.080687,6.39522 0.735701,-0.7357 V 4.55776 l -0.735701,0.7357 z m -2.205304,1.10175 q -0.152522,0 -0.258392,-0.10766 -0.107662,-0.10766 -0.107662,-0.25839 l 3.307059,-3.30886 h 0.183028 q 0.07536,0 0.13099,0.0538 0.05383,0.0556 0.05383,0.13099 v 1.28657 l 1.469604,-1.4714 q 0.152525,0 0.258392,0.10946 0.109459,0.10767 0.109459,0.25839 L 28.080685,7.13088 H 27.89766 q -0.07716,0 -0.130993,-0.0538 -0.05383,-0.0538 -0.05383,-0.13099 V 5.65951 Z"
       id="path183"
       style="font-weight:bold;font-size:38.1px;line-height:1.25;font-family:'Surat Ulu';-inkscape-font-specification:'Surat Ulu Bold';fill:#ffffff;stroke-width:0.0255202" />
    <path
       d="M 26.474709,4.18991 V 3.08816 h 0.550878 v 1.10175 z"
       id="path185"
       style="font-weight:bold;font-size:38.1px;line-height:1.25;font-family:'Surat Ulu';-inkscape-font-specification:'Surat Ulu Bold';fill:#ffffff;stroke-width:0.0255202" />
    <path
       d="m 32.678714,7.49697 q -0.07716,0 -0.130992,-0.052 -0.05383,-0.0556 -0.05383,-0.13099 V 5.84437 q 0,-0.0754 0.05383,-0.13099 0.05383,-0.0538 0.130992,-0.0538 0.07536,0 0.129194,0.0538 0.05383,0.0556 0.05383,0.13099 V 6.7631 l 2.939211,-2.94101 q 0.152525,0 0.260186,0.10946 0.107664,0.10767 0.107664,0.25839 L 32.861738,7.497 Z"
       id="path187"
       style="font-weight:bold;font-size:38.1px;line-height:1.25;font-family:'Surat Ulu';-inkscape-font-specification:'Surat Ulu Bold';fill:#ffffff;stroke-width:0.0255202" />
    <path
       d="m 32.725368,8.59873 q -0.152524,0 -0.260188,-0.10766 Q 32.357518,8.3834 32.357518,8.23088 l 0.735698,-0.73391 q 0.152524,0 0.260189,0.10767 0.107664,0.10766 0.107664,0.25839 z M 33.093216,4.18991 V 3.08816 h 0.550878 v 1.10175 z"
       id="path189"
       style="font-weight:bold;font-size:38.1px;line-height:1.25;font-family:'Surat Ulu';-inkscape-font-specification:'Surat Ulu Bold';fill:#ffffff;stroke-width:0.0255202" />
    <path
       d="m 37.121817,7.49697 q -0.152521,0 -0.258389,-0.10766 -0.107664,-0.10766 -0.107664,-0.25839 l 3.307058,-3.30886 h 0.183029 q 0.07536,0 0.130992,0.0538 0.05383,0.0556 0.05383,0.13099 v 2.02048 l 2.20351,-2.20531 q 0.152525,0 0.260186,0.10946 0.107665,0.10767 0.107665,0.25839 l -2.571361,2.57316 h -0.184822 q -0.07536,0 -0.129196,-0.0538 -0.05383,-0.0538 -0.05383,-0.13099 V 4.55775 Z"
       id="path191"
       style="font-weight:bold;font-size:38.1px;line-height:1.25;font-family:'Surat Ulu';-inkscape-font-specification:'Surat Ulu Bold';fill:#ffffff;stroke-width:0.0255202" />
    <path
       d="m 37.536322,8.59873 q -0.152522,0 -0.260186,-0.10766 Q 37.168471,8.3834 37.168471,8.23088 l 0.735701,-0.73391 q 0.152524,0 0.260186,0.10767 0.107664,0.10766 0.107664,0.25839 z"
       id="path193"
       style="font-weight:bold;font-size:38.1px;line-height:1.25;font-family:'Surat Ulu';-inkscape-font-specification:'Surat Ulu Bold';fill:#ffffff;stroke-width:0.0255202" />
    <path
       d="m 44.484798,7.49697 q -0.152521,0 -0.258392,-0.10766 -0.107661,-0.10766 -0.107661,-0.25839 l 3.307058,-3.30886 h 0.183029 q 0.07536,0 0.13099,0.0538 0.05383,0.0556 0.05383,0.13099 v 0.91872 l 0.733906,-0.7357 h 0.184822 q 0.07536,0 0.129196,0.0538 0.05383,0.0538 0.05383,0.13099 v 2.75618 h -0.36785 V 4.92553 L 47.79365,5.65944 v 1.4714 H 47.425799 V 6.02729 l -1.103548,1.10355 q -0.152524,0 -0.258394,-0.10767 -0.107662,-0.10766 -0.107662,-0.26018 l 1.469604,-1.46961 v -0.7357 z"
       id="path195"
       style="font-weight:bold;font-size:38.1px;line-height:1.25;font-family:'Surat Ulu';-inkscape-font-specification:'Surat Ulu Bold';fill:#ffffff;stroke-width:0.0255202" />
    <path
       d="M 44.578109,4.18991 V 3.82206 l 0.918726,-0.91872 0.183028,0.18482 v 1.10175 h -0.366056 v -0.7339 z"
       id="path197"
       style="font-weight:bold;font-size:38.1px;line-height:1.25;font-family:'Surat Ulu';-inkscape-font-specification:'Surat Ulu Bold';fill:#ffffff;stroke-width:0.0255202" />
    <path
       d="m 53.268137,6.39522 0.7357,-0.7357 V 4.55776 l -0.7357,0.7357 z m -2.205305,1.10175 q -0.152522,0 -0.258392,-0.10766 -0.107664,-0.10766 -0.107664,-0.25839 l 3.307061,-3.30886 h 0.183028 q 0.07536,0 0.13099,0.0538 0.05383,0.0556 0.05383,0.13099 v 1.28657 l 1.469605,-1.4714 q 0.152524,0 0.258392,0.10946 0.109458,0.10767 0.109458,0.25839 l -2.941005,2.94101 h -0.183028 q -0.07716,0 -0.13099,-0.0538 -0.05383,-0.0538 -0.05383,-0.13099 V 5.65951 Z"
       id="path199"
       style="font-weight:bold;font-size:38.1px;line-height:1.25;font-family:'Surat Ulu';-inkscape-font-specification:'Surat Ulu Bold';fill:#ffffff;stroke-width:0.0255202" />
    <path
       d="m 56.662326,7.49697 q -0.152525,0 -0.260186,-0.10766 -0.107665,-0.10766 -0.107665,-0.25839 l 3.307062,-3.30886 h 0.184822 q 0.07536,0 0.129196,0.0538 0.05383,0.0556 0.05383,0.13099 V 5.8443 q 0,0.0754 -0.05383,0.1292 -0.05383,0.0538 -0.129196,0.0538 -0.07716,0 -0.130993,-0.0538 -0.05383,-0.0538 -0.05383,-0.1292 V 4.55772 l -0.733907,0.7357 v 1.65264 q 0,0.0772 -0.05383,0.13099 -0.05383,0.0538 -0.13099,0.0538 -0.07536,0 -0.129196,-0.0538 -0.05383,-0.0538 -0.05383,-0.13099 V 5.65948 Z"
       id="path201"
       style="font-weight:bold;font-size:38.1px;line-height:1.25;font-family:'Surat Ulu';-inkscape-font-specification:'Surat Ulu Bold';fill:#ffffff;stroke-width:0.0255202" />
    <path
       d="m 61.989867,6.21219 0.36785,-0.18482 0.184822,-0.36785 V 5.29346 L 62.357717,4.92561 61.989867,4.74079 h -0.366054 l -0.366056,0.18482 -0.184822,0.36785 v 0.36606 l 0.184822,0.36785 0.366056,0.18482 z M 61.623813,6.76307 61.257757,6.57825 61.072935,6.39522 60.705085,5.65952 V 5.29346 l 0.36785,-0.7357 0.184822,-0.18302 0.366056,-0.18483 h 0.366054 l 0.36785,0.18483 0.184822,0.18302 0.366057,0.7357 v 0.36606 l -0.366057,0.7357 -0.184822,0.18303 -0.36785,0.18482 z"
       id="path203"
       style="font-weight:bold;font-size:38.1px;line-height:1.25;font-family:'Surat Ulu';-inkscape-font-specification:'Surat Ulu Bold';fill:#ffffff;stroke-width:0.0255202" />
    <path
       d="M 64.469717,7.49697 V 5.47649 q 0,-0.0754 0.05383,-0.12919 0.05383,-0.0538 0.13099,-0.0538 0.07536,0 0.129196,0.0538 0.05383,0.0538 0.05383,0.12919 v 1.28658 l 2.941005,-2.94101 h 0.183028 q 0.07536,0 0.129193,0.0538 0.05384,0.0556 0.05384,0.13099 v 1.65263 l 1.837455,-1.83746 h 0.184822 q 0.07536,0 0.129196,0.0538 0.05383,0.0556 0.05383,0.13099 v 0.18302 l -2.205305,2.20531 h -0.183028 q -0.07537,0 -0.130993,-0.0538 -0.05204,-0.0538 -0.05204,-0.1292 V 4.55771 l -2.941005,2.93921 z"
       id="path205"
       style="font-weight:bold;font-size:38.1px;line-height:1.25;font-family:'Surat Ulu';-inkscape-font-specification:'Surat Ulu Bold';fill:#ffffff;stroke-width:0.0255202" />
    <path
       d="m 72.604485,6.39522 0.735697,-0.7357 V 4.55776 l -0.735697,0.7357 z M 70.39918,7.49697 q -0.152525,0 -0.258395,-0.10766 -0.107662,-0.10766 -0.107662,-0.25839 l 3.307059,-3.30886 h 0.183028 q 0.07536,0 0.13099,0.0538 0.05383,0.0556 0.05383,0.13099 v 2.02048 l -1.103547,1.10355 h -0.183027 q -0.07716,0 -0.130992,-0.0538 -0.05383,-0.0538 -0.05383,-0.13099 V 5.65951 Z"
       id="path207"
       style="font-weight:bold;font-size:38.1px;line-height:1.25;font-family:'Surat Ulu';-inkscape-font-specification:'Surat Ulu Bold';fill:#ffffff;stroke-width:0.0255202" />
    <path
       d="m 75.635206,6.21219 0.36785,-0.18482 0.18482,-0.36785 V 5.29346 l -0.18482,-0.36785 -0.36785,-0.18482 h -0.36606 l -0.36605,0.18482 -0.18482,0.36785 v 0.36606 l 0.18482,0.36785 0.36605,0.18482 z m -0.36606,0.55088 -0.36605,-0.18482 -0.18482,-0.18303 -0.36785,-0.7357 V 5.29346 l 0.36785,-0.7357 0.18482,-0.18302 0.36605,-0.18483 h 0.36606 l 0.36785,0.18483 0.18482,0.18302 0.36606,0.7357 v 0.36606 l -0.36606,0.7357 -0.18482,0.18303 -0.36785,0.18482 z"
       id="path209"
       style="font-weight:bold;font-size:38.1px;line-height:1.25;font-family:'Surat Ulu';-inkscape-font-specification:'Surat Ulu Bold';fill:#ffffff;stroke-width:0.0255202" />
  </g>
</svg>
